<svg width="200" height="128" viewBox="0 0 200 128" fill="none" xmlns="http://www.w3.org/2000/svg">
<g clip-path="url(#clip0_1311_265)">
<path fill-rule="evenodd" clip-rule="evenodd" d="M113.962 6.22176C140.497 8.29602 152.409 37.084 158.655 62.9573C163.276 82.1026 155.754 101.494 139.723 112.935C124.128 124.066 104.173 123.421 87.7375 113.574C63.7309 99.1901 34.3114 80.943 40.9526 53.7566C48.5716 22.5678 81.9537 3.7197 113.962 6.22176Z" fill="#E2F6EC"/>
<path fill-rule="evenodd" clip-rule="evenodd" d="M113.962 6.22176C140.497 8.29602 152.409 37.084 158.655 62.9573C163.276 82.1026 155.754 101.494 139.723 112.935C124.128 124.066 104.173 123.421 87.7375 113.574C63.7309 99.1901 34.3114 80.943 40.9526 53.7566C48.5716 22.5678 81.9537 3.7197 113.962 6.22176Z" fill="url(#paint0_linear_1311_265)" fill-opacity="0.2"/>
<path d="M144.999 66.4489C144.992 66.4489 144.986 66.449 144.98 66.449C142.23 66.449 139.998 63.1186 139.98 59C139.962 63.1091 137.741 66.4336 135 66.4489C135 66.4489 135 66.4489 135 66.4489C137.741 66.4642 139.962 69.7889 139.98 73.8979C139.998 69.7794 142.23 66.449 144.98 66.449C144.986 66.449 144.992 66.4489 144.999 66.4489C144.999 66.4489 144.999 66.4489 144.999 66.4489Z" fill="url(#paint1_linear_1311_265)"/>
<path d="M70.9987 23.4489C70.9923 23.4489 70.9859 23.449 70.9795 23.449C68.2296 23.449 65.9982 20.1186 65.9803 16C65.9623 20.1091 63.7412 23.4336 61 23.4489C61 23.4489 61 23.4489 61 23.4489C63.7412 23.4642 65.9623 26.7889 65.9803 30.8979C65.9982 26.7794 68.2296 23.449 70.9795 23.449C70.9859 23.449 70.9923 23.4489 70.9987 23.4489C70.9987 23.4489 70.9987 23.4489 70.9987 23.4489Z" fill="url(#paint2_linear_1311_265)"/>
<path d="M64.9987 103.449C64.9923 103.449 64.9859 103.449 64.9795 103.449C62.2296 103.449 59.9982 100.119 59.9803 96C59.9623 100.109 57.7412 103.434 55 103.449C55 103.449 55 103.449 55 103.449C57.7412 103.464 59.9623 106.789 59.9803 110.898C59.9982 106.779 62.2296 103.449 64.9795 103.449C64.9859 103.449 64.9923 103.449 64.9987 103.449C64.9987 103.449 64.9987 103.449 64.9987 103.449Z" fill="url(#paint3_linear_1311_265)"/>
<mask id="mask0_1311_265" style="mask-type:alpha" maskUnits="userSpaceOnUse" x="0" y="0" width="200" height="128">
<path fill-rule="evenodd" clip-rule="evenodd" d="M113.962 6.22176C140.497 8.29602 152.409 37.084 158.655 62.9573C163.276 82.1026 155.754 101.494 139.723 112.935C124.128 124.066 104.173 123.421 87.7375 113.574C63.7309 99.1901 34.3114 80.943 40.9526 53.7566C48.5716 22.5678 81.9537 3.7197 113.962 6.22176Z" fill="#E2F6EC"/>
<path fill-rule="evenodd" clip-rule="evenodd" d="M113.962 6.22176C140.497 8.29602 152.409 37.084 158.655 62.9573C163.276 82.1026 155.754 101.494 139.723 112.935C124.128 124.066 104.173 123.421 87.7375 113.574C63.7309 99.1901 34.3114 80.943 40.9526 53.7566C48.5716 22.5678 81.9537 3.7197 113.962 6.22176Z" fill="url(#paint4_linear_1311_265)" fill-opacity="0.2"/>
</mask>
<g mask="url(#mask0_1311_265)">
<path opacity="0.25" d="M162.5 95.7952L113.205 46.5L71.4307 78.9307L121.268 128.768L162.5 95.7952Z" fill="url(#paint5_linear_1311_265)"/>
</g>
<path d="M84.0573 60C84.736 51.8 91.6267 45.3333 100 45.3333C108.373 45.3333 115.264 51.8 115.943 60H116.667C122.916 60 128 65.084 128 71.3333C128 77.5827 122.916 82.6667 116.667 82.6667H104.667H95.3333H83.3333C77.084 82.6667 72 77.5827 72 71.3333C72 65.084 77.084 60 83.3333 60H84.0573Z" fill="#EAF3DC"/>
<path d="M100 41.3333C90.0133 41.3333 81.7734 48.9467 80.7734 58.6667H80C73.3867 58.6667 68 64.0533 68 70.6667C68 77.28 73.3867 82.6667 80 82.6667H90.1875L86.1875 78.6667H80C75.5867 78.6667 72 75.08 72 70.6667C72 66.2533 75.5867 62.6667 80 62.6667H82.6667C83.7733 62.6667 84.6667 61.7733 84.6667 60.6667C84.6667 52.2133 91.5467 45.3333 100 45.3333C108.453 45.3333 115.333 52.2133 115.333 60.6667C115.333 61.7733 116.227 62.6667 117.333 62.6667H120C124.413 62.6667 128 66.2533 128 70.6667C128 75.08 124.413 78.6667 120 78.6667H107.786L103.385 82.6667H120C126.613 82.6667 132 77.28 132 70.6667C132 64.0533 126.613 58.6667 120 58.6667H119.227C118.227 48.9467 109.987 41.3333 100 41.3333ZM111.391 65.3151C110.87 65.3054 110.367 65.4988 109.987 65.8542L96.7318 77.9037L90.0807 71.2526C89.8964 71.0607 89.6757 70.9074 89.4314 70.8019C89.1872 70.6963 88.9243 70.6405 88.6582 70.6378C88.3922 70.6351 88.1282 70.6855 87.8819 70.7861C87.6355 70.8867 87.4117 71.0354 87.2236 71.2236C87.0354 71.4117 86.8867 71.6355 86.7861 71.8819C86.6855 72.1282 86.6351 72.3922 86.6378 72.6583C86.6405 72.9243 86.6963 73.1872 86.8019 73.4315C86.9074 73.6757 87.0607 73.8965 87.2526 74.0807L95.2526 82.0807C95.6162 82.4443 96.1058 82.6539 96.6198 82.666C97.1338 82.6781 97.6327 82.4919 98.013 82.1458L112.68 68.8125C112.981 68.5455 113.195 68.1936 113.293 67.803C113.392 67.4124 113.37 67.0012 113.23 66.6232C113.091 66.2453 112.841 65.9182 112.513 65.6848C112.184 65.4514 111.793 65.3225 111.391 65.3151Z" fill="#2C8658"/>
</g>
<defs>
<linearGradient id="paint0_linear_1311_265" x1="145.5" y1="111.5" x2="54.2001" y2="21.6513" gradientUnits="userSpaceOnUse">
<stop stop-color="#F1F0EC"/>
<stop offset="1" stop-color="#84D6AC"/>
</linearGradient>
<linearGradient id="paint1_linear_1311_265" x1="135" y1="59" x2="145" y2="74" gradientUnits="userSpaceOnUse">
<stop stop-color="#2C8658"/>
<stop offset="1" stop-color="#ACD278"/>
</linearGradient>
<linearGradient id="paint2_linear_1311_265" x1="61" y1="16" x2="71" y2="31" gradientUnits="userSpaceOnUse">
<stop stop-color="#2C8658"/>
<stop offset="1" stop-color="#ACD278"/>
</linearGradient>
<linearGradient id="paint3_linear_1311_265" x1="55" y1="96" x2="65" y2="111" gradientUnits="userSpaceOnUse">
<stop stop-color="#2C8658"/>
<stop offset="1" stop-color="#ACD278"/>
</linearGradient>
<linearGradient id="paint4_linear_1311_265" x1="145.5" y1="111.5" x2="54.2001" y2="21.6513" gradientUnits="userSpaceOnUse">
<stop stop-color="#F1F0EC"/>
<stop offset="1" stop-color="#84D6AC"/>
</linearGradient>
<linearGradient id="paint5_linear_1311_265" x1="88.4005" y1="65" x2="136.803" y2="119.434" gradientUnits="userSpaceOnUse">
<stop stop-color="#2C8658"/>
<stop offset="1" stop-color="#ACD278"/>
</linearGradient>
<clipPath id="clip0_1311_265">
<rect width="200" height="128" fill="white"/>
</clipPath>
</defs>
</svg>
