<svg width="200" height="128" viewBox="0 0 200 128" fill="none" xmlns="http://www.w3.org/2000/svg">
<g clip-path="url(#clip0_1202_240)">
<path fill-rule="evenodd" clip-rule="evenodd" d="M113.962 6.22176C140.497 8.29602 152.409 37.084 158.655 62.9573C163.276 82.1026 155.754 101.494 139.723 112.935C124.128 124.066 104.173 123.421 87.7375 113.574C63.7309 99.1901 34.3114 80.943 40.9526 53.7566C48.5716 22.5678 81.9537 3.7197 113.962 6.22176Z" fill="#F2F4F5"/>
<path d="M83.3333 40C79.307 40 76 43.307 76 47.3333V80.6667C76 84.693 79.307 88 83.3333 88H116.667C120.693 88 124 84.693 124 80.6667V47.3333C124 43.307 120.693 40 116.667 40H83.3333ZM83.3333 44H116.667C118.531 44 120 45.469 120 47.3333V74.6068L111.984 66.8516C111.984 66.8507 111.983 66.8498 111.982 66.849C110.944 65.8472 109.582 65.3333 108.232 65.3333C106.882 65.3333 105.52 65.8472 104.482 66.8516L101.75 69.4948L93.5104 61.5234C92.4751 60.5197 91.1148 60 89.7578 60C88.3988 60 87.0413 60.5229 86.0078 61.5208C86.0069 61.5217 86.0061 61.5226 86.0052 61.5234L80 67.3333V47.3333C80 45.469 81.469 44 83.3333 44ZM108.667 49.3333C106.833 49.3333 105.205 50.0928 104.172 51.2552C103.139 52.4176 102.667 53.8889 102.667 55.3333C102.667 56.7778 103.139 58.2491 104.172 59.4115C105.205 60.5738 106.833 61.3333 108.667 61.3333C110.5 61.3333 112.128 60.5738 113.161 59.4115C114.195 58.2491 114.667 56.7778 114.667 55.3333C114.667 53.8889 114.195 52.4176 113.161 51.2552C112.128 50.0928 110.5 49.3333 108.667 49.3333ZM108.667 53.3333C109.5 53.3333 109.872 53.5738 110.172 53.9115C110.472 54.2491 110.667 54.7778 110.667 55.3333C110.667 55.8889 110.472 56.4176 110.172 56.7552C109.872 57.0928 109.5 57.3333 108.667 57.3333C107.833 57.3333 107.462 57.0928 107.161 56.7552C106.861 56.4176 106.667 55.8889 106.667 55.3333C106.667 54.7778 106.861 54.2491 107.161 53.9115C107.462 53.5738 107.833 53.3333 108.667 53.3333ZM89.7578 64C90.1049 64 90.4471 64.1249 90.7266 64.3958C90.7274 64.3967 90.7283 64.3976 90.7292 64.3984L98.8724 72.276L86.7526 84H83.3333C81.469 84 80 82.531 80 80.6667V72.8984L88.7865 64.3984C89.0704 64.1243 89.4129 64 89.7578 64ZM108.232 69.3333C108.585 69.3333 108.923 69.4564 109.203 69.7266L120 80.1719V80.6667C120 82.531 118.531 84 116.667 84H92.5078L107.263 69.7266C107.54 69.4589 107.881 69.3333 108.232 69.3333Z" fill="#708284"/>
</g>
<defs>
<clipPath id="clip0_1202_240">
<rect width="200" height="128" fill="white"/>
</clipPath>
</defs>
</svg>
