<svg width="200" height="128" viewBox="0 0 200 128" fill="none" xmlns="http://www.w3.org/2000/svg">
<g clip-path="url(#clip0_1311_263)">
<path fill-rule="evenodd" clip-rule="evenodd" d="M97.4918 4.02646C121.525 3.26552 142.827 18.9916 150.776 41.6853C159.348 66.1563 155.264 94.4163 134.675 110.177C112.543 127.12 80.7455 129.407 59.0605 111.895C39.7505 96.3004 45.3398 68.1406 53.6699 44.7598C61.0697 23.99 75.4542 4.72419 97.4918 4.02646Z" fill="#E2F6EC"/>
<path fill-rule="evenodd" clip-rule="evenodd" d="M97.4918 4.02646C121.525 3.26552 142.827 18.9916 150.776 41.6853C159.348 66.1563 155.264 94.4163 134.675 110.177C112.543 127.12 80.7455 129.407 59.0605 111.895C39.7505 96.3004 45.3398 68.1406 53.6699 44.7598C61.0697 23.99 75.4542 4.72419 97.4918 4.02646Z" fill="url(#paint0_linear_1311_263)" fill-opacity="0.2"/>
<path d="M144.999 66.4489C144.992 66.4489 144.986 66.449 144.98 66.449C142.23 66.449 139.998 63.1186 139.98 59C139.962 63.1091 137.741 66.4336 135 66.4489C135 66.4489 135 66.4489 135 66.4489C137.741 66.4642 139.962 69.7889 139.98 73.8979C139.998 69.7794 142.23 66.449 144.98 66.449C144.986 66.449 144.992 66.4489 144.999 66.4489C144.999 66.4489 144.999 66.4489 144.999 66.4489Z" fill="url(#paint1_linear_1311_263)"/>
<path d="M70.9987 23.4489C70.9923 23.4489 70.9859 23.449 70.9795 23.449C68.2296 23.449 65.9982 20.1186 65.9803 16C65.9623 20.1091 63.7412 23.4336 61 23.4489C61 23.4489 61 23.4489 61 23.4489C63.7412 23.4642 65.9623 26.7889 65.9803 30.8979C65.9982 26.7794 68.2296 23.449 70.9795 23.449C70.9859 23.449 70.9923 23.4489 70.9987 23.4489C70.9987 23.4489 70.9987 23.4489 70.9987 23.4489Z" fill="url(#paint2_linear_1311_263)"/>
<path d="M64.9987 103.449C64.9923 103.449 64.9859 103.449 64.9795 103.449C62.2296 103.449 59.9982 100.119 59.9803 96C59.9623 100.109 57.7412 103.434 55 103.449C55 103.449 55 103.449 55 103.449C57.7412 103.464 59.9623 106.789 59.9803 110.898C59.9982 106.779 62.2296 103.449 64.9795 103.449C64.9859 103.449 64.9923 103.449 64.9987 103.449C64.9987 103.449 64.9987 103.449 64.9987 103.449Z" fill="url(#paint3_linear_1311_263)"/>
<mask id="mask0_1311_263" style="mask-type:alpha" maskUnits="userSpaceOnUse" x="0" y="0" width="200" height="128">
<path fill-rule="evenodd" clip-rule="evenodd" d="M97.4918 4.02646C121.525 3.26552 142.827 18.9916 150.776 41.6853C159.348 66.1563 155.264 94.4163 134.675 110.177C112.543 127.12 80.7455 129.407 59.0605 111.895C39.7505 96.3004 45.3398 68.1406 53.6699 44.7598C61.0697 23.99 75.4542 4.72419 97.4918 4.02646Z" fill="#E2F6EC"/>
<path fill-rule="evenodd" clip-rule="evenodd" d="M97.4918 4.02646C121.525 3.26552 142.827 18.9916 150.776 41.6853C159.348 66.1563 155.264 94.4163 134.675 110.177C112.543 127.12 80.7455 129.407 59.0605 111.895C39.7505 96.3004 45.3398 68.1406 53.6699 44.7598C61.0697 23.99 75.4542 4.72419 97.4918 4.02646Z" fill="url(#paint4_linear_1311_263)" fill-opacity="0.2"/>
</mask>
<g mask="url(#mask0_1311_263)">
<path opacity="0.25" d="M162.5 97.5L121.5 56.5001H117.32L104.82 44.0001L99.5 42L90.5614 51.4352L104.561 65.4352L77.5 85L122.569 130.069L162.5 97.5Z" fill="url(#paint5_linear_1311_263)"/>
</g>
<path d="M76 61.9999C76 57.9736 79.307 54.6666 83.3333 54.6666L86 54.6666C86 54.6666 113.735 54.6629 114 54.6666H116.667C120.693 54.6666 124 57.9736 124 61.9999V80.6666C124 84.693 120.693 88 116.667 88H83.3333C79.307 88 76 84.693 76 80.6666V61.9999Z" fill="#EAF3DC"/>
<path d="M99.9714 40C99.4509 40.0076 98.9539 40.2178 98.5859 40.5859L90.5859 48.5859C90.394 48.7702 90.2408 48.9909 90.1352 49.2352C90.0296 49.4794 89.9739 49.7423 89.9711 50.0084C89.9684 50.2745 90.0189 50.5384 90.1194 50.7847C90.22 51.0311 90.3687 51.2549 90.5569 51.4431C90.745 51.6312 90.9689 51.7799 91.2152 51.8805C91.4616 51.9811 91.7255 52.0315 91.9916 52.0288C92.2577 52.0261 92.5205 51.9703 92.7648 51.8648C93.009 51.7592 93.2298 51.606 93.4141 51.414L98 46.8281V75.3333C97.9963 75.5983 98.0452 75.8614 98.144 76.1074C98.2429 76.3533 98.3896 76.5772 98.5757 76.7659C98.7618 76.9546 98.9835 77.1045 99.228 77.2068C99.4725 77.3091 99.735 77.3618 100 77.3618C100.265 77.3618 100.527 77.3091 100.772 77.2068C101.016 77.1045 101.238 76.9546 101.424 76.7659C101.61 76.5772 101.757 76.3533 101.856 76.1074C101.955 75.8614 102.004 75.5983 102 75.3333V46.8281L106.586 51.414C106.77 51.606 106.991 51.7592 107.235 51.8648C107.479 51.9703 107.742 52.0261 108.008 52.0288C108.274 52.0315 108.538 51.9811 108.785 51.8805C109.031 51.7799 109.255 51.6312 109.443 51.4431C109.631 51.2549 109.78 51.0311 109.881 50.7847C109.981 50.5384 110.032 50.2745 110.029 50.0084C110.026 49.7423 109.97 49.4794 109.865 49.2352C109.759 48.9909 109.606 48.7702 109.414 48.5859L101.414 40.5859C101.225 40.3967 101 40.2474 100.752 40.1468C100.504 40.0461 100.239 39.9962 99.9714 40ZM83.3333 54.6666C79.307 54.6666 76 57.9736 76 62V80.6666C76 84.693 79.307 88 83.3333 88H116.667C120.693 88 124 84.693 124 80.6666V62C124 57.9736 120.693 54.6666 116.667 54.6666H114C113.735 54.6629 113.472 54.7118 113.226 54.8107C112.98 54.9095 112.756 55.0562 112.567 55.2423C112.379 55.4284 112.229 55.6501 112.126 55.8946C112.024 56.1392 111.972 56.4016 111.972 56.6666C111.972 56.9317 112.024 57.1941 112.126 57.4386C112.229 57.6831 112.379 57.9049 112.567 58.0909C112.756 58.277 112.98 58.4238 113.226 58.5226C113.472 58.6214 113.735 58.6704 114 58.6666H116.667C118.531 58.6666 120 60.1357 120 62V80.6666C120 82.5309 118.531 84 116.667 84H83.3333C81.469 84 80 82.5309 80 80.6666V62C80 60.1357 81.469 58.6666 83.3333 58.6666H86C86.265 58.6704 86.5281 58.6214 86.7741 58.5226C87.02 58.4238 87.2439 58.277 87.4326 58.0909C87.6213 57.9049 87.7712 57.6831 87.8735 57.4386C87.9758 57.1941 88.0285 56.9317 88.0285 56.6666C88.0285 56.4016 87.9758 56.1392 87.8735 55.8946C87.7712 55.6501 87.6213 55.4284 87.4326 55.2423C87.2439 55.0562 87.02 54.9095 86.7741 54.8107C86.5281 54.7118 86.265 54.6629 86 54.6666H83.3333Z" fill="#2C8658"/>
</g>
<defs>
<linearGradient id="paint0_linear_1311_263" x1="133" y1="114" x2="49.2303" y2="31.7842" gradientUnits="userSpaceOnUse">
<stop stop-color="#F1F0EC"/>
<stop offset="1" stop-color="#84D6AC"/>
</linearGradient>
<linearGradient id="paint1_linear_1311_263" x1="135" y1="59" x2="145" y2="74" gradientUnits="userSpaceOnUse">
<stop stop-color="#2C8658"/>
<stop offset="1" stop-color="#ACD278"/>
</linearGradient>
<linearGradient id="paint2_linear_1311_263" x1="61" y1="16" x2="71" y2="31" gradientUnits="userSpaceOnUse">
<stop stop-color="#2C8658"/>
<stop offset="1" stop-color="#ACD278"/>
</linearGradient>
<linearGradient id="paint3_linear_1311_263" x1="55" y1="96" x2="65" y2="111" gradientUnits="userSpaceOnUse">
<stop stop-color="#2C8658"/>
<stop offset="1" stop-color="#ACD278"/>
</linearGradient>
<linearGradient id="paint4_linear_1311_263" x1="133" y1="114" x2="49.2303" y2="31.7842" gradientUnits="userSpaceOnUse">
<stop stop-color="#F1F0EC"/>
<stop offset="1" stop-color="#84D6AC"/>
</linearGradient>
<linearGradient id="paint5_linear_1311_263" x1="83.5" y1="59.0423" x2="141.873" y2="108.918" gradientUnits="userSpaceOnUse">
<stop stop-color="#2C8658"/>
<stop offset="1" stop-color="#ACD278"/>
</linearGradient>
<clipPath id="clip0_1311_263">
<rect width="200" height="128" fill="white"/>
</clipPath>
</defs>
</svg>
