<svg width="200" height="128" viewBox="0 0 200 128" fill="none" xmlns="http://www.w3.org/2000/svg">
<g clip-path="url(#clip0_1311_274)">
<path fill-rule="evenodd" clip-rule="evenodd" d="M85.9569 4.23106C113.868 1.90406 141.807 17.2993 150.836 43.8116C160.221 71.3709 149.404 102.782 124.843 118.413C103.674 131.886 77.7228 118.784 58.6422 102.487C44.2734 90.2154 42.5134 70.6266 47.5745 52.4208C53.6554 30.5465 63.3316 6.1174 85.9569 4.23106Z" fill="#E2F6EC"/>
<path fill-rule="evenodd" clip-rule="evenodd" d="M85.9569 4.23106C113.868 1.90406 141.807 17.2993 150.836 43.8116C160.221 71.3709 149.404 102.782 124.843 118.413C103.674 131.886 77.7228 118.784 58.6422 102.487C44.2734 90.2154 42.5134 70.6266 47.5745 52.4208C53.6554 30.5465 63.3316 6.1174 85.9569 4.23106Z" fill="url(#paint0_linear_1311_274)" fill-opacity="0.2"/>
<path d="M146.999 100.449C146.992 100.449 146.986 100.449 146.98 100.449C144.23 100.449 141.998 97.1186 141.98 93C141.962 97.1091 139.741 100.434 137 100.449C137 100.449 137 100.449 137 100.449C139.741 100.464 141.962 103.789 141.98 107.898C141.998 103.779 144.23 100.449 146.98 100.449C146.986 100.449 146.992 100.449 146.999 100.449C146.999 100.449 146.999 100.449 146.999 100.449Z" fill="url(#paint1_linear_1311_274)"/>
<path d="M87.9987 25.4489C87.9923 25.4489 87.9859 25.449 87.9795 25.449C85.2296 25.449 82.9982 22.1186 82.9803 18C82.9623 22.1091 80.7412 25.4336 78 25.4489C78 25.4489 78 25.4489 78 25.4489C80.7412 25.4642 82.9623 28.7889 82.9803 32.8979C82.9982 28.7794 85.2296 25.449 87.9795 25.449C87.9859 25.449 87.9923 25.4489 87.9987 25.4489C87.9987 25.4489 87.9987 25.4489 87.9987 25.4489Z" fill="url(#paint2_linear_1311_274)"/>
<path d="M63.9987 76.4489C63.9923 76.4489 63.9859 76.449 63.9795 76.449C61.2296 76.449 58.9982 73.1186 58.9803 69C58.9623 73.1091 56.7412 76.4336 54 76.4489C54 76.4489 54 76.4489 54 76.4489C56.7412 76.4642 58.9623 79.7889 58.9803 83.8979C58.9982 79.7794 61.2296 76.449 63.9795 76.449C63.9859 76.449 63.9923 76.4489 63.9987 76.4489C63.9987 76.4489 63.9987 76.4489 63.9987 76.4489Z" fill="url(#paint3_linear_1311_274)"/>
<mask id="mask0_1311_274" style="mask-type:alpha" maskUnits="userSpaceOnUse" x="0" y="0" width="200" height="128">
<path fill-rule="evenodd" clip-rule="evenodd" d="M85.9569 4.23106C113.868 1.90406 141.807 17.2993 150.836 43.8116C160.221 71.3709 149.404 102.782 124.843 118.413C103.674 131.886 77.7228 118.784 58.6422 102.487C44.2734 90.2154 42.5134 70.6266 47.5745 52.4208C53.6554 30.5465 63.3316 6.1174 85.9569 4.23106Z" fill="#E2F6EC"/>
<path fill-rule="evenodd" clip-rule="evenodd" d="M85.9569 4.23106C113.868 1.90406 141.807 17.2993 150.836 43.8116C160.221 71.3709 149.404 102.782 124.843 118.413C103.674 131.886 77.7228 118.784 58.6422 102.487C44.2734 90.2154 42.5134 70.6266 47.5745 52.4208C53.6554 30.5465 63.3316 6.1174 85.9569 4.23106Z" fill="url(#paint4_linear_1311_274)" fill-opacity="0.2"/>
</mask>
<g mask="url(#mask0_1311_274)">
<path opacity="0.25" d="M161.281 84.159L118.081 40.9592L78.4414 87.4609L118.801 127.82L161.281 84.159Z" fill="url(#paint5_linear_1311_274)"/>
</g>
<path d="M110 38.6667C100.819 38.6667 93.3333 46.1524 93.3333 55.3333C93.3333 57.2091 93.7277 58.9788 94.302 60.6614L78.1484 76.8151H78.1458C75.2987 79.6622 75.3005 84.3389 78.1484 87.1849C79.572 88.6067 81.4588 89.3333 83.3333 89.3333C85.2077 89.3333 87.0946 88.6067 88.5182 87.1849H88.5208L104.672 71.0312C106.354 71.6057 108.126 72 110.003 72C119.183 72 126.669 64.5143 126.669 55.3333C126.669 52.6654 126.022 50.1458 124.914 47.9193C124.773 47.6356 124.566 47.3895 124.311 47.2015C124.055 47.0134 123.759 46.8887 123.446 46.8375C123.134 46.7864 122.813 46.8104 122.511 46.9074C122.21 47.0045 121.935 47.1719 121.711 47.3958L112.552 56.5521C112.024 57.0804 111.352 57.3333 110.667 57.3333C109.981 57.3333 109.309 57.0804 108.781 56.5521C107.724 55.4955 107.724 53.8404 108.781 52.7838V52.7812L117.937 43.625C118.161 43.4006 118.329 43.1263 118.426 42.8245C118.523 42.5228 118.547 42.2023 118.496 41.8894C118.445 41.5766 118.32 41.2804 118.132 41.0252C117.944 40.7701 117.698 40.5633 117.414 40.4219C115.187 39.3121 112.668 38.6667 110 38.6667Z" fill="#EAF3DC"/>
<path d="M110 38.6667C100.819 38.6667 93.3333 46.1524 93.3333 55.3333C93.3333 57.2091 93.7277 58.9788 94.302 60.6614L78.1484 76.8151C78.1475 76.8151 78.1467 76.8151 78.1458 76.8151C75.2987 79.6622 75.3005 84.3389 78.1484 87.1849C79.572 88.6067 81.4588 89.3333 83.3333 89.3333C85.2077 89.3333 87.0946 88.6067 88.5182 87.1849C88.519 87.1849 88.5199 87.1849 88.5208 87.1849L104.672 71.0312C106.354 71.6057 108.126 72 110.003 72C119.183 72 126.669 64.5143 126.669 55.3333C126.669 52.6654 126.022 50.1458 124.914 47.9193C124.773 47.6356 124.566 47.3895 124.311 47.2015C124.055 47.0134 123.759 46.8887 123.446 46.8375C123.134 46.7864 122.813 46.8104 122.511 46.9074C122.21 47.0045 121.935 47.1719 121.711 47.3958L112.552 56.5521C112.024 57.0804 111.352 57.3333 110.667 57.3333C109.981 57.3333 109.309 57.0804 108.781 56.5521C107.724 55.4955 107.724 53.8404 108.781 52.7838C108.781 52.783 108.781 52.7821 108.781 52.7812L117.937 43.625C118.161 43.4006 118.329 43.1263 118.426 42.8245C118.523 42.5228 118.547 42.2023 118.496 41.8894C118.445 41.5766 118.32 41.2804 118.132 41.0252C117.944 40.7701 117.698 40.5633 117.414 40.4219C115.187 39.3121 112.668 38.6667 110 38.6667ZM110 42.6667C110.999 42.6667 111.966 42.7887 112.896 43.0104L105.953 49.9531C103.365 52.5393 103.365 56.7941 105.953 59.3802C107.246 60.6732 108.963 61.3333 110.667 61.3333C112.37 61.3333 114.087 60.6732 115.38 59.3802L122.325 52.4375C122.547 53.3674 122.669 54.3341 122.669 55.3333C122.669 62.3524 117.022 68 110.003 68C108.191 68 106.48 67.6152 104.919 66.9297C104.55 66.7676 104.141 66.7207 103.745 66.7951C103.35 66.8694 102.985 67.0616 102.7 67.3463L85.6901 84.3568C85.0286 85.0164 84.1887 85.3333 83.3333 85.3333C82.4771 85.3333 81.6357 85.0177 80.9739 84.3568C79.6564 83.0401 79.6583 80.9614 80.9765 79.6432L97.9869 62.6354C98.2717 62.3505 98.4639 61.9863 98.5382 61.5904C98.6125 61.1945 98.5656 60.7854 98.4036 60.4167C97.7182 58.8566 97.3333 57.1437 97.3333 55.3333C97.3333 48.3143 102.981 42.6667 110 42.6667Z" fill="#2C8658"/>
</g>
<defs>
<linearGradient id="paint0_linear_1311_274" x1="139.5" y1="110" x2="52.3539" y2="24.1559" gradientUnits="userSpaceOnUse">
<stop stop-color="#F1F0EC"/>
<stop offset="1" stop-color="#84D6AC"/>
</linearGradient>
<linearGradient id="paint1_linear_1311_274" x1="137" y1="93" x2="147" y2="108" gradientUnits="userSpaceOnUse">
<stop stop-color="#2C8658"/>
<stop offset="1" stop-color="#ACD278"/>
</linearGradient>
<linearGradient id="paint2_linear_1311_274" x1="78" y1="18" x2="88" y2="33" gradientUnits="userSpaceOnUse">
<stop stop-color="#2C8658"/>
<stop offset="1" stop-color="#ACD278"/>
</linearGradient>
<linearGradient id="paint3_linear_1311_274" x1="54" y1="69" x2="64" y2="84" gradientUnits="userSpaceOnUse">
<stop stop-color="#2C8658"/>
<stop offset="1" stop-color="#ACD278"/>
</linearGradient>
<linearGradient id="paint4_linear_1311_274" x1="139.5" y1="110" x2="52.3539" y2="24.1559" gradientUnits="userSpaceOnUse">
<stop stop-color="#F1F0EC"/>
<stop offset="1" stop-color="#84D6AC"/>
</linearGradient>
<linearGradient id="paint5_linear_1311_274" x1="92.343" y1="66.5" x2="141.726" y2="107.689" gradientUnits="userSpaceOnUse">
<stop stop-color="#2C8658"/>
<stop offset="1" stop-color="#ACD278"/>
</linearGradient>
<clipPath id="clip0_1311_274">
<rect width="200" height="128" fill="white"/>
</clipPath>
</defs>
</svg>
