<svg width="200" height="128" viewBox="0 0 200 128" fill="none" xmlns="http://www.w3.org/2000/svg">
<g clip-path="url(#clip0_1311_268)">
<path fill-rule="evenodd" clip-rule="evenodd" d="M85.9569 4.23106C113.868 1.90406 141.807 17.2993 150.836 43.8116C160.221 71.3709 149.404 102.782 124.843 118.413C103.674 131.886 77.7228 118.784 58.6422 102.487C44.2734 90.2154 42.5134 70.6266 47.5745 52.4208C53.6554 30.5465 63.3316 6.1174 85.9569 4.23106Z" fill="#E2F6EC"/>
<path fill-rule="evenodd" clip-rule="evenodd" d="M85.9569 4.23106C113.868 1.90406 141.807 17.2993 150.836 43.8116C160.221 71.3709 149.404 102.782 124.843 118.413C103.674 131.886 77.7228 118.784 58.6422 102.487C44.2734 90.2154 42.5134 70.6266 47.5745 52.4208C53.6554 30.5465 63.3316 6.1174 85.9569 4.23106Z" fill="url(#paint0_linear_1311_268)" fill-opacity="0.2"/>
<path d="M146.999 100.449C146.992 100.449 146.986 100.449 146.98 100.449C144.23 100.449 141.998 97.1186 141.98 93C141.962 97.1091 139.741 100.434 137 100.449C137 100.449 137 100.449 137 100.449C139.741 100.464 141.962 103.789 141.98 107.898C141.998 103.779 144.23 100.449 146.98 100.449C146.986 100.449 146.992 100.449 146.999 100.449C146.999 100.449 146.999 100.449 146.999 100.449Z" fill="url(#paint1_linear_1311_268)"/>
<path d="M87.9987 25.4489C87.9923 25.4489 87.9859 25.449 87.9795 25.449C85.2296 25.449 82.9982 22.1186 82.9803 18C82.9623 22.1091 80.7412 25.4336 78 25.4489C78 25.4489 78 25.4489 78 25.4489C80.7412 25.4642 82.9623 28.7889 82.9803 32.8979C82.9982 28.7794 85.2296 25.449 87.9795 25.449C87.9859 25.449 87.9923 25.4489 87.9987 25.4489C87.9987 25.4489 87.9987 25.4489 87.9987 25.4489Z" fill="url(#paint2_linear_1311_268)"/>
<path d="M63.9987 76.4489C63.9923 76.4489 63.9859 76.449 63.9795 76.449C61.2296 76.449 58.9982 73.1186 58.9803 69C58.9623 73.1091 56.7412 76.4336 54 76.4489C54 76.4489 54 76.4489 54 76.4489C56.7412 76.4642 58.9623 79.7889 58.9803 83.8979C58.9982 79.7794 61.2296 76.449 63.9795 76.449C63.9859 76.449 63.9923 76.4489 63.9987 76.4489C63.9987 76.4489 63.9987 76.4489 63.9987 76.4489Z" fill="url(#paint3_linear_1311_268)"/>
<mask id="mask0_1311_268" style="mask-type:alpha" maskUnits="userSpaceOnUse" x="0" y="0" width="200" height="128">
<path fill-rule="evenodd" clip-rule="evenodd" d="M85.9569 4.23106C113.868 1.90406 141.807 17.2993 150.836 43.8116C160.221 71.3709 149.404 102.782 124.843 118.413C103.674 131.886 77.7228 118.784 58.6422 102.487C44.2734 90.2154 42.5134 70.6266 47.5745 52.4208C53.6554 30.5465 63.3316 6.1174 85.9569 4.23106Z" fill="#E2F6EC"/>
<path fill-rule="evenodd" clip-rule="evenodd" d="M85.9569 4.23106C113.868 1.90406 141.807 17.2993 150.836 43.8116C160.221 71.3709 149.404 102.782 124.843 118.413C103.674 131.886 77.7228 118.784 58.6422 102.487C44.2734 90.2154 42.5134 70.6266 47.5745 52.4208C53.6554 30.5465 63.3316 6.1174 85.9569 4.23106Z" fill="url(#paint4_linear_1311_268)" fill-opacity="0.2"/>
</mask>
<g mask="url(#mask0_1311_268)">
<path opacity="0.25" d="M164.752 94.2466L123 52.4943L109.5 63.5L92 46L76 58L83.9307 66.1706V80.0889L129 125.158L164.752 94.2466Z" fill="url(#paint5_linear_1311_268)"/>
</g>
<path d="M83.9999 42.6667C78.2989 42.6667 73.3333 46.6725 73.3333 52C73.3333 57.3275 78.2989 61.3333 83.9999 61.3333C89.701 61.3333 94.6666 57.3275 94.6666 52C94.6666 46.6725 89.701 42.6667 83.9999 42.6667ZM114.471 48.6406C112.246 48.6784 110.106 49.4769 108.458 51.125C104.691 54.8922 105.37 61.2344 109.401 65.2656C113.432 69.2968 119.775 69.9755 123.542 66.2083C127.309 62.4411 126.63 56.0989 122.599 52.0677C120.331 49.8002 117.332 48.592 114.471 48.6406ZM89.5077 63.763C85.8482 63.7988 82.4576 65.5979 80.9478 68.9349C78.7519 73.7887 81.6234 79.486 86.8176 81.8359C88.8676 82.7634 91.0691 83.0654 93.1197 82.8047C94.9047 85.9836 98.561 88 102.667 88C108.368 88 113.333 83.9945 113.333 78.6667C113.333 73.3388 108.368 69.3333 102.667 69.3333C101.7 69.3333 100.764 69.4589 99.8671 69.6719C98.721 67.6336 96.8567 65.8885 94.5129 64.8281C92.8898 64.0937 91.1712 63.7468 89.5077 63.763Z" fill="#EAF3DC"/>
<path d="M83.9999 42.6667C78.2989 42.6667 73.3333 46.6725 73.3333 52C73.3333 57.3275 78.2989 61.3333 83.9999 61.3333C89.701 61.3333 94.6666 57.3275 94.6666 52C94.6666 46.6725 89.701 42.6667 83.9999 42.6667ZM83.9999 46.6667C87.8718 46.6667 90.6666 49.2273 90.6666 52C90.6666 54.7727 87.8718 57.3333 83.9999 57.3333C80.128 57.3333 77.3333 54.7727 77.3333 52C77.3333 49.2273 80.128 46.6667 83.9999 46.6667ZM114.471 48.6406C112.246 48.6784 110.106 49.4769 108.458 51.125C104.691 54.8922 105.37 61.2344 109.401 65.2656C113.432 69.2968 119.775 69.9755 123.542 66.2083C127.309 62.4411 126.63 56.0989 122.599 52.0677C120.331 49.8002 117.332 48.592 114.471 48.6406ZM115.237 52.6614C116.771 52.8 118.402 53.5269 119.771 54.8958C122.509 57.6336 122.674 61.4196 120.713 63.3802C118.753 65.3408 114.967 65.1753 112.229 62.4375C109.491 59.6997 109.326 55.9137 111.286 53.9531C112.267 52.9728 113.703 52.5229 115.237 52.6614ZM89.5077 63.763C85.8482 63.7988 82.4576 65.5979 80.9478 68.9349C78.7519 73.7887 81.6234 79.486 86.8176 81.8359C88.8676 82.7634 91.0691 83.0654 93.1197 82.8047C94.9047 85.9836 98.561 88 102.667 88C108.368 88 113.333 83.9945 113.333 78.6667C113.333 73.3388 108.368 69.3333 102.667 69.3333C101.7 69.3333 100.764 69.4589 99.8671 69.6719C98.721 67.6336 96.8567 65.8885 94.5129 64.8281C92.8898 64.0937 91.1712 63.7468 89.5077 63.763ZM88.9973 67.7734C90.2075 67.6664 91.5416 67.8755 92.8645 68.4739C96.3921 70.0699 97.8824 73.5545 96.7395 76.0807C95.5966 78.6069 91.9963 79.7861 88.4687 78.1901C84.941 76.5941 83.4482 73.1095 84.5911 70.5833C85.3054 69.0045 86.9804 67.9518 88.9973 67.7734ZM102.667 73.3333C106.539 73.3333 109.333 75.8931 109.333 78.6667C109.333 81.4402 106.539 84 102.667 84C100.22 84 98.1789 82.9179 97.0312 81.4687C98.4674 80.599 99.652 79.3501 100.385 77.7292C101.008 76.3526 101.211 74.9087 101.081 73.4922C101.587 73.3921 102.117 73.3333 102.667 73.3333Z" fill="#2C8658"/>
</g>
<defs>
<linearGradient id="paint0_linear_1311_268" x1="139.5" y1="110" x2="52.3539" y2="24.1559" gradientUnits="userSpaceOnUse">
<stop stop-color="#F1F0EC"/>
<stop offset="1" stop-color="#84D6AC"/>
</linearGradient>
<linearGradient id="paint1_linear_1311_268" x1="137" y1="93" x2="147" y2="108" gradientUnits="userSpaceOnUse">
<stop stop-color="#2C8658"/>
<stop offset="1" stop-color="#ACD278"/>
</linearGradient>
<linearGradient id="paint2_linear_1311_268" x1="78" y1="18" x2="88" y2="33" gradientUnits="userSpaceOnUse">
<stop stop-color="#2C8658"/>
<stop offset="1" stop-color="#ACD278"/>
</linearGradient>
<linearGradient id="paint3_linear_1311_268" x1="54" y1="69" x2="64" y2="84" gradientUnits="userSpaceOnUse">
<stop stop-color="#2C8658"/>
<stop offset="1" stop-color="#ACD278"/>
</linearGradient>
<linearGradient id="paint4_linear_1311_268" x1="139.5" y1="110" x2="52.3539" y2="24.1559" gradientUnits="userSpaceOnUse">
<stop stop-color="#F1F0EC"/>
<stop offset="1" stop-color="#84D6AC"/>
</linearGradient>
<linearGradient id="paint5_linear_1311_268" x1="82.3753" y1="53" x2="138.217" y2="117.435" gradientUnits="userSpaceOnUse">
<stop stop-color="#2C8658"/>
<stop offset="1" stop-color="#ACD278"/>
</linearGradient>
<clipPath id="clip0_1311_268">
<rect width="200" height="128" fill="white"/>
</clipPath>
</defs>
</svg>
