<svg width="200" height="128" viewBox="0 0 200 128" fill="none" xmlns="http://www.w3.org/2000/svg">
<g clip-path="url(#clip0_1311_256)">
<path fill-rule="evenodd" clip-rule="evenodd" d="M96.8213 12.057C121.699 11.4067 150.77 16.0576 158.417 39.7402C166.04 63.347 144.726 83.4864 124.544 97.9112C105.029 111.859 80.2875 123.307 60.5315 109.702C39.6197 95.3021 35.5523 66.5204 44.3975 42.7204C52.1945 21.7408 74.4473 12.6418 96.8213 12.057Z" fill="#E2F6EC"/>
<path fill-rule="evenodd" clip-rule="evenodd" d="M96.8213 12.057C121.699 11.4067 150.77 16.0576 158.417 39.7402C166.04 63.347 144.726 83.4864 124.544 97.9112C105.029 111.859 80.2875 123.307 60.5315 109.702C39.6197 95.3021 35.5523 66.5204 44.3975 42.7204C52.1945 21.7408 74.4473 12.6418 96.8213 12.057Z" fill="url(#paint0_linear_1311_256)" fill-opacity="0.2"/>
<path d="M60 81.449C60.0063 81.449 60.0127 81.449 60.0191 81.449C62.7691 81.449 65.0004 84.7794 65.0184 88.8979C65.0363 84.7889 67.2575 81.4643 69.9987 81.449C69.9987 81.449 69.9987 81.449 69.9987 81.449C67.2575 81.4337 65.0363 78.1091 65.0184 74C65.0004 78.1186 62.7691 81.449 60.0191 81.449C60.0127 81.449 60.0063 81.449 60 81.449C60 81.449 60 81.4491 60 81.449Z" fill="url(#paint1_linear_1311_256)"/>
<path d="M124 103.449C124.006 103.449 124.013 103.449 124.019 103.449C126.769 103.449 129 106.779 129.018 110.898C129.036 106.789 131.257 103.464 133.999 103.449C133.999 103.449 133.999 103.449 133.999 103.449C131.257 103.434 129.036 100.109 129.018 96C129 100.119 126.769 103.449 124.019 103.449C124.013 103.449 124.006 103.449 124 103.449C124 103.449 124 103.449 124 103.449Z" fill="url(#paint2_linear_1311_256)"/>
<path d="M130 23.449C130.006 23.449 130.013 23.449 130.019 23.449C132.769 23.449 135 26.7794 135.018 30.8979C135.036 26.7889 137.257 23.4643 139.999 23.449C139.999 23.449 139.999 23.449 139.999 23.449C137.257 23.4337 135.036 20.1091 135.018 16C135 20.1186 132.769 23.449 130.019 23.449C130.013 23.449 130.006 23.449 130 23.449C130 23.449 130 23.4491 130 23.449Z" fill="url(#paint3_linear_1311_256)"/>
<mask id="mask0_1311_256" style="mask-type:alpha" maskUnits="userSpaceOnUse" x="0" y="0" width="200" height="128">
<path fill-rule="evenodd" clip-rule="evenodd" d="M96.8213 12.057C121.699 11.4067 150.77 16.0576 158.417 39.7402C166.04 63.347 144.726 83.4864 124.544 97.9112C105.029 111.859 80.2875 123.307 60.5315 109.702C39.6197 95.3021 35.5523 66.5204 44.3975 42.7204C52.1945 21.7408 74.4473 12.6418 96.8213 12.057Z" fill="#E2F6EC"/>
<path fill-rule="evenodd" clip-rule="evenodd" d="M96.8213 12.057C121.699 11.4067 150.77 16.0576 158.417 39.7402C166.04 63.347 144.726 83.4864 124.544 97.9112C105.029 111.859 80.2875 123.307 60.5315 109.702C39.6197 95.3021 35.5523 66.5204 44.3975 42.7204C52.1945 21.7408 74.4473 12.6418 96.8213 12.057Z" fill="url(#paint4_linear_1311_256)" fill-opacity="0.2"/>
</mask>
<g mask="url(#mask0_1311_256)">
<path opacity="0.25" d="M148.557 80.4374L121.771 53.6511L76.9615 87.9251L104.498 115.462L148.557 80.4374Z" fill="url(#paint5_linear_1311_256)"/>
</g>
<path d="M109.6 40.4L121.2 52.9333C122.933 54.8 124 57.6 124 60.5333V84.6667C124 87.3333 122.267 89.3333 120 89.3333H92H79.7333C77.6 89.3333 76 87.3333 76 84.6667V60.5333C76 57.6 76.9333 54.8 78.4 52.9333L88.9333 40.4C89.8667 39.3333 91.2 38.6667 92.5333 38.6667H105.867V38.8C107.2 38.8 108.533 39.3333 109.6 40.4Z" fill="#EAF3DC"/>
<path fill-rule="evenodd" clip-rule="evenodd" d="M109.6 40.4L121.2 52.9333C122.933 54.8 124 57.6 124 60.5333V84.6667C124 87.3333 122.267 89.3333 120 89.3333H92H79.7333C77.6 89.3333 76 87.3333 76 84.6667V60.5333C76 57.6 76.9333 54.8 78.4 52.9333L88.9333 40.4C89.8667 39.3333 91.2 38.6667 92.5333 38.6667H105.867V38.8C107.2 38.8 108.533 39.3333 109.6 40.4ZM92.1333 43.0667C92.2667 42.8 92.5333 42.6667 92.6667 42.6667H100.133L92.1333 51.3333L90.6667 52.9333C89.3333 54.4 88.4 56.4 88.1333 58.5333H80.2667C80.5333 57.3333 80.9333 56.2667 81.6 55.6L85.0667 51.3333L92.1333 43.0667ZM118.4 55.6L106.8 43.0667C106.667 42.9333 106.4 42.6667 106 42.6667C105.6 42.6667 105.333 42.9333 105.2 43.0667L93.7333 55.6C93.0667 56.4 92.5333 57.3333 92.2667 58.5333H119.867C119.6 57.3333 119.067 56.4 118.4 55.6ZM120 62.5333V78H92V62.5333H120ZM88 78V62.5333H80V78H88ZM92.1333 85.3333C92 85.2 92 84.9333 92 84.6667V82H120V84.6667C120 84.8229 119.954 84.9791 119.916 85.1085C119.89 85.2 119.867 85.2781 119.867 85.3333H92.1333ZM80 82V84.6667C80 84.9333 80 85.2 80.1333 85.3333H88V84.6667V82H80Z" fill="#2C8658"/>
</g>
<defs>
<linearGradient id="paint0_linear_1311_256" x1="125.5" y1="101.5" x2="50" y2="26" gradientUnits="userSpaceOnUse">
<stop stop-color="#F1F0EC"/>
<stop offset="1" stop-color="#84D6AC"/>
</linearGradient>
<linearGradient id="paint1_linear_1311_256" x1="69.9987" y1="88.8979" x2="59.9987" y2="73.8979" gradientUnits="userSpaceOnUse">
<stop stop-color="#2C8658"/>
<stop offset="1" stop-color="#ACD278"/>
</linearGradient>
<linearGradient id="paint2_linear_1311_256" x1="133.999" y1="110.898" x2="123.999" y2="95.8979" gradientUnits="userSpaceOnUse">
<stop stop-color="#2C8658"/>
<stop offset="1" stop-color="#ACD278"/>
</linearGradient>
<linearGradient id="paint3_linear_1311_256" x1="139.999" y1="30.8979" x2="129.999" y2="15.8979" gradientUnits="userSpaceOnUse">
<stop stop-color="#2C8658"/>
<stop offset="1" stop-color="#ACD278"/>
</linearGradient>
<linearGradient id="paint4_linear_1311_256" x1="125.5" y1="101.5" x2="50" y2="26" gradientUnits="userSpaceOnUse">
<stop stop-color="#F1F0EC"/>
<stop offset="1" stop-color="#84D6AC"/>
</linearGradient>
<linearGradient id="paint5_linear_1311_256" x1="96.5" y1="71.951" x2="122.689" y2="104.226" gradientUnits="userSpaceOnUse">
<stop stop-color="#2C8658"/>
<stop offset="1" stop-color="#ACD278"/>
</linearGradient>
<clipPath id="clip0_1311_256">
<rect width="200" height="128" fill="white"/>
</clipPath>
</defs>
</svg>
