<svg width="200" height="128" viewBox="0 0 200 128" fill="none" xmlns="http://www.w3.org/2000/svg">
<g clip-path="url(#clip0_1311_264)">
<path fill-rule="evenodd" clip-rule="evenodd" d="M96.6667 4.03883C123.337 3.01324 147.152 22.4244 154.066 48.2033C160.113 70.7493 142.144 89.7357 123.373 103.611C103.911 117.998 79.0313 132.301 59.3453 118.222C39.3978 103.956 43.7968 75.4607 51.4158 52.1506C58.9779 29.0147 72.3442 4.97413 96.6667 4.03883Z" fill="#E2F6EC"/>
<path fill-rule="evenodd" clip-rule="evenodd" d="M96.6667 4.03883C123.337 3.01324 147.152 22.4244 154.066 48.2033C160.113 70.7493 142.144 89.7357 123.373 103.611C103.911 117.998 79.0313 132.301 59.3453 118.222C39.3978 103.956 43.7968 75.4607 51.4158 52.1506C58.9779 29.0147 72.3442 4.97413 96.6667 4.03883Z" fill="url(#paint0_linear_1311_264)" fill-opacity="0.2"/>
<path d="M144.999 66.4489C144.992 66.4489 144.986 66.449 144.98 66.449C142.23 66.449 139.998 63.1186 139.98 59C139.962 63.1091 137.741 66.4336 135 66.4489C135 66.4489 135 66.4489 135 66.4489C137.741 66.4642 139.962 69.7889 139.98 73.8979C139.998 69.7794 142.23 66.449 144.98 66.449C144.986 66.449 144.992 66.4489 144.999 66.4489C144.999 66.4489 144.999 66.4489 144.999 66.4489Z" fill="url(#paint1_linear_1311_264)"/>
<path d="M70.9987 23.4489C70.9923 23.4489 70.9859 23.449 70.9795 23.449C68.2296 23.449 65.9982 20.1186 65.9803 16C65.9623 20.1091 63.7412 23.4336 61 23.4489C61 23.4489 61 23.4489 61 23.4489C63.7412 23.4642 65.9623 26.7889 65.9803 30.8979C65.9982 26.7794 68.2296 23.449 70.9795 23.449C70.9859 23.449 70.9923 23.4489 70.9987 23.4489C70.9987 23.4489 70.9987 23.4489 70.9987 23.4489Z" fill="url(#paint2_linear_1311_264)"/>
<path d="M64.9987 103.449C64.9923 103.449 64.9859 103.449 64.9795 103.449C62.2296 103.449 59.9982 100.119 59.9803 96C59.9623 100.109 57.7412 103.434 55 103.449C55 103.449 55 103.449 55 103.449C57.7412 103.464 59.9623 106.789 59.9803 110.898C59.9982 106.779 62.2296 103.449 64.9795 103.449C64.9859 103.449 64.9923 103.449 64.9987 103.449C64.9987 103.449 64.9987 103.449 64.9987 103.449Z" fill="url(#paint3_linear_1311_264)"/>
<mask id="mask0_1311_264" style="mask-type:alpha" maskUnits="userSpaceOnUse" x="0" y="0" width="200" height="128">
<path fill-rule="evenodd" clip-rule="evenodd" d="M96.6667 4.03883C123.337 3.01324 147.152 22.4244 154.066 48.2033C160.113 70.7493 142.144 89.7357 123.373 103.611C103.911 117.998 79.0313 132.301 59.3453 118.222C39.3978 103.956 43.7968 75.4607 51.4158 52.1506C58.9779 29.0147 72.3442 4.97413 96.6667 4.03883Z" fill="#E2F6EC"/>
<path fill-rule="evenodd" clip-rule="evenodd" d="M96.6667 4.03883C123.337 3.01324 147.152 22.4244 154.066 48.2033C160.113 70.7493 142.144 89.7357 123.373 103.611C103.911 117.998 79.0313 132.301 59.3453 118.222C39.3978 103.956 43.7968 75.4607 51.4158 52.1506C58.9779 29.0147 72.3442 4.97413 96.6667 4.03883Z" fill="url(#paint4_linear_1311_264)" fill-opacity="0.2"/>
</mask>
<g mask="url(#mask0_1311_264)">
<path opacity="0.25" d="M110.5 42.5L151.675 83.6751L112.5 115L82.7827 85.2825L106.751 76.2512L90.7827 60.2825L110.5 42.5Z" fill="url(#paint5_linear_1311_264)"/>
</g>
<path d="M100 37.3333C92.66 37.3333 86.6667 43.3266 86.6667 50.6667C86.6667 58.0068 92.66 64 100 64C107.34 64 113.333 58.0068 113.333 50.6667C113.333 43.3266 107.34 37.3333 100 37.3333ZM83.9714 69.3333C81.065 69.3333 78.6667 71.7316 78.6667 74.638V76.6667C78.6667 81.4722 81.7058 85.1896 85.7423 87.4167C89.7788 89.6437 94.8909 90.6667 100 90.6667C105.109 90.6667 110.221 89.6437 114.258 87.4167C117.7 85.5178 120.29 82.4835 121.016 78.6667H121.336V74.638C121.336 71.7316 118.935 69.3333 116.029 69.3333H83.9714Z" fill="#EAF3DC"/>
<path d="M100 37.3333C92.66 37.3333 86.6667 43.3266 86.6667 50.6667C86.6667 58.0068 92.66 64 100 64C107.34 64 113.333 58.0068 113.333 50.6667C113.333 43.3266 107.34 37.3333 100 37.3333ZM100 41.3333C105.178 41.3333 109.333 45.4883 109.333 50.6667C109.333 55.845 105.178 60 100 60C94.8217 60 90.6667 55.845 90.6667 50.6667C90.6667 45.4883 94.8217 41.3333 100 41.3333ZM83.9714 69.3333C81.065 69.3333 78.6667 71.7316 78.6667 74.638V76.6667C78.6667 81.4722 81.7058 85.1896 85.7423 87.4167C89.7788 89.6437 94.8909 90.6667 100 90.6667C105.109 90.6667 110.221 89.6437 114.258 87.4167C117.7 85.5178 120.29 82.4835 121.016 78.6667H121.336V74.638C121.336 71.7316 118.935 69.3333 116.029 69.3333H83.9714ZM83.9714 73.3333H116.029C116.773 73.3333 117.336 73.8938 117.336 74.638V74.6667H117.333V76.6667C117.333 79.8611 115.539 82.1437 112.326 83.9167C109.112 85.6896 104.558 86.6667 100 86.6667C95.4426 86.6667 90.8881 85.6896 87.6746 83.9167C84.4611 82.1437 82.6667 79.8611 82.6667 76.6667V74.638C82.6667 73.8938 83.2272 73.3333 83.9714 73.3333Z" fill="#2C8658"/>
</g>
<defs>
<linearGradient id="paint0_linear_1311_264" x1="126.5" y1="104" x2="50" y2="27.5" gradientUnits="userSpaceOnUse">
<stop stop-color="#F1F0EC"/>
<stop offset="1" stop-color="#84D6AC"/>
</linearGradient>
<linearGradient id="paint1_linear_1311_264" x1="135" y1="59" x2="145" y2="74" gradientUnits="userSpaceOnUse">
<stop stop-color="#2C8658"/>
<stop offset="1" stop-color="#ACD278"/>
</linearGradient>
<linearGradient id="paint2_linear_1311_264" x1="61" y1="16" x2="71" y2="31" gradientUnits="userSpaceOnUse">
<stop stop-color="#2C8658"/>
<stop offset="1" stop-color="#ACD278"/>
</linearGradient>
<linearGradient id="paint3_linear_1311_264" x1="55" y1="96" x2="65" y2="111" gradientUnits="userSpaceOnUse">
<stop stop-color="#2C8658"/>
<stop offset="1" stop-color="#ACD278"/>
</linearGradient>
<linearGradient id="paint4_linear_1311_264" x1="126.5" y1="104" x2="50" y2="27.5" gradientUnits="userSpaceOnUse">
<stop stop-color="#F1F0EC"/>
<stop offset="1" stop-color="#84D6AC"/>
</linearGradient>
<linearGradient id="paint5_linear_1311_264" x1="90.5" y1="60.1211" x2="136.049" y2="97.8341" gradientUnits="userSpaceOnUse">
<stop stop-color="#2C8658"/>
<stop offset="1" stop-color="#ACD278"/>
</linearGradient>
<clipPath id="clip0_1311_264">
<rect width="200" height="128" fill="white"/>
</clipPath>
</defs>
</svg>
