<svg width="200" height="128" viewBox="0 0 200 128" fill="none" xmlns="http://www.w3.org/2000/svg">
<g clip-path="url(#clip0_1311_255)">
<path fill-rule="evenodd" clip-rule="evenodd" d="M97.4918 4.02646C121.525 3.26552 142.827 18.9916 150.776 41.6853C159.348 66.1563 155.264 94.4163 134.675 110.177C112.543 127.12 80.7455 129.407 59.0605 111.895C39.7505 96.3004 45.3398 68.1406 53.6699 44.7598C61.0697 23.99 75.4542 4.72419 97.4918 4.02646Z" fill="#F1F0EC"/>
<path d="M100 45.3333C91.6267 45.3333 84.736 51.8 84.0573 60H83.3333C77.084 60 72 65.084 72 71.3333C72 77.5826 77.084 82.6666 83.3333 82.6666H95.3333V78.6666H83.3333C79.2893 78.6666 76 75.3773 76 71.3333C76 67.2893 79.2893 64 83.3333 64H86C87.1053 64 88 63.1053 88 62V61.3333C88 54.7173 93.384 49.3333 100 49.3333C106.616 49.3333 112 54.7173 112 61.3333V62C112 63.1053 112.895 64 114 64H116.667C120.711 64 124 67.2893 124 71.3333C124 75.3773 120.711 78.6666 116.667 78.6666H104.667V82.6666H116.667C122.916 82.6666 128 77.5826 128 71.3333C128 65.084 122.916 60 116.667 60H115.943C115.264 51.8 108.373 45.3333 100 45.3333ZM99.9688 63.9713C99.6644 63.9763 99.3653 64.0507 99.0941 64.1888C98.8228 64.3269 98.5867 64.5251 98.4036 64.7682L92.5859 70.5859C92.394 70.7702 92.2408 70.9909 92.1352 71.2352C92.0296 71.4795 91.9739 71.7423 91.9711 72.0084C91.9684 72.2745 92.0189 72.5384 92.1194 72.7848C92.22 73.0311 92.3687 73.2549 92.5569 73.4431C92.745 73.6312 92.9689 73.78 93.2152 73.8805C93.4616 73.9811 93.7255 74.0315 93.9916 74.0288C94.2577 74.0261 94.5205 73.9704 94.7648 73.8648C95.009 73.7592 95.2298 73.606 95.4141 73.414L98 70.8281V86C97.9963 86.265 98.0452 86.5281 98.144 86.7741C98.2429 87.02 98.3896 87.2438 98.5757 87.4326C98.7618 87.6213 98.9835 87.7712 99.228 87.8735C99.4725 87.9758 99.735 88.0285 100 88.0285C100.265 88.0285 100.527 87.9758 100.772 87.8735C101.016 87.7712 101.238 87.6213 101.424 87.4326C101.61 87.2438 101.757 87.02 101.856 86.7741C101.955 86.5281 102.004 86.265 102 86V70.8281L104.586 73.414C104.77 73.606 104.991 73.7592 105.235 73.8648C105.479 73.9704 105.742 74.0261 106.008 74.0288C106.274 74.0315 106.538 73.9811 106.785 73.8805C107.031 73.78 107.255 73.6312 107.443 73.4431C107.631 73.2549 107.78 73.0311 107.881 72.7848C107.981 72.5384 108.032 72.2745 108.029 72.0084C108.026 71.7423 107.97 71.4795 107.865 71.2352C107.759 70.9909 107.606 70.7702 107.414 70.5859L101.586 64.7578C101.396 64.5096 101.152 64.3091 100.871 64.1726C100.59 64.036 100.281 63.9671 99.9688 63.9713Z" fill="#7F775B"/>
</g>
<defs>
<clipPath id="clip0_1311_255">
<rect width="200" height="128" fill="white"/>
</clipPath>
</defs>
</svg>
