<svg width="200" height="128" viewBox="0 0 200 128" fill="none" xmlns="http://www.w3.org/2000/svg">
<g clip-path="url(#clip0_1311_254)">
<path fill-rule="evenodd" clip-rule="evenodd" d="M97.4918 4.02646C121.525 3.26552 142.827 18.9916 150.776 41.6853C159.348 66.1563 155.264 94.4163 134.675 110.177C112.543 127.12 80.7455 129.407 59.0605 111.895C39.7505 96.3004 45.3398 68.1406 53.6699 44.7598C61.0697 23.99 75.4542 4.72419 97.4918 4.02646Z" fill="#F1F0EC"/>
<path d="M84.6667 37.3333C81.3767 37.3333 78.6667 40.0433 78.6667 43.3333V84.6666C78.6667 87.9566 81.3767 90.6666 84.6667 90.6666H115.333C118.623 90.6666 121.333 87.9566 121.333 84.6666V56.6666C121.333 56.1362 121.123 55.6276 120.747 55.2526L120.727 55.2318L103.414 37.9193C103.039 37.5442 102.53 37.3334 102 37.3333H84.6667ZM84.6667 41.3333H100V52.6666C100 55.9566 102.71 58.6666 106 58.6666H117.333V84.6666C117.333 85.7953 116.462 86.6666 115.333 86.6666H84.6667C83.5381 86.6666 82.6667 85.7953 82.6667 84.6666V43.3333C82.6667 42.2046 83.5381 41.3333 84.6667 41.3333ZM104 44.1614L114.505 54.6666H106C104.871 54.6666 104 53.7953 104 52.6666V44.1614ZM99.9714 60C99.451 60.0076 98.954 60.2178 98.586 60.5859L93.2527 65.9193C93.0607 66.1035 92.9075 66.3243 92.8019 66.5685C92.6964 66.8128 92.6406 67.0757 92.6379 67.3417C92.6352 67.6078 92.6856 67.8718 92.7862 68.1181C92.8868 68.3645 93.0355 68.5883 93.2236 68.7764C93.4118 68.9646 93.6356 69.1133 93.882 69.2139C94.1283 69.3145 94.3922 69.3649 94.6583 69.3622C94.9244 69.3595 95.1873 69.3037 95.4315 69.1981C95.6758 69.0926 95.8965 68.9393 96.0808 68.7474L98.0001 66.8281V74C97.9963 74.265 98.0453 74.5281 98.1441 74.7741C98.243 75.02 98.3897 75.2438 98.5758 75.4326C98.7619 75.6213 98.9836 75.7712 99.2281 75.8735C99.4726 75.9758 99.735 76.0285 100 76.0285C100.265 76.0285 100.528 75.9758 100.772 75.8735C101.017 75.7712 101.238 75.6213 101.424 75.4326C101.61 75.2438 101.757 75.02 101.856 74.7741C101.955 74.5281 102.004 74.265 102 74V66.8281L103.919 68.7474C104.104 68.9393 104.324 69.0926 104.569 69.1981C104.813 69.3037 105.076 69.3595 105.342 69.3622C105.608 69.3649 105.872 69.3145 106.118 69.2139C106.365 69.1133 106.588 68.9646 106.777 68.7764C106.965 68.5883 107.113 68.3645 107.214 68.1181C107.315 67.8718 107.365 67.6078 107.362 67.3417C107.36 67.0757 107.304 66.8128 107.198 66.5685C107.093 66.3243 106.939 66.1035 106.747 65.9193L101.414 60.5859C101.225 60.3968 101 60.2474 100.752 60.1468C100.504 60.0462 100.239 59.9962 99.9714 60ZM91.3334 78.6666C91.0684 78.6629 90.8053 78.7119 90.5593 78.8107C90.3134 78.9095 90.0895 79.0562 89.9008 79.2423C89.7121 79.4284 89.5622 79.6502 89.4599 79.8947C89.3576 80.1392 89.3049 80.4016 89.3049 80.6666C89.3049 80.9317 89.3576 81.1941 89.4599 81.4386C89.5622 81.6831 89.7121 81.9049 89.9008 82.091C90.0895 82.2771 90.3134 82.4238 90.5593 82.5226C90.8053 82.6214 91.0684 82.6704 91.3334 82.6666H108.667C108.932 82.6704 109.195 82.6214 109.441 82.5226C109.687 82.4238 109.911 82.2771 110.099 82.091C110.288 81.9049 110.438 81.6831 110.54 81.4386C110.643 81.1941 110.695 80.9317 110.695 80.6666C110.695 80.4016 110.643 80.1392 110.54 79.8947C110.438 79.6502 110.288 79.4284 110.099 79.2423C109.911 79.0562 109.687 78.9095 109.441 78.8107C109.195 78.7119 108.932 78.6629 108.667 78.6666H91.3334Z" fill="#7F775B"/>
</g>
<defs>
<clipPath id="clip0_1311_254">
<rect width="200" height="128" fill="white"/>
</clipPath>
</defs>
</svg>
