<svg width="200" height="128" viewBox="0 0 200 128" fill="none" xmlns="http://www.w3.org/2000/svg">
<g clip-path="url(#clip0_1311_272)">
<path fill-rule="evenodd" clip-rule="evenodd" d="M96.0856 15.3725C121.959 13.8596 153.978 15.9662 161.69 40.6499C169.278 64.937 142.313 82.1093 121.551 96.8805C101.656 111.035 77.6801 128.654 57.6794 114.648C37.1569 100.277 41.5057 70.4853 50.5335 47.1495C57.9088 28.0852 75.6364 16.5682 96.0856 15.3725Z" fill="#E2F6EC"/>
<path fill-rule="evenodd" clip-rule="evenodd" d="M96.0856 15.3725C121.959 13.8596 153.978 15.9662 161.69 40.6499C169.278 64.937 142.313 82.1093 121.551 96.8805C101.656 111.035 77.6801 128.654 57.6794 114.648C37.1569 100.277 41.5057 70.4853 50.5335 47.1495C57.9088 28.0852 75.6364 16.5682 96.0856 15.3725Z" fill="url(#paint0_linear_1311_272)" fill-opacity="0.2"/>
<path d="M144.999 66.4489C144.992 66.4489 144.986 66.449 144.98 66.449C142.23 66.449 139.998 63.1186 139.98 59C139.962 63.1091 137.741 66.4336 135 66.4489C135 66.4489 135 66.4489 135 66.4489C137.741 66.4642 139.962 69.7889 139.98 73.8979C139.998 69.7794 142.23 66.449 144.98 66.449C144.986 66.449 144.992 66.4489 144.999 66.4489C144.999 66.4489 144.999 66.4489 144.999 66.4489Z" fill="url(#paint1_linear_1311_272)"/>
<path d="M70.9987 23.4489C70.9923 23.4489 70.9859 23.449 70.9795 23.449C68.2296 23.449 65.9982 20.1186 65.9803 16C65.9623 20.1091 63.7412 23.4336 61 23.4489C61 23.4489 61 23.4489 61 23.4489C63.7412 23.4642 65.9623 26.7889 65.9803 30.8979C65.9982 26.7794 68.2296 23.449 70.9795 23.449C70.9859 23.449 70.9923 23.4489 70.9987 23.4489C70.9987 23.4489 70.9987 23.4489 70.9987 23.4489Z" fill="url(#paint2_linear_1311_272)"/>
<path d="M64.9987 103.449C64.9923 103.449 64.9859 103.449 64.9795 103.449C62.2296 103.449 59.9982 100.119 59.9803 96C59.9623 100.109 57.7412 103.434 55 103.449C55 103.449 55 103.449 55 103.449C57.7412 103.464 59.9623 106.789 59.9803 110.898C59.9982 106.779 62.2296 103.449 64.9795 103.449C64.9859 103.449 64.9923 103.449 64.9987 103.449C64.9987 103.449 64.9987 103.449 64.9987 103.449Z" fill="url(#paint3_linear_1311_272)"/>
<mask id="mask0_1311_272" style="mask-type:alpha" maskUnits="userSpaceOnUse" x="0" y="0" width="200" height="128">
<path fill-rule="evenodd" clip-rule="evenodd" d="M96.0856 15.3725C121.959 13.8596 153.978 15.9662 161.69 40.6499C169.278 64.937 142.313 82.1093 121.551 96.8805C101.656 111.035 77.6801 128.654 57.6794 114.648C37.1569 100.277 41.5057 70.4853 50.5335 47.1495C57.9088 28.0852 75.6364 16.5682 96.0856 15.3725Z" fill="#E2F6EC"/>
<path fill-rule="evenodd" clip-rule="evenodd" d="M96.0856 15.3725C121.959 13.8596 153.978 15.9662 161.69 40.6499C169.278 64.937 142.313 82.1093 121.551 96.8805C101.656 111.035 77.6801 128.654 57.6794 114.648C37.1569 100.277 41.5057 70.4853 50.5335 47.1495C57.9088 28.0852 75.6364 16.5682 96.0856 15.3725Z" fill="url(#paint4_linear_1311_272)" fill-opacity="0.2"/>
</mask>
<g mask="url(#mask0_1311_272)">
<path opacity="0.25" d="M152.602 78.8254L124.927 51.1503L75.3193 83.7826L103.537 112L152.602 78.8254Z" fill="url(#paint5_linear_1311_272)"/>
</g>
<path d="M79.3333 42.6667C76.0433 42.6667 73.3333 45.3767 73.3333 48.6667V79.3333C73.3333 82.6233 76.0433 85.3333 79.3333 85.3333H120.667C123.957 85.3333 126.667 82.6233 126.667 79.3333V55.3333C126.667 52.0433 123.957 49.3333 120.667 49.3333H100.057L94.0963 44.3672C92.7787 43.2695 91.1188 42.6667 89.4036 42.6667H79.3333Z" fill="#EAF3DC"/>
<path d="M79.3333 42.6667C76.0433 42.6667 73.3333 45.3767 73.3333 48.6667V79.3333C73.3333 82.6233 76.0433 85.3333 79.3333 85.3333H120.667C123.957 85.3333 126.667 82.6233 126.667 79.3333V55.3333C126.667 52.0433 123.957 49.3333 120.667 49.3333H100.057L94.0963 44.3672C92.7787 43.2695 91.1188 42.6667 89.4036 42.6667H79.3333ZM79.3333 46.6667H89.4036C90.1843 46.6667 90.9367 46.9405 91.5364 47.4401L96.2083 51.3333L91.5364 55.2266C90.9367 55.7262 90.1843 56 89.4036 56H77.3333V48.6667C77.3333 47.538 78.2046 46.6667 79.3333 46.6667ZM100.057 53.3333H120.667C121.795 53.3333 122.667 54.2047 122.667 55.3333V79.3333C122.667 80.462 121.795 81.3333 120.667 81.3333H79.3333C78.2046 81.3333 77.3333 80.462 77.3333 79.3333V60H89.4036C91.1188 60 92.7787 59.3972 94.0963 58.2995L100.057 53.3333Z" fill="#2C8658"/>
</g>
<defs>
<linearGradient id="paint0_linear_1311_272" x1="134" y1="98.5" x2="81.9378" y2="16.3195" gradientUnits="userSpaceOnUse">
<stop stop-color="#F1F0EC"/>
<stop offset="1" stop-color="#84D6AC"/>
</linearGradient>
<linearGradient id="paint1_linear_1311_272" x1="135" y1="59" x2="145" y2="74" gradientUnits="userSpaceOnUse">
<stop stop-color="#2C8658"/>
<stop offset="1" stop-color="#ACD278"/>
</linearGradient>
<linearGradient id="paint2_linear_1311_272" x1="61" y1="16" x2="71" y2="31" gradientUnits="userSpaceOnUse">
<stop stop-color="#2C8658"/>
<stop offset="1" stop-color="#ACD278"/>
</linearGradient>
<linearGradient id="paint3_linear_1311_272" x1="55" y1="96" x2="65" y2="111" gradientUnits="userSpaceOnUse">
<stop stop-color="#2C8658"/>
<stop offset="1" stop-color="#ACD278"/>
</linearGradient>
<linearGradient id="paint4_linear_1311_272" x1="134" y1="98.5" x2="81.9378" y2="16.3195" gradientUnits="userSpaceOnUse">
<stop stop-color="#F1F0EC"/>
<stop offset="1" stop-color="#84D6AC"/>
</linearGradient>
<linearGradient id="paint5_linear_1311_272" x1="98.5" y1="67.9914" x2="120.915" y2="101.421" gradientUnits="userSpaceOnUse">
<stop stop-color="#2C8658"/>
<stop offset="1" stop-color="#ACD278"/>
</linearGradient>
<clipPath id="clip0_1311_272">
<rect width="200" height="128" fill="white"/>
</clipPath>
</defs>
</svg>
