<svg width="200" height="128" viewBox="0 0 200 128" fill="none" xmlns="http://www.w3.org/2000/svg">
<g clip-path="url(#clip0_1311_267)">
<path fill-rule="evenodd" clip-rule="evenodd" d="M96.8213 12.057C121.699 11.4067 150.77 16.0576 158.417 39.7402C166.04 63.347 144.726 83.4864 124.544 97.9112C105.029 111.859 80.2875 123.307 60.5315 109.702C39.6197 95.3021 35.5523 66.5204 44.3975 42.7204C52.1945 21.7408 74.4473 12.6418 96.8213 12.057Z" fill="#E2F6EC"/>
<path fill-rule="evenodd" clip-rule="evenodd" d="M96.8213 12.057C121.699 11.4067 150.77 16.0576 158.417 39.7402C166.04 63.347 144.726 83.4864 124.544 97.9112C105.029 111.859 80.2875 123.307 60.5315 109.702C39.6197 95.3021 35.5523 66.5204 44.3975 42.7204C52.1945 21.7408 74.4473 12.6418 96.8213 12.057Z" fill="url(#paint0_linear_1311_267)" fill-opacity="0.2"/>
<path d="M146.999 100.449C146.992 100.449 146.986 100.449 146.98 100.449C144.23 100.449 141.998 97.1186 141.98 93C141.962 97.1091 139.741 100.434 137 100.449C137 100.449 137 100.449 137 100.449C139.741 100.464 141.962 103.789 141.98 107.898C141.998 103.779 144.23 100.449 146.98 100.449C146.986 100.449 146.992 100.449 146.999 100.449C146.999 100.449 146.999 100.449 146.999 100.449Z" fill="url(#paint1_linear_1311_267)"/>
<path d="M87.9987 25.4489C87.9923 25.4489 87.9859 25.449 87.9795 25.449C85.2296 25.449 82.9982 22.1186 82.9803 18C82.9623 22.1091 80.7412 25.4336 78 25.4489C78 25.4489 78 25.4489 78 25.4489C80.7412 25.4642 82.9623 28.7889 82.9803 32.8979C82.9982 28.7794 85.2296 25.449 87.9795 25.449C87.9859 25.449 87.9923 25.4489 87.9987 25.4489C87.9987 25.4489 87.9987 25.4489 87.9987 25.4489Z" fill="url(#paint2_linear_1311_267)"/>
<path d="M63.9987 76.4489C63.9923 76.4489 63.9859 76.449 63.9795 76.449C61.2296 76.449 58.9982 73.1186 58.9803 69C58.9623 73.1091 56.7412 76.4336 54 76.4489C54 76.4489 54 76.4489 54 76.4489C56.7412 76.4642 58.9623 79.7889 58.9803 83.8979C58.9982 79.7794 61.2296 76.449 63.9795 76.449C63.9859 76.449 63.9923 76.4489 63.9987 76.4489C63.9987 76.4489 63.9987 76.4489 63.9987 76.4489Z" fill="url(#paint3_linear_1311_267)"/>
<mask id="mask0_1311_267" style="mask-type:alpha" maskUnits="userSpaceOnUse" x="0" y="0" width="200" height="128">
<path fill-rule="evenodd" clip-rule="evenodd" d="M96.8213 12.057C121.699 11.4067 150.77 16.0576 158.417 39.7402C166.04 63.347 144.726 83.4864 124.544 97.9112C105.029 111.859 80.2875 123.307 60.5315 109.702C39.6197 95.3021 35.5523 66.5204 44.3975 42.7204C52.1945 21.7408 74.4473 12.6418 96.8213 12.057Z" fill="#E2F6EC"/>
<path fill-rule="evenodd" clip-rule="evenodd" d="M96.8213 12.057C121.699 11.4067 150.77 16.0576 158.417 39.7402C166.04 63.347 144.726 83.4864 124.544 97.9112C105.029 111.859 80.2875 123.307 60.5315 109.702C39.6197 95.3021 35.5523 66.5204 44.3975 42.7204C52.1945 21.7408 74.4473 12.6418 96.8213 12.057Z" fill="url(#paint4_linear_1311_267)" fill-opacity="0.2"/>
</mask>
<g mask="url(#mask0_1311_267)">
<path opacity="0.25" d="M146.963 80.9631L113.325 47.3249L94.5 74.5L77.5 88L105 115.5L146.963 80.9631Z" fill="url(#paint5_linear_1311_267)"/>
</g>
<path d="M99.999 40C91.1861 40 83.999 47.1871 83.999 56C83.999 59.9428 86.3371 64.3282 88.9885 68.6875C89.9626 70.2889 90.9959 71.8619 92.0083 73.3333C93.7518 75.8673 95.4331 78.1003 96.6422 79.6589C98.312 81.8104 101.686 81.8104 103.356 79.6589C104.565 78.1003 106.246 75.8673 107.99 73.3333C109.002 71.8619 110.035 70.2889 111.009 68.6875C113.661 64.3282 115.999 59.9428 115.999 56C115.999 47.1871 108.812 40 99.999 40Z" fill="#EAF3DC"/>
<path d="M103.356 79.6589C101.686 81.8104 98.312 81.8104 96.6422 79.6589C95.4331 78.1003 93.7518 75.8673 92.0083 73.3333H87.9729H83.6318C81.7891 73.3333 80.1128 74.4215 79.3661 76.1042L76.4052 82.7708C75.7612 84.2202 75.8902 85.879 76.7542 87.2083C77.6195 88.539 79.0829 89.3333 80.6682 89.3333H119.327C120.912 89.3333 122.377 88.539 123.241 87.2083C124.106 85.879 124.237 84.2215 123.593 82.7708L120.632 76.1042C119.884 74.4215 118.21 73.3333 116.366 73.3333H112.025H107.99C106.246 75.8673 104.565 78.1003 103.356 79.6589Z" fill="#EAF3DC"/>
<path d="M99.999 40C91.1861 40 83.999 47.1871 83.999 56C83.999 59.9428 86.3371 64.3282 88.9885 68.6875C91.64 73.0468 94.731 77.1952 96.6422 79.6589C98.312 81.8104 101.686 81.8104 103.356 79.6589C105.267 77.1952 108.358 73.0468 111.009 68.6875C113.661 64.3282 115.999 59.9428 115.999 56C115.999 47.1871 108.812 40 99.999 40ZM99.999 44C106.65 44 111.999 49.3489 111.999 56C111.999 58.0666 110.109 62.4687 107.59 66.6094C105.072 70.7501 102.051 74.8146 100.194 77.2083C100.061 77.3795 99.9365 77.3795 99.8036 77.2083C97.9468 74.8146 94.9263 70.7501 92.4078 66.6094C89.8893 62.4687 87.999 58.0666 87.999 56C87.999 49.3489 93.3478 44 99.999 44ZM99.999 52C98.9381 52 97.9207 52.4214 97.1705 53.1716C96.4204 53.9217 95.9989 54.9391 95.9989 56C95.9989 57.0609 96.4204 58.0783 97.1705 58.8284C97.9207 59.5786 98.9381 60 99.999 60C101.06 60 102.077 59.5786 102.827 58.8284C103.578 58.0783 103.999 57.0609 103.999 56C103.999 54.9391 103.578 53.9217 102.827 53.1716C102.077 52.4214 101.06 52 99.999 52ZM83.6318 73.3333C81.7891 73.3333 80.1128 74.4215 79.3661 76.1042L76.4052 82.7708C75.7612 84.2202 75.8902 85.879 76.7542 87.2083C77.6195 88.539 79.0829 89.3333 80.6682 89.3333H119.327C120.912 89.3333 122.377 88.539 123.241 87.2083C124.106 85.879 124.237 84.2215 123.593 82.7708L120.632 76.1042C119.884 74.4215 118.21 73.3333 116.366 73.3333H112.025C111.176 74.62 110.254 75.952 109.259 77.3333H116.366C116.629 77.3333 116.869 77.4878 116.976 77.7292L119.936 84.3958C120.064 84.6838 119.962 84.9179 119.887 85.0312C119.812 85.1446 119.644 85.3333 119.33 85.3333H80.6682C80.3536 85.3333 80.1817 85.142 80.1083 85.0286C80.035 84.9153 79.9322 84.6838 80.0588 84.3958L83.0224 77.7292C83.1291 77.4892 83.3691 77.3333 83.6318 77.3333H90.7359C89.7399 75.952 88.8209 74.62 87.9729 73.3333H83.6318Z" fill="#2C8658"/>
</g>
<defs>
<linearGradient id="paint0_linear_1311_267" x1="125.5" y1="101.5" x2="50" y2="26" gradientUnits="userSpaceOnUse">
<stop stop-color="#F1F0EC"/>
<stop offset="1" stop-color="#84D6AC"/>
</linearGradient>
<linearGradient id="paint1_linear_1311_267" x1="137" y1="93" x2="147" y2="108" gradientUnits="userSpaceOnUse">
<stop stop-color="#2C8658"/>
<stop offset="1" stop-color="#ACD278"/>
</linearGradient>
<linearGradient id="paint2_linear_1311_267" x1="78" y1="18" x2="88" y2="33" gradientUnits="userSpaceOnUse">
<stop stop-color="#2C8658"/>
<stop offset="1" stop-color="#ACD278"/>
</linearGradient>
<linearGradient id="paint3_linear_1311_267" x1="54" y1="69" x2="64" y2="84" gradientUnits="userSpaceOnUse">
<stop stop-color="#2C8658"/>
<stop offset="1" stop-color="#ACD278"/>
</linearGradient>
<linearGradient id="paint4_linear_1311_267" x1="125.5" y1="101.5" x2="50" y2="26" gradientUnits="userSpaceOnUse">
<stop stop-color="#F1F0EC"/>
<stop offset="1" stop-color="#84D6AC"/>
</linearGradient>
<linearGradient id="paint5_linear_1311_267" x1="94.5" y1="70.1142" x2="126.628" y2="100.721" gradientUnits="userSpaceOnUse">
<stop stop-color="#2C8658"/>
<stop offset="1" stop-color="#ACD278"/>
</linearGradient>
<clipPath id="clip0_1311_267">
<rect width="200" height="128" fill="white"/>
</clipPath>
</defs>
</svg>
