<svg width="200" height="128" viewBox="0 0 200 128" fill="none" xmlns="http://www.w3.org/2000/svg">
<g clip-path="url(#clip0_1102_234)">
<path fill-rule="evenodd" clip-rule="evenodd" d="M96.8213 12.057C121.699 11.4067 150.77 16.0576 158.417 39.7402C166.04 63.347 144.726 83.4864 124.544 97.9112C105.029 111.859 80.2875 123.307 60.5315 109.702C39.6197 95.3021 35.5523 66.5204 44.3975 42.7204C52.1945 21.7408 74.4473 12.6418 96.8213 12.057Z" fill="#F0F4FF"/>
<path fill-rule="evenodd" clip-rule="evenodd" d="M96.8213 12.057C121.699 11.4067 150.77 16.0576 158.417 39.7402C166.04 63.347 144.726 83.4864 124.544 97.9112C105.029 111.859 80.2875 123.307 60.5315 109.702C39.6197 95.3021 35.5523 66.5204 44.3975 42.7204C52.1945 21.7408 74.4473 12.6418 96.8213 12.057Z" fill="url(#paint0_linear_1102_234)" fill-opacity="0.2"/>
<path d="M60 82.449C60.0063 82.449 60.0127 82.449 60.0191 82.449C62.7691 82.449 65.0004 85.7794 65.0184 89.8979C65.0363 85.7889 67.2575 82.4643 69.9987 82.449C69.9987 82.449 69.9987 82.449 69.9987 82.449C67.2575 82.4337 65.0363 79.1091 65.0184 75C65.0004 79.1186 62.7691 82.449 60.0191 82.449C60.0127 82.449 60.0063 82.449 60 82.449C60 82.4491 60 82.449 60 82.449Z" fill="url(#paint1_linear_1102_234)"/>
<path d="M124 104.449C124.006 104.449 124.013 104.449 124.019 104.449C126.769 104.449 129 107.779 129.018 111.898C129.036 107.789 131.257 104.464 133.999 104.449C133.999 104.449 133.999 104.449 133.999 104.449C131.257 104.434 129.036 101.109 129.018 97C129 101.119 126.769 104.449 124.019 104.449C124.013 104.449 124.006 104.449 124 104.449C124 104.449 124 104.449 124 104.449Z" fill="url(#paint2_linear_1102_234)"/>
<path d="M130 24.449C130.006 24.449 130.013 24.449 130.019 24.449C132.769 24.449 135 27.7794 135.018 31.8979C135.036 27.7889 137.257 24.4643 139.999 24.449C139.999 24.449 139.999 24.449 139.999 24.449C137.257 24.4337 135.036 21.1091 135.018 17C135 21.1186 132.769 24.449 130.019 24.449C130.013 24.449 130.006 24.449 130 24.449C130 24.4491 130 24.449 130 24.449Z" fill="url(#paint3_linear_1102_234)"/>
<mask id="mask0_1102_234" style="mask-type:alpha" maskUnits="userSpaceOnUse" x="0" y="0" width="200" height="128">
<path fill-rule="evenodd" clip-rule="evenodd" d="M96.8213 12.057C121.699 11.4067 150.77 16.0576 158.417 39.7402C166.04 63.347 144.726 83.4864 124.544 97.9112C105.029 111.859 80.2875 123.307 60.5315 109.702C39.6197 95.3021 35.5523 66.5204 44.3975 42.7204C52.1945 21.7408 74.4473 12.6418 96.8213 12.057Z" fill="#F0F4FF"/>
<path fill-rule="evenodd" clip-rule="evenodd" d="M96.8213 12.057C121.699 11.4067 150.77 16.0576 158.417 39.7402C166.04 63.347 144.726 83.4864 124.544 97.9112C105.029 111.859 80.2875 123.307 60.5315 109.702C39.6197 95.3021 35.5523 66.5204 44.3975 42.7204C52.1945 21.7408 74.4473 12.6418 96.8213 12.057Z" fill="url(#paint4_linear_1102_234)" fill-opacity="0.2"/>
</mask>
<g mask="url(#mask0_1102_234)">
<path opacity="0.25" d="M148.557 80.4374L121.771 53.6511L76.9615 87.9251L104.498 115.462L148.557 80.4374Z" fill="url(#paint5_linear_1102_234)"/>
</g>
<path d="M109.6 40.4L121.2 52.9333C122.933 54.8 124 57.6 124 60.5333V84.6667C124 87.3333 122.267 89.3333 120 89.3333H92H79.7333C77.6 89.3333 76 87.3333 76 84.6667V60.5333C76 57.6 76.9333 54.8 78.4 52.9333L88.9333 40.4C89.8667 39.3333 91.2 38.6667 92.5333 38.6667H105.867V38.8C107.2 38.8 108.533 39.3333 109.6 40.4Z" fill="#F0F4FF"/>
<path fill-rule="evenodd" clip-rule="evenodd" d="M109.6 40.4L121.2 52.9333C122.933 54.8 124 57.6 124 60.5333V84.6667C124 87.3333 122.267 89.3333 120 89.3333H92H79.7333C77.6 89.3333 76 87.3333 76 84.6667V60.5333C76 57.6 76.9333 54.8 78.4 52.9333L88.9333 40.4C89.8667 39.3333 91.2 38.6667 92.5333 38.6667H105.867V38.8C107.2 38.8 108.533 39.3333 109.6 40.4ZM92.1333 43.0667C92.2667 42.8 92.5333 42.6667 92.6667 42.6667H100.133L92.1333 51.3333L90.6667 52.9333C89.3333 54.4 88.4 56.4 88.1333 58.5333H80.2667C80.5333 57.3333 80.9333 56.2667 81.6 55.6L85.0667 51.3333L92.1333 43.0667ZM118.4 55.6L106.8 43.0667C106.667 42.9333 106.4 42.6667 106 42.6667C105.6 42.6667 105.333 42.9333 105.2 43.0667L93.7333 55.6C93.0667 56.4 92.5333 57.3333 92.2667 58.5333H119.867C119.6 57.3333 119.067 56.4 118.4 55.6ZM120 62.5333V78H92V62.5333H120ZM88 78V62.5333H80V78H88ZM92.1333 85.3333C92 85.2 92 84.9333 92 84.6667V82H120V84.6667C120 84.8229 119.954 84.9791 119.916 85.1085C119.89 85.2 119.867 85.2781 119.867 85.3333H92.1333ZM80 82V84.6667C80 84.9333 80 85.2 80.1333 85.3333H88V84.6667V82H80Z" fill="#0067C8"/>
</g>
<defs>
<linearGradient id="paint0_linear_1102_234" x1="125.5" y1="101.5" x2="49.5" y2="23.5" gradientUnits="userSpaceOnUse">
<stop stop-color="#007DF2"/>
<stop offset="1" stop-color="#53EA9F"/>
</linearGradient>
<linearGradient id="paint1_linear_1102_234" x1="59.9996" y1="75" x2="69.9996" y2="90" gradientUnits="userSpaceOnUse">
<stop stop-color="#308F5F"/>
<stop offset="1" stop-color="#007DF2"/>
</linearGradient>
<linearGradient id="paint2_linear_1102_234" x1="124" y1="97" x2="134" y2="112" gradientUnits="userSpaceOnUse">
<stop stop-color="#308F5F"/>
<stop offset="1" stop-color="#007DF2"/>
</linearGradient>
<linearGradient id="paint3_linear_1102_234" x1="130" y1="17" x2="140" y2="32" gradientUnits="userSpaceOnUse">
<stop stop-color="#308F5F"/>
<stop offset="1" stop-color="#007DF2"/>
</linearGradient>
<linearGradient id="paint4_linear_1102_234" x1="125.5" y1="101.5" x2="49.5" y2="23.5" gradientUnits="userSpaceOnUse">
<stop stop-color="#007DF2"/>
<stop offset="1" stop-color="#53EA9F"/>
</linearGradient>
<linearGradient id="paint5_linear_1102_234" x1="102.213" y1="68.5735" x2="129.163" y2="97.4119" gradientUnits="userSpaceOnUse">
<stop stop-color="#308F5F"/>
<stop offset="1" stop-color="#007DF2"/>
</linearGradient>
<clipPath id="clip0_1102_234">
<rect width="200" height="128" fill="white"/>
</clipPath>
</defs>
</svg>
