<svg width="200" height="128" viewBox="0 0 200 128" fill="none" xmlns="http://www.w3.org/2000/svg">
<g clip-path="url(#clip0_1416_811)">
<path fill-rule="evenodd" clip-rule="evenodd" d="M96.6667 4.03883C123.337 3.01324 147.152 22.4244 154.066 48.2033C160.113 70.7493 142.144 89.7357 123.373 103.611C103.911 117.998 79.0313 132.301 59.3453 118.222C39.3978 103.956 43.7968 75.4607 51.4158 52.1506C58.9779 29.0147 72.3442 4.97413 96.6667 4.03883Z" fill="#E2F6EC"/>
<path fill-rule="evenodd" clip-rule="evenodd" d="M96.6667 4.03883C123.337 3.01324 147.152 22.4244 154.066 48.2033C160.113 70.7493 142.144 89.7357 123.373 103.611C103.911 117.998 79.0313 132.301 59.3453 118.222C39.3978 103.956 43.7968 75.4607 51.4158 52.1506C58.9779 29.0147 72.3442 4.97413 96.6667 4.03883Z" fill="url(#paint0_linear_1416_811)" fill-opacity="0.2"/>
<path d="M108.999 106.449C108.992 106.449 108.986 106.449 108.98 106.449C106.23 106.449 103.998 103.119 103.98 99C103.962 103.109 101.741 106.434 99 106.449C99 106.449 99 106.449 99 106.449C101.741 106.464 103.962 109.789 103.98 113.898C103.998 109.779 106.23 106.449 108.98 106.449C108.986 106.449 108.992 106.449 108.999 106.449C108.999 106.449 108.999 106.449 108.999 106.449Z" fill="url(#paint1_linear_1416_811)"/>
<path d="M142.999 19.4489C142.992 19.4489 142.986 19.449 142.98 19.449C140.23 19.449 137.998 16.1186 137.98 12C137.962 16.1091 135.741 19.4336 133 19.4489C133 19.4489 133 19.4489 133 19.4489C135.741 19.4642 137.962 22.7889 137.98 26.8979C137.998 22.7794 140.23 19.449 142.98 19.449C142.986 19.449 142.992 19.4489 142.999 19.4489C142.999 19.4489 142.999 19.4489 142.999 19.4489Z" fill="url(#paint2_linear_1416_811)"/>
<path d="M66.9987 42.4489C66.9923 42.4489 66.9859 42.449 66.9795 42.449C64.2296 42.449 61.9982 39.1186 61.9803 35C61.9623 39.1091 59.7412 42.4336 57 42.4489C57 42.4489 57 42.4489 57 42.4489C59.7412 42.4642 61.9623 45.7889 61.9803 49.8979C61.9982 45.7794 64.2296 42.449 66.9795 42.449C66.9859 42.449 66.9923 42.4489 66.9987 42.4489C66.9987 42.4489 66.9987 42.4489 66.9987 42.4489Z" fill="url(#paint3_linear_1416_811)"/>
<mask id="mask0_1416_811" style="mask-type:alpha" maskUnits="userSpaceOnUse" x="0" y="0" width="200" height="128">
<path fill-rule="evenodd" clip-rule="evenodd" d="M96.6667 4.03883C123.337 3.01324 147.152 22.4244 154.066 48.2033C160.113 70.7493 142.144 89.7357 123.373 103.611C103.911 117.998 79.0313 132.301 59.3453 118.222C39.3978 103.956 43.7968 75.4607 51.4158 52.1506C58.9779 29.0147 72.3442 4.97413 96.6667 4.03883Z" fill="#E2F6EC"/>
<path fill-rule="evenodd" clip-rule="evenodd" d="M96.6667 4.03883C123.337 3.01324 147.152 22.4244 154.066 48.2033C160.113 70.7493 142.144 89.7357 123.373 103.611C103.911 117.998 79.0313 132.301 59.3453 118.222C39.3978 103.956 43.7968 75.4607 51.4158 52.1506C58.9779 29.0147 72.3442 4.97413 96.6667 4.03883Z" fill="url(#paint4_linear_1416_811)" fill-opacity="0.2"/>
</mask>
<g mask="url(#mask0_1416_811)">
<path opacity="0.25" d="M158 92.5L120 54.5L80.3906 88.8711L118.933 127.413L158 92.5Z" fill="url(#paint5_linear_1416_811)"/>
</g>
<path d="M84.6667 37.3333C81.3601 37.3333 78.6667 40.0267 78.6667 43.3333V84.6667C78.6667 87.9733 81.3601 90.6667 84.6667 90.6667H115.333C118.641 90.6667 121.333 87.9747 121.333 84.6667V56.6667C121.333 56.1133 121.109 55.6143 120.747 55.2526L103.414 37.9193C103.052 37.5576 102.553 37.3333 102 37.3333H84.6667Z" fill="#EAF3DC"/>
<path d="M84.6667 37.3333C81.3601 37.3333 78.6667 40.0267 78.6667 43.3333V84.6667C78.6667 87.9733 81.3601 90.6667 84.6667 90.6667H115.333C118.641 90.6667 121.333 87.9747 121.333 84.6667V56.6667C121.333 56.1133 121.109 55.6143 120.747 55.2526L103.414 37.9193C103.052 37.5576 102.553 37.3333 102 37.3333H84.6667ZM84.6667 41.3333H100V52.6667C100 55.9733 102.693 58.6667 106 58.6667H117.333V84.6667C117.333 85.7693 116.436 86.6667 115.333 86.6667H84.6667C83.5601 86.6667 82.6667 85.7733 82.6667 84.6667V43.3333C82.6667 42.2267 83.5601 41.3333 84.6667 41.3333ZM104 44.1615L114.505 54.6667H106C104.893 54.6667 104 53.7733 104 52.6667V44.1615ZM110.667 65.3333C109.989 65.334 109.337 65.5924 108.844 66.0563C108.35 66.5202 108.051 67.1546 108.008 67.8307L102.667 73.1719L98.6589 69.1641C98.6159 68.4879 98.3172 67.8535 97.8233 67.3896C97.3295 66.9258 96.6776 66.6673 96.0001 66.6667C95.3226 66.6673 94.6707 66.9258 94.1768 67.3896C93.683 67.8535 93.3842 68.4879 93.3412 69.1641L89.1641 73.3412C88.4791 73.3931 87.8405 73.7073 87.3815 74.2185C86.9225 74.7297 86.6784 75.3983 86.7002 76.0849C86.7221 76.7716 87.0081 77.4233 87.4986 77.9043C87.9892 78.3853 88.6465 78.6584 89.3334 78.6667C90.0109 78.6661 90.6628 78.4076 91.1567 77.9437C91.6505 77.4799 91.9493 76.8454 91.9923 76.1693L96.0001 72.1615L100.008 76.1693C100.051 76.8454 100.35 77.4799 100.844 77.9437C101.337 78.4076 101.989 78.6661 102.667 78.6667C103.344 78.6661 103.996 78.4076 104.49 77.9437C104.984 77.4799 105.283 76.8454 105.326 76.1693L110.836 70.6589C111.521 70.607 112.16 70.2927 112.619 69.7815C113.078 69.2704 113.322 68.6018 113.3 67.9151C113.278 67.2284 112.992 66.5767 112.502 66.0957C112.011 65.6147 111.354 65.3416 110.667 65.3333Z" fill="#2C8658"/>
</g>
<defs>
<linearGradient id="paint0_linear_1416_811" x1="126.5" y1="104" x2="50" y2="27.5" gradientUnits="userSpaceOnUse">
<stop stop-color="#F1F0EC"/>
<stop offset="1" stop-color="#84D6AC"/>
</linearGradient>
<linearGradient id="paint1_linear_1416_811" x1="99" y1="99" x2="109" y2="114" gradientUnits="userSpaceOnUse">
<stop stop-color="#2C8658"/>
<stop offset="1" stop-color="#ACD278"/>
</linearGradient>
<linearGradient id="paint2_linear_1416_811" x1="133" y1="12" x2="143" y2="27" gradientUnits="userSpaceOnUse">
<stop stop-color="#2C8658"/>
<stop offset="1" stop-color="#ACD278"/>
</linearGradient>
<linearGradient id="paint3_linear_1416_811" x1="57" y1="35" x2="67" y2="50" gradientUnits="userSpaceOnUse">
<stop stop-color="#2C8658"/>
<stop offset="1" stop-color="#ACD278"/>
</linearGradient>
<linearGradient id="paint4_linear_1416_811" x1="126.5" y1="104" x2="50" y2="27.5" gradientUnits="userSpaceOnUse">
<stop stop-color="#F1F0EC"/>
<stop offset="1" stop-color="#84D6AC"/>
</linearGradient>
<linearGradient id="paint5_linear_1416_811" x1="93.8308" y1="72.5" x2="135.329" y2="116.904" gradientUnits="userSpaceOnUse">
<stop stop-color="#2C8658"/>
<stop offset="1" stop-color="#ACD278"/>
</linearGradient>
<clipPath id="clip0_1416_811">
<rect width="200" height="128" fill="white"/>
</clipPath>
</defs>
</svg>
