<svg width="200" height="128" viewBox="0 0 200 128" fill="none" xmlns="http://www.w3.org/2000/svg">
<g clip-path="url(#clip0_1311_273)">
<path fill-rule="evenodd" clip-rule="evenodd" d="M97.4918 4.02646C121.525 3.26552 142.827 18.9916 150.776 41.6853C159.348 66.1563 155.264 94.4163 134.675 110.177C112.543 127.12 80.7455 129.407 59.0605 111.895C39.7505 96.3004 45.3398 68.1406 53.6699 44.7598C61.0697 23.99 75.4542 4.72419 97.4918 4.02646Z" fill="#E2F6EC"/>
<path fill-rule="evenodd" clip-rule="evenodd" d="M97.4918 4.02646C121.525 3.26552 142.827 18.9916 150.776 41.6853C159.348 66.1563 155.264 94.4163 134.675 110.177C112.543 127.12 80.7455 129.407 59.0605 111.895C39.7505 96.3004 45.3398 68.1406 53.6699 44.7598C61.0697 23.99 75.4542 4.72419 97.4918 4.02646Z" fill="url(#paint0_linear_1311_273)" fill-opacity="0.2"/>
<path d="M56.9987 34.4489C56.9923 34.4489 56.9859 34.449 56.9795 34.449C54.2296 34.449 51.9982 31.1186 51.9803 27C51.9623 31.1091 49.7412 34.4336 47 34.4489C47 34.4489 47 34.4489 47 34.4489C49.7412 34.4642 51.9623 37.7889 51.9803 41.8979C51.9982 37.7794 54.2296 34.449 56.9795 34.449C56.9859 34.449 56.9923 34.4489 56.9987 34.4489C56.9987 34.4489 56.9987 34.4489 56.9987 34.4489Z" fill="url(#paint1_linear_1311_273)"/>
<path d="M152.999 63.4489C152.992 63.4489 152.986 63.449 152.98 63.449C150.23 63.449 147.998 60.1186 147.98 56C147.962 60.1091 145.741 63.4336 143 63.4489C143 63.4489 143 63.4489 143 63.4489C145.741 63.4642 147.962 66.7889 147.98 70.8979C147.998 66.7794 150.23 63.449 152.98 63.449C152.986 63.449 152.992 63.4489 152.999 63.4489C152.999 63.4489 152.999 63.4489 152.999 63.4489Z" fill="url(#paint2_linear_1311_273)"/>
<path d="M84.9987 92.4489C84.9923 92.4489 84.9859 92.449 84.9795 92.449C82.2296 92.449 79.9982 89.1186 79.9803 85C79.9623 89.1091 77.7412 92.4336 75 92.4489C75 92.4489 75 92.4489 75 92.4489C77.7412 92.4642 79.9623 95.7889 79.9803 99.8979C79.9982 95.7794 82.2296 92.449 84.9795 92.449C84.9859 92.449 84.9923 92.4489 84.9987 92.4489C84.9987 92.4489 84.9987 92.4489 84.9987 92.4489Z" fill="url(#paint3_linear_1311_273)"/>
<mask id="mask0_1311_273" style="mask-type:alpha" maskUnits="userSpaceOnUse" x="0" y="0" width="200" height="128">
<path fill-rule="evenodd" clip-rule="evenodd" d="M97.4918 4.02646C121.525 3.26552 142.827 18.9916 150.776 41.6853C159.348 66.1563 155.264 94.4163 134.675 110.177C112.543 127.12 80.7455 129.407 59.0605 111.895C39.7505 96.3004 45.3398 68.1406 53.6699 44.7598C61.0697 23.99 75.4542 4.72419 97.4918 4.02646Z" fill="#E2F6EC"/>
<path fill-rule="evenodd" clip-rule="evenodd" d="M97.4918 4.02646C121.525 3.26552 142.827 18.9916 150.776 41.6853C159.348 66.1563 155.264 94.4163 134.675 110.177C112.543 127.12 80.7455 129.407 59.0605 111.895C39.7505 96.3004 45.3398 68.1406 53.6699 44.7598C61.0697 23.99 75.4542 4.72419 97.4918 4.02646Z" fill="url(#paint4_linear_1311_273)" fill-opacity="0.2"/>
</mask>
<g mask="url(#mask0_1311_273)">
<path opacity="0.25" d="M160.321 86.6163L119.614 45.9093L82.2266 83.8555L122.456 124.085L160.321 86.6163Z" fill="url(#paint5_linear_1311_273)"/>
</g>
<path d="M73.3333 64C73.3333 49.2961 85.296 37.3333 99.9999 37.3333C114.704 37.3333 126.667 49.2961 126.667 64C126.667 78.7039 114.704 90.6667 99.9999 90.6667C85.296 90.6667 73.3333 78.7039 73.3333 64Z" fill="#EAF3DC"/>
<path d="M99.9999 37.3333C85.296 37.3333 73.3333 49.2961 73.3333 64C73.3333 78.7039 85.296 90.6667 99.9999 90.6667C114.704 90.6667 126.667 78.7039 126.667 64C126.667 49.2961 114.704 37.3333 99.9999 37.3333ZM99.9999 41.3333C112.542 41.3333 122.667 51.4579 122.667 64C122.667 76.5421 112.542 86.6667 99.9999 86.6667C87.4578 86.6667 77.3333 76.5421 77.3333 64C77.3333 51.4579 87.4578 41.3333 99.9999 41.3333ZM91.9999 54C91.1159 54 90.268 54.3512 89.6429 54.9763C89.0178 55.6014 88.6666 56.4493 88.6666 57.3333C88.6666 58.2174 89.0178 59.0652 89.6429 59.6904C90.268 60.3155 91.1159 60.6667 91.9999 60.6667C92.884 60.6667 93.7318 60.3155 94.3569 59.6904C94.9821 59.0652 95.3333 58.2174 95.3333 57.3333C95.3333 56.4493 94.9821 55.6014 94.3569 54.9763C93.7318 54.3512 92.884 54 91.9999 54ZM108 54C107.116 54 106.268 54.3512 105.643 54.9763C105.018 55.6014 104.667 56.4493 104.667 57.3333C104.667 58.2174 105.018 59.0652 105.643 59.6904C106.268 60.3155 107.116 60.6667 108 60.6667C108.884 60.6667 109.732 60.3155 110.357 59.6904C110.982 59.0652 111.333 58.2174 111.333 57.3333C111.333 56.4493 110.982 55.6014 110.357 54.9763C109.732 54.3512 108.884 54 108 54ZM89.0312 69.3125C88.6507 69.3062 88.2763 69.4085 87.9519 69.6074C87.6276 69.8064 87.3667 70.0937 87.1999 70.4358C87.0332 70.7778 86.9674 71.1603 87.0104 71.5384C87.0534 71.9165 87.2033 72.2745 87.4426 72.5703C90.3684 76.2884 94.9238 78.6667 99.9999 78.6667C105.076 78.6667 109.631 76.2884 112.557 72.5703C112.724 72.3643 112.848 72.1273 112.922 71.873C112.996 71.6188 113.019 71.3522 112.99 71.089C112.96 70.8257 112.879 70.571 112.75 70.3395C112.621 70.108 112.447 69.9045 112.239 69.7406C112.031 69.5768 111.792 69.4559 111.537 69.3851C111.282 69.3142 111.015 69.2948 110.752 69.3279C110.489 69.3609 110.236 69.4459 110.006 69.5779C109.776 69.7098 109.575 69.886 109.414 70.0964C107.22 72.8849 103.83 74.6667 99.9999 74.6667C96.1693 74.6667 92.7801 72.8849 90.5859 70.0964C90.4025 69.857 90.1675 69.6621 89.8983 69.5264C89.6291 69.3907 89.3326 69.3175 89.0312 69.3125Z" fill="#2C8658"/>
</g>
<defs>
<linearGradient id="paint0_linear_1311_273" x1="133" y1="114" x2="49.2303" y2="31.7842" gradientUnits="userSpaceOnUse">
<stop stop-color="#F1F0EC"/>
<stop offset="1" stop-color="#84D6AC"/>
</linearGradient>
<linearGradient id="paint1_linear_1311_273" x1="47" y1="27" x2="57" y2="42" gradientUnits="userSpaceOnUse">
<stop stop-color="#2C8658"/>
<stop offset="1" stop-color="#ACD278"/>
</linearGradient>
<linearGradient id="paint2_linear_1311_273" x1="143" y1="56" x2="153" y2="71" gradientUnits="userSpaceOnUse">
<stop stop-color="#2C8658"/>
<stop offset="1" stop-color="#ACD278"/>
</linearGradient>
<linearGradient id="paint3_linear_1311_273" x1="75" y1="85" x2="85" y2="100" gradientUnits="userSpaceOnUse">
<stop stop-color="#2C8658"/>
<stop offset="1" stop-color="#ACD278"/>
</linearGradient>
<linearGradient id="paint4_linear_1311_273" x1="133" y1="114" x2="49.2303" y2="31.7842" gradientUnits="userSpaceOnUse">
<stop stop-color="#F1F0EC"/>
<stop offset="1" stop-color="#84D6AC"/>
</linearGradient>
<linearGradient id="paint5_linear_1311_273" x1="97.5" y1="65.5209" x2="143.326" y2="107.483" gradientUnits="userSpaceOnUse">
<stop stop-color="#2C8658"/>
<stop offset="1" stop-color="#ACD278"/>
</linearGradient>
<clipPath id="clip0_1311_273">
<rect width="200" height="128" fill="white"/>
</clipPath>
</defs>
</svg>
