<svg width="200" height="128" viewBox="0 0 200 128" fill="none" xmlns="http://www.w3.org/2000/svg">
<g clip-path="url(#clip0_1311_260)">
<path fill-rule="evenodd" clip-rule="evenodd" d="M96.6667 4.03883C123.337 3.01324 147.152 22.4244 154.066 48.2033C160.113 70.7493 142.144 89.7357 123.373 103.611C103.911 117.998 79.0313 132.301 59.3453 118.222C39.3978 103.956 43.7968 75.4607 51.4158 52.1506C58.9779 29.0147 72.3442 4.97413 96.6667 4.03883Z" fill="#E2F6EC"/>
<path fill-rule="evenodd" clip-rule="evenodd" d="M96.6667 4.03883C123.337 3.01324 147.152 22.4244 154.066 48.2033C160.113 70.7493 142.144 89.7357 123.373 103.611C103.911 117.998 79.0313 132.301 59.3453 118.222C39.3978 103.956 43.7968 75.4607 51.4158 52.1506C58.9779 29.0147 72.3442 4.97413 96.6667 4.03883Z" fill="url(#paint0_linear_1311_260)" fill-opacity="0.2"/>
<path d="M146.999 100.449C146.992 100.449 146.986 100.449 146.98 100.449C144.23 100.449 141.998 97.1186 141.98 93C141.962 97.1091 139.741 100.434 137 100.449C137 100.449 137 100.449 137 100.449C139.741 100.464 141.962 103.789 141.98 107.898C141.998 103.779 144.23 100.449 146.98 100.449C146.986 100.449 146.992 100.449 146.999 100.449C146.999 100.449 146.999 100.449 146.999 100.449Z" fill="url(#paint1_linear_1311_260)"/>
<path d="M87.9987 25.4489C87.9923 25.4489 87.9859 25.449 87.9795 25.449C85.2296 25.449 82.9982 22.1186 82.9803 18C82.9623 22.1091 80.7412 25.4336 78 25.4489C78 25.4489 78 25.4489 78 25.4489C80.7412 25.4642 82.9623 28.7889 82.9803 32.8979C82.9982 28.7794 85.2296 25.449 87.9795 25.449C87.9859 25.449 87.9923 25.4489 87.9987 25.4489C87.9987 25.4489 87.9987 25.4489 87.9987 25.4489Z" fill="url(#paint2_linear_1311_260)"/>
<path d="M63.9987 76.4489C63.9923 76.4489 63.9859 76.449 63.9795 76.449C61.2296 76.449 58.9982 73.1186 58.9803 69C58.9623 73.1091 56.7412 76.4336 54 76.4489C54 76.4489 54 76.4489 54 76.4489C56.7412 76.4642 58.9623 79.7889 58.9803 83.8979C58.9982 79.7794 61.2296 76.449 63.9795 76.449C63.9859 76.449 63.9923 76.4489 63.9987 76.4489C63.9987 76.4489 63.9987 76.4489 63.9987 76.4489Z" fill="url(#paint3_linear_1311_260)"/>
<mask id="mask0_1311_260" style="mask-type:alpha" maskUnits="userSpaceOnUse" x="0" y="0" width="200" height="128">
<path fill-rule="evenodd" clip-rule="evenodd" d="M96.6667 4.03883C123.337 3.01324 147.152 22.4244 154.066 48.2033C160.113 70.7493 142.144 89.7357 123.373 103.611C103.911 117.998 79.0313 132.301 59.3453 118.222C39.3978 103.956 43.7968 75.4607 51.4158 52.1506C58.9779 29.0147 72.3442 4.97413 96.6667 4.03883Z" fill="#E2F6EC"/>
<path fill-rule="evenodd" clip-rule="evenodd" d="M96.6667 4.03883C123.337 3.01324 147.152 22.4244 154.066 48.2033C160.113 70.7493 142.144 89.7357 123.373 103.611C103.911 117.998 79.0313 132.301 59.3453 118.222C39.3978 103.956 43.7968 75.4607 51.4158 52.1506C58.9779 29.0147 72.3442 4.97413 96.6667 4.03883Z" fill="url(#paint4_linear_1311_260)" fill-opacity="0.2"/>
</mask>
<g mask="url(#mask0_1311_260)">
<path opacity="0.25" d="M159.7 77.6999L125 43L75.6406 85.641L107.5 117.5L159.7 77.6999Z" fill="url(#paint5_linear_1311_260)"/>
</g>
<path d="M73.3333 47.3333C73.3333 43.307 76.6402 40 80.6666 40H119.333C123.36 40 126.667 43.307 126.667 47.3333V80.6667C126.667 84.693 123.36 88 119.333 88H80.6666C76.6402 88 73.3333 84.693 73.3333 80.6667V66V47.3333Z" fill="#EAF3DC"/>
<path d="M80.6666 40C76.6402 40 73.3333 43.307 73.3333 47.3333V66V80.6667C73.3333 84.693 76.6402 88 80.6666 88H119.333C123.36 88 126.667 84.693 126.667 80.6667V47.3333C126.667 43.307 123.36 40 119.333 40H80.6666ZM80.6666 44H119.333C121.198 44 122.667 45.469 122.667 47.3333V80.6667C122.667 82.531 121.198 84 119.333 84H80.6666C78.8023 84 77.3333 82.531 77.3333 80.6667V68H80.6666C81.3693 68 82.0201 67.6326 82.3801 67.0286L84.4036 63.6615L88.1718 72.1458C88.4918 72.8645 89.2041 73.3293 89.9921 73.3333C90.7881 73.3013 91.4949 72.8775 91.8202 72.1615L96.4426 61.9896L101.45 76.0078C101.72 76.7611 102.411 77.2801 103.211 77.3281C103.252 77.3308 103.295 77.3333 103.333 77.3333C104.087 77.3333 104.782 76.9092 105.122 76.2292L109.904 66.6667H111.333H111.336C111.646 67.0803 112.048 67.4161 112.511 67.6475C112.973 67.8789 113.483 67.9996 114 68C114.884 68 115.732 67.6488 116.357 67.0237C116.982 66.3986 117.333 65.5507 117.333 64.6667C117.333 63.7826 116.982 62.9348 116.357 62.3096C115.732 61.6845 114.884 61.3333 114 61.3333C113.483 61.3337 112.973 61.4544 112.511 61.6858C112.048 61.9172 111.646 62.253 111.336 62.6667H111.333H108.667C107.909 62.6667 107.216 63.0935 106.878 63.7708L103.641 70.2474L98.5494 55.9922C98.2747 55.2255 97.5633 54.7026 96.7499 54.6693C95.9299 54.6239 95.1823 55.0972 94.8463 55.8385L90.0208 66.4557L86.4921 58.5208C86.1894 57.8382 85.5343 57.3839 84.789 57.3385C84.033 57.2985 83.3344 57.6647 82.9504 58.3047L79.5338 64H77.3333V47.3333C77.3333 45.469 78.8023 44 80.6666 44Z" fill="#2C8658"/>
</g>
<defs>
<linearGradient id="paint0_linear_1311_260" x1="126.5" y1="104" x2="50" y2="27.5" gradientUnits="userSpaceOnUse">
<stop stop-color="#F1F0EC"/>
<stop offset="1" stop-color="#84D6AC"/>
</linearGradient>
<linearGradient id="paint1_linear_1311_260" x1="137" y1="93" x2="147" y2="108" gradientUnits="userSpaceOnUse">
<stop stop-color="#2C8658"/>
<stop offset="1" stop-color="#ACD278"/>
</linearGradient>
<linearGradient id="paint2_linear_1311_260" x1="78" y1="18" x2="88" y2="33" gradientUnits="userSpaceOnUse">
<stop stop-color="#2C8658"/>
<stop offset="1" stop-color="#ACD278"/>
</linearGradient>
<linearGradient id="paint3_linear_1311_260" x1="54" y1="69" x2="64" y2="84" gradientUnits="userSpaceOnUse">
<stop stop-color="#2C8658"/>
<stop offset="1" stop-color="#ACD278"/>
</linearGradient>
<linearGradient id="paint4_linear_1311_260" x1="126.5" y1="104" x2="50" y2="27.5" gradientUnits="userSpaceOnUse">
<stop stop-color="#F1F0EC"/>
<stop offset="1" stop-color="#84D6AC"/>
</linearGradient>
<linearGradient id="paint5_linear_1311_260" x1="96.5" y1="64.0483" x2="130.831" y2="104.17" gradientUnits="userSpaceOnUse">
<stop stop-color="#2C8658"/>
<stop offset="1" stop-color="#ACD278"/>
</linearGradient>
<clipPath id="clip0_1311_260">
<rect width="200" height="128" fill="white"/>
</clipPath>
</defs>
</svg>
