<svg width="200" height="128" viewBox="0 0 200 128" fill="none" xmlns="http://www.w3.org/2000/svg">
<g clip-path="url(#clip0_1311_259)">
<path fill-rule="evenodd" clip-rule="evenodd" d="M96.6667 4.03883C123.337 3.01324 147.152 22.4244 154.066 48.2033C160.113 70.7493 142.144 89.7357 123.373 103.611C103.911 117.998 79.0313 132.301 59.3453 118.222C39.3978 103.956 43.7968 75.4607 51.4158 52.1506C58.9779 29.0147 72.3442 4.97413 96.6667 4.03883Z" fill="#E2F6EC"/>
<path fill-rule="evenodd" clip-rule="evenodd" d="M96.6667 4.03883C123.337 3.01324 147.152 22.4244 154.066 48.2033C160.113 70.7493 142.144 89.7357 123.373 103.611C103.911 117.998 79.0313 132.301 59.3453 118.222C39.3978 103.956 43.7968 75.4607 51.4158 52.1506C58.9779 29.0147 72.3442 4.97413 96.6667 4.03883Z" fill="url(#paint0_linear_1311_259)" fill-opacity="0.2"/>
<path d="M108.999 106.449C108.992 106.449 108.986 106.449 108.98 106.449C106.23 106.449 103.998 103.119 103.98 99C103.962 103.109 101.741 106.434 99 106.449C99 106.449 99 106.449 99 106.449C101.741 106.464 103.962 109.789 103.98 113.898C103.998 109.779 106.23 106.449 108.98 106.449C108.986 106.449 108.992 106.449 108.999 106.449C108.999 106.449 108.999 106.449 108.999 106.449Z" fill="url(#paint1_linear_1311_259)"/>
<path d="M142.999 19.4489C142.992 19.4489 142.986 19.449 142.98 19.449C140.23 19.449 137.998 16.1186 137.98 12C137.962 16.1091 135.741 19.4336 133 19.4489C133 19.4489 133 19.4489 133 19.4489C135.741 19.4642 137.962 22.7889 137.98 26.8979C137.998 22.7794 140.23 19.449 142.98 19.449C142.986 19.449 142.992 19.4489 142.999 19.4489C142.999 19.4489 142.999 19.4489 142.999 19.4489Z" fill="url(#paint2_linear_1311_259)"/>
<path d="M66.9987 42.4489C66.9923 42.4489 66.9859 42.449 66.9795 42.449C64.2296 42.449 61.9982 39.1186 61.9803 35C61.9623 39.1091 59.7412 42.4336 57 42.4489C57 42.4489 57 42.4489 57 42.4489C59.7412 42.4642 61.9623 45.7889 61.9803 49.8979C61.9982 45.7794 64.2296 42.449 66.9795 42.449C66.9859 42.449 66.9923 42.4489 66.9987 42.4489C66.9987 42.4489 66.9987 42.4489 66.9987 42.4489Z" fill="url(#paint3_linear_1311_259)"/>
<mask id="mask0_1311_259" style="mask-type:alpha" maskUnits="userSpaceOnUse" x="0" y="0" width="200" height="128">
<path fill-rule="evenodd" clip-rule="evenodd" d="M96.6667 4.03883C123.337 3.01324 147.152 22.4244 154.066 48.2033C160.113 70.7493 142.144 89.7357 123.373 103.611C103.911 117.998 79.0313 132.301 59.3453 118.222C39.3978 103.956 43.7968 75.4607 51.4158 52.1506C58.9779 29.0147 72.3442 4.97413 96.6667 4.03883Z" fill="#E2F6EC"/>
<path fill-rule="evenodd" clip-rule="evenodd" d="M96.6667 4.03883C123.337 3.01324 147.152 22.4244 154.066 48.2033C160.113 70.7493 142.144 89.7357 123.373 103.611C103.911 117.998 79.0313 132.301 59.3453 118.222C39.3978 103.956 43.7968 75.4607 51.4158 52.1506C58.9779 29.0147 72.3442 4.97413 96.6667 4.03883Z" fill="url(#paint4_linear_1311_259)" fill-opacity="0.2"/>
</mask>
<g mask="url(#mask0_1311_259)">
<path opacity="0.25" d="M153.619 78.7716L112.901 38.054L73.9922 78.141L111.869 116.018L153.619 78.7716Z" fill="url(#paint5_linear_1311_259)"/>
</g>
<path d="M75.8925 37.4774C76.1384 37.3785 76.4016 37.3296 76.6666 37.3333H111.333C111.598 37.3296 111.861 37.3785 112.107 37.4774C112.353 37.5762 112.577 37.7229 112.766 37.909C112.955 38.0951 113.104 38.3168 113.207 38.5614C113.309 38.8059 113.362 39.0683 113.362 39.3333C113.362 39.5984 113.309 39.8608 113.207 40.1053C113.104 40.3498 112.955 40.5716 112.766 40.7576C112.577 40.9437 112.353 41.0905 112.107 41.1893C111.861 41.2881 111.598 41.3371 111.333 41.3333H110.667V49.3333H120.346C120.561 49.2981 120.78 49.2981 120.995 49.3333H123.333C123.598 49.3296 123.861 49.3785 124.107 49.4774C124.353 49.5762 124.577 49.7229 124.766 49.909C124.955 50.0951 125.104 50.3168 125.207 50.5614C125.309 50.8059 125.362 51.0683 125.362 51.3333C125.362 51.5984 125.309 51.8608 125.207 52.1053C125.104 52.3498 124.955 52.5716 124.766 52.7576C124.577 52.9437 124.353 53.0905 124.107 53.1893C123.861 53.2881 123.598 53.3371 123.333 53.3333H122.667V69.4687C124.898 69.8096 126.667 71.6821 126.667 74V88.6667C126.667 89.1971 126.456 89.7058 126.081 90.0808C125.706 90.4559 125.197 90.6666 124.667 90.6667H87.3333C86.8028 90.6666 86.2942 90.4559 85.9191 90.0808C85.544 89.7058 85.3333 89.1971 85.3333 88.6667V78.6667H75.3333C74.2293 78.6667 73.3333 77.7707 73.3333 76.6667V62C73.3333 59.6533 75.0746 57.7055 77.3333 57.3802V41.3333H76.6666C76.4016 41.3371 76.1384 41.2881 75.8925 41.1893C75.6466 41.0905 75.4227 40.9437 75.234 40.7576C75.0452 40.5716 74.8954 40.3498 74.7931 40.1053C74.6908 39.8608 74.6381 39.5984 74.6381 39.3333C74.6381 39.0683 74.6908 38.8059 74.7931 38.5614C74.8954 38.3168 75.0452 38.0951 75.234 37.909C75.4227 37.7229 75.6466 37.5762 75.8925 37.4774Z" fill="#EAF3DC"/>
<path d="M76.6666 37.3333C76.4016 37.3296 76.1384 37.3785 75.8925 37.4774C75.6466 37.5762 75.4227 37.7229 75.234 37.909C75.0452 38.0951 74.8954 38.3168 74.7931 38.5614C74.6908 38.8059 74.6381 39.0683 74.6381 39.3333C74.6381 39.5984 74.6908 39.8608 74.7931 40.1053C74.8954 40.3498 75.0452 40.5716 75.234 40.7576C75.4227 40.9437 75.6466 41.0905 75.8925 41.1893C76.1384 41.2881 76.4016 41.3371 76.6666 41.3333H77.3333V57.3802C75.0746 57.7055 73.3333 59.6533 73.3333 62V76.6667C73.3333 77.7707 74.2293 78.6667 75.3333 78.6667H82.6666V74.6667H77.3333V62C77.3333 61.6333 77.6333 61.3333 77.9999 61.3333H79.3333C80.4373 61.3333 81.3333 60.4373 81.3333 59.3333V41.3333H106.667V46.6667H110.667V41.3333H111.333C111.598 41.3371 111.861 41.2881 112.107 41.1893C112.353 41.0905 112.577 40.9437 112.766 40.7576C112.955 40.5716 113.104 40.3498 113.207 40.1053C113.309 39.8608 113.362 39.5984 113.362 39.3333C113.362 39.0683 113.309 38.8059 113.207 38.5614C113.104 38.3168 112.955 38.0951 112.766 37.909C112.577 37.7229 112.353 37.5762 112.107 37.4774C111.861 37.3785 111.598 37.3296 111.333 37.3333H76.6666ZM91.302 49.3047C91.2051 49.3072 91.1085 49.3168 91.0129 49.3333H88.6666C88.4016 49.3296 88.1384 49.3785 87.8925 49.4774C87.6466 49.5762 87.4227 49.7229 87.234 49.909C87.0452 50.0951 86.8954 50.3168 86.7931 50.5614C86.6908 50.8059 86.6381 51.0683 86.6381 51.3333C86.6381 51.5984 86.6908 51.8608 86.7931 52.1053C86.8954 52.3498 87.0452 52.5716 87.234 52.7576C87.4227 52.9437 87.6466 53.0905 87.8925 53.1893C88.1384 53.2881 88.4016 53.3371 88.6666 53.3333H89.3333V69.4687C87.1019 69.8096 85.3333 71.6821 85.3333 74V88.6667C85.3333 89.1971 85.544 89.7057 85.9191 90.0808C86.2942 90.4559 86.8028 90.6666 87.3333 90.6667H124.667C125.197 90.6666 125.706 90.4559 126.081 90.0808C126.456 89.7057 126.667 89.1971 126.667 88.6667V74C126.667 71.6821 124.898 69.8096 122.667 69.4687V53.3333H123.333C123.598 53.3371 123.861 53.2881 124.107 53.1893C124.353 53.0905 124.577 52.9437 124.766 52.7576C124.955 52.5716 125.104 52.3498 125.207 52.1053C125.309 51.8608 125.362 51.5984 125.362 51.3333C125.362 51.0683 125.309 50.8059 125.207 50.5614C125.104 50.3168 124.955 50.0951 124.766 49.909C124.577 49.7229 124.353 49.5762 124.107 49.4774C123.861 49.3785 123.598 49.3296 123.333 49.3333H120.995C120.78 49.2981 120.561 49.2981 120.346 49.3333H91.6614C91.5427 49.313 91.4224 49.3034 91.302 49.3047ZM93.3333 53.3333H118.667V71.3333C118.667 71.8637 118.877 72.3724 119.252 72.7475C119.627 73.1225 120.136 73.3333 120.667 73.3333H122C122.393 73.3333 122.667 73.6066 122.667 74V86.6667H109.333V78.6667C109.333 77.9307 108.736 77.3333 108 77.3333H104C103.264 77.3333 102.667 77.9307 102.667 78.6667V86.6667H89.3333V74C89.3333 73.6066 89.6065 73.3333 89.9999 73.3333H91.3333C91.8637 73.3333 92.3723 73.1225 92.7474 72.7475C93.1225 72.3724 93.3332 71.8637 93.3333 71.3333V53.3333ZM99.9999 58.6667C99.2639 58.6667 98.6666 59.264 98.6666 60V62.6667C98.6666 63.4027 99.2639 64 99.9999 64H102.667C103.403 64 104 63.4027 104 62.6667V60C104 59.264 103.403 58.6667 102.667 58.6667H99.9999ZM109.333 58.6667C108.597 58.6667 108 59.264 108 60V62.6667C108 63.4027 108.597 64 109.333 64H112C112.736 64 113.333 63.4027 113.333 62.6667V60C113.333 59.264 112.736 58.6667 112 58.6667H109.333ZM99.9999 68C99.2639 68 98.6666 68.5973 98.6666 69.3333V72C98.6666 72.736 99.2639 73.3333 99.9999 73.3333H102.667C103.403 73.3333 104 72.736 104 72V69.3333C104 68.5973 103.403 68 102.667 68H99.9999ZM109.333 68C108.597 68 108 68.5973 108 69.3333V72C108 72.736 108.597 73.3333 109.333 73.3333H112C112.736 73.3333 113.333 72.736 113.333 72V69.3333C113.333 68.5973 112.736 68 112 68H109.333ZM94.6666 77.3333C93.9306 77.3333 93.3333 77.9307 93.3333 78.6667V81.3333C93.3333 82.0693 93.9306 82.6667 94.6666 82.6667H97.3333C98.0693 82.6667 98.6666 82.0693 98.6666 81.3333V78.6667C98.6666 77.9307 98.0693 77.3333 97.3333 77.3333H94.6666ZM114.667 77.3333C113.931 77.3333 113.333 77.9307 113.333 78.6667V81.3333C113.333 82.0693 113.931 82.6667 114.667 82.6667H117.333C118.069 82.6667 118.667 82.0693 118.667 81.3333V78.6667C118.667 77.9307 118.069 77.3333 117.333 77.3333H114.667Z" fill="#2C8658"/>
</g>
<defs>
<linearGradient id="paint0_linear_1311_259" x1="126.5" y1="104" x2="50" y2="27.5" gradientUnits="userSpaceOnUse">
<stop stop-color="#F1F0EC"/>
<stop offset="1" stop-color="#84D6AC"/>
</linearGradient>
<linearGradient id="paint1_linear_1311_259" x1="99" y1="99" x2="109" y2="114" gradientUnits="userSpaceOnUse">
<stop stop-color="#2C8658"/>
<stop offset="1" stop-color="#ACD278"/>
</linearGradient>
<linearGradient id="paint2_linear_1311_259" x1="133" y1="12" x2="143" y2="27" gradientUnits="userSpaceOnUse">
<stop stop-color="#2C8658"/>
<stop offset="1" stop-color="#ACD278"/>
</linearGradient>
<linearGradient id="paint3_linear_1311_259" x1="57" y1="35" x2="67" y2="50" gradientUnits="userSpaceOnUse">
<stop stop-color="#2C8658"/>
<stop offset="1" stop-color="#ACD278"/>
</linearGradient>
<linearGradient id="paint4_linear_1311_259" x1="126.5" y1="104" x2="50" y2="27.5" gradientUnits="userSpaceOnUse">
<stop stop-color="#F1F0EC"/>
<stop offset="1" stop-color="#84D6AC"/>
</linearGradient>
<linearGradient id="paint5_linear_1311_259" x1="90.5" y1="58.5745" x2="133.322" y2="99.5636" gradientUnits="userSpaceOnUse">
<stop stop-color="#2C8658"/>
<stop offset="1" stop-color="#ACD278"/>
</linearGradient>
<clipPath id="clip0_1311_259">
<rect width="200" height="128" fill="white"/>
</clipPath>
</defs>
</svg>
