<svg width="200" height="128" viewBox="0 0 200 128" fill="none" xmlns="http://www.w3.org/2000/svg">
<g clip-path="url(#clip0_1311_257)">
<path fill-rule="evenodd" clip-rule="evenodd" d="M96.0856 15.3725C121.959 13.8596 153.978 15.9662 161.69 40.6499C169.278 64.937 142.313 82.1093 121.551 96.8805C101.656 111.035 77.6801 128.654 57.6794 114.648C37.1569 100.277 41.5057 70.4853 50.5335 47.1495C57.9088 28.0852 75.6364 16.5682 96.0856 15.3725Z" fill="#E2F6EC"/>
<path fill-rule="evenodd" clip-rule="evenodd" d="M96.0856 15.3725C121.959 13.8596 153.978 15.9662 161.69 40.6499C169.278 64.937 142.313 82.1093 121.551 96.8805C101.656 111.035 77.6801 128.654 57.6794 114.648C37.1569 100.277 41.5057 70.4853 50.5335 47.1495C57.9088 28.0852 75.6364 16.5682 96.0856 15.3725Z" fill="url(#paint0_linear_1311_257)" fill-opacity="0.2"/>
<path d="M146.999 100.449C146.992 100.449 146.986 100.449 146.98 100.449C144.23 100.449 141.998 97.1186 141.98 93C141.962 97.1091 139.741 100.434 137 100.449C137 100.449 137 100.449 137 100.449C139.741 100.464 141.962 103.789 141.98 107.898C141.998 103.779 144.23 100.449 146.98 100.449C146.986 100.449 146.992 100.449 146.999 100.449C146.999 100.449 146.999 100.449 146.999 100.449Z" fill="url(#paint1_linear_1311_257)"/>
<path d="M87.9987 25.4489C87.9923 25.4489 87.9859 25.449 87.9795 25.449C85.2296 25.449 82.9982 22.1186 82.9803 18C82.9623 22.1091 80.7412 25.4336 78 25.4489C78 25.4489 78 25.4489 78 25.4489C80.7412 25.4642 82.9623 28.7889 82.9803 32.8979C82.9982 28.7794 85.2296 25.449 87.9795 25.449C87.9859 25.449 87.9923 25.4489 87.9987 25.4489C87.9987 25.4489 87.9987 25.4489 87.9987 25.4489Z" fill="url(#paint2_linear_1311_257)"/>
<path d="M63.9987 76.4489C63.9923 76.4489 63.9859 76.449 63.9795 76.449C61.2296 76.449 58.9982 73.1186 58.9803 69C58.9623 73.1091 56.7412 76.4336 54 76.4489C54 76.4489 54 76.4489 54 76.4489C56.7412 76.4642 58.9623 79.7889 58.9803 83.8979C58.9982 79.7794 61.2296 76.449 63.9795 76.449C63.9859 76.449 63.9923 76.4489 63.9987 76.4489C63.9987 76.4489 63.9987 76.4489 63.9987 76.4489Z" fill="url(#paint3_linear_1311_257)"/>
<mask id="mask0_1311_257" style="mask-type:alpha" maskUnits="userSpaceOnUse" x="0" y="0" width="200" height="128">
<path fill-rule="evenodd" clip-rule="evenodd" d="M96.0856 15.3725C121.959 13.8596 153.978 15.9662 161.69 40.6499C169.278 64.937 142.313 82.1093 121.551 96.8805C101.656 111.035 77.6801 128.654 57.6794 114.648C37.1569 100.277 41.5057 70.4853 50.5335 47.1495C57.9088 28.0852 75.6364 16.5682 96.0856 15.3725Z" fill="#E2F6EC"/>
<path fill-rule="evenodd" clip-rule="evenodd" d="M96.0856 15.3725C121.959 13.8596 153.978 15.9662 161.69 40.6499C169.278 64.937 142.313 82.1093 121.551 96.8805C101.656 111.035 77.6801 128.654 57.6794 114.648C37.1569 100.277 41.5057 70.4853 50.5335 47.1495C57.9088 28.0852 75.6364 16.5682 96.0856 15.3725Z" fill="url(#paint4_linear_1311_257)" fill-opacity="0.2"/>
</mask>
<g mask="url(#mask0_1311_257)">
<path opacity="0.25" d="M155.155 73.0399L123.278 41.1631L71.2708 56.8598L80.9691 66.558L80.4765 67.3316L94.9475 81.8025L86.6561 89.5011L109.867 112.712L155.155 73.0399Z" fill="url(#paint5_linear_1311_257)"/>
</g>
<path d="M84.823 37.4271C85.1742 37.3841 85.5248 37.3553 85.8751 37.3411C86.9259 37.2986 87.9691 37.3868 88.9792 37.612C91.4988 38.1735 93.7487 39.7435 95.2423 42.0833C95.3626 42.1174 95.4794 42.1628 95.5912 42.2187C96.2824 42.4037 97.4695 42.8079 98.7475 44.0859C99.2267 44.5652 99.5831 45.4297 100 46.1276C100.417 45.4297 100.773 44.5652 101.253 44.0859C102.525 42.8134 103.706 42.4083 104.401 42.2213L104.406 42.2187C104.519 42.1626 104.637 42.1173 104.758 42.0833C106.251 39.7435 108.501 38.1735 111.021 37.612C113.715 37.0117 116.636 37.3914 119.341 38.6068C124.751 41.0375 129.333 46.9681 129.333 55.4661C129.333 55.8305 129.234 56.188 129.045 56.4999C128.857 56.8118 128.587 57.0664 128.265 57.236C127.942 57.4057 127.579 57.4841 127.216 57.4627C126.852 57.4413 126.501 57.3209 126.201 57.1146C124.707 56.0883 122.999 56.247 120.779 56.8672C118.558 57.4874 116.236 58.6666 113.617 58.6666C110.505 58.6666 107.368 57.3771 105.19 54.9896C104.13 53.9028 103.028 52.6644 102 51.5V54V64H115.333H118C118.265 63.9962 118.528 64.0452 118.774 64.144C119.02 64.2429 119.244 64.3896 119.433 64.5757C119.621 64.7618 119.771 64.9835 119.874 65.228C119.976 65.4725 120.029 65.7349 120.029 66C120.029 66.265 119.976 66.5274 119.874 66.772C119.771 67.0165 119.621 67.2382 119.433 67.4243C119.244 67.6104 119.02 67.7571 118.774 67.8559C118.528 67.9548 118.265 68.0037 118 68H117.122L115.185 85.4765C114.772 89.1725 111.616 92 107.896 92H92.1069C88.3864 92 85.2284 89.1741 84.8178 85.4765L82.8777 68H82.0001C81.7351 68.0037 81.4719 67.9548 81.226 67.8559C80.9801 67.7571 80.7562 67.6104 80.5675 67.4243C80.3787 67.2382 80.2289 67.0165 80.1266 66.772C80.0243 66.5274 79.9716 66.265 79.9716 66C79.9716 65.7349 80.0243 65.4725 80.1266 65.228C80.2289 64.9835 80.3787 64.7618 80.5675 64.5757C80.7562 64.3896 80.9801 64.2429 81.226 64.144C81.4719 64.0452 81.7351 63.9962 82.0001 64H84.6667H98.0001V54L98 51.5C95.6433 54.0761 95.7943 53.9803 94.81 54.9896C92.6326 57.3771 89.4952 58.6666 86.3829 58.6666C83.7641 58.6666 81.4419 57.4874 79.2214 56.8672C77.001 56.247 75.2935 56.0883 73.7996 57.1146C73.4992 57.3209 73.1482 57.4413 72.7845 57.4627C72.4207 57.4841 72.058 57.4057 71.7355 57.236C71.4131 57.0664 71.1431 56.8118 70.9547 56.4999C70.7664 56.188 70.6668 55.8305 70.6667 55.4661C70.6667 46.9681 75.2491 41.0375 80.6589 38.6068C82.0114 37.9991 83.4181 37.5991 84.823 37.4271Z" fill="#EAF3DC"/>
<path d="M85.8751 37.3411C85.5248 37.3553 85.1742 37.3841 84.823 37.4271C83.4181 37.5991 82.0114 37.9991 80.6589 38.6068C75.2491 41.0375 70.6667 46.9681 70.6667 55.4661C70.6668 55.8305 70.7664 56.188 70.9547 56.4999C71.1431 56.8118 71.4131 57.0664 71.7355 57.236C72.058 57.4057 72.4207 57.4841 72.7845 57.4627C73.1482 57.4413 73.4992 57.3209 73.7996 57.1146C75.2935 56.0883 77.001 56.247 79.2214 56.8672C81.4419 57.4874 83.7641 58.6666 86.3829 58.6666C89.4952 58.6666 92.6326 57.3771 94.81 54.9896C94.9973 54.7975 95.144 54.5698 95.2415 54.3199C95.339 54.07 95.3852 53.803 95.3774 53.5349C95.3696 53.2668 95.308 53.0029 95.1961 52.7591C95.0843 52.5153 94.9246 52.2965 94.7264 52.1156C94.5283 51.9348 94.2958 51.7957 94.0428 51.7065C93.7899 51.6174 93.5215 51.58 93.2538 51.5967C92.9861 51.6133 92.7244 51.6837 92.4844 51.8035C92.2445 51.9234 92.031 52.0902 91.8569 52.2943C90.5249 53.7547 88.3373 54.6666 86.3829 54.6666C85.2604 54.6666 82.9085 53.7451 80.297 53.0156C78.7135 52.5733 76.8845 52.3111 75.0496 52.5547C75.9204 47.2449 78.9072 43.7794 82.2996 42.2552C84.2988 41.3569 86.3813 41.1305 88.1095 41.5156C88.5795 41.6204 88.9519 41.8724 89.3673 42.0599C84.5652 43.0016 81.8152 46.0312 81.8152 46.0312C81.6412 46.2302 81.5085 46.4616 81.4245 46.7122C81.3405 46.9628 81.3071 47.2275 81.326 47.4911C81.3449 47.7547 81.4159 48.0119 81.5349 48.2479C81.6538 48.4839 81.8183 48.694 82.0189 48.866C82.2195 49.0381 82.4522 49.1686 82.7036 49.2502C82.9549 49.3318 83.22 49.3628 83.4834 49.3413C83.7468 49.3199 84.0033 49.2465 84.2381 49.1253C84.473 49.0041 84.6815 48.8376 84.8516 48.6354C84.8516 48.6354 87.9107 44.8052 94.31 45.9687C94.3463 45.9749 94.3828 45.9802 94.4194 45.9844C94.4194 45.9844 94.9985 45.9932 95.9194 46.914C96.8402 47.8349 98.0001 49.7143 98.0001 54V64H84.6667H82.0001C81.7351 63.9962 81.4719 64.0452 81.226 64.144C80.9801 64.2429 80.7562 64.3896 80.5675 64.5757C80.3787 64.7618 80.2289 64.9835 80.1266 65.228C80.0243 65.4725 79.9716 65.7349 79.9716 66C79.9716 66.265 80.0243 66.5274 80.1266 66.772C80.2289 67.0165 80.3787 67.2382 80.5675 67.4243C80.7562 67.6104 80.9801 67.7571 81.226 67.8559C81.4719 67.9548 81.7351 68.0037 82.0001 68H82.8777L84.8178 85.4765C85.2284 89.1741 88.3864 92 92.1069 92H107.896C111.616 92 114.772 89.1725 115.185 85.4765L117.122 68H118C118.265 68.0037 118.528 67.9548 118.774 67.8559C119.02 67.7571 119.244 67.6104 119.433 67.4243C119.621 67.2382 119.771 67.0165 119.874 66.772C119.976 66.5274 120.029 66.265 120.029 66C120.029 65.7349 119.976 65.4725 119.874 65.228C119.771 64.9835 119.621 64.7618 119.433 64.5757C119.244 64.3896 119.02 64.2429 118.774 64.144C118.528 64.0452 118.265 63.9962 118 64H115.333H102V54C102 49.7143 103.16 47.8349 104.081 46.914C105.001 45.9943 105.577 45.9844 105.578 45.9844C105.579 45.9844 105.58 45.9844 105.581 45.9844C105.617 45.9802 105.654 45.9749 105.69 45.9687C112.089 44.8052 115.149 48.6354 115.149 48.6354C115.319 48.8376 115.527 49.0041 115.762 49.1253C115.997 49.2465 116.253 49.3199 116.517 49.3413C116.78 49.3628 117.045 49.3318 117.297 49.2502C117.548 49.1686 117.781 49.0381 117.981 48.866C118.182 48.694 118.346 48.4839 118.465 48.2479C118.584 48.0119 118.655 47.7547 118.674 47.4911C118.693 47.2275 118.66 46.9628 118.576 46.7122C118.492 46.4616 118.359 46.2302 118.185 46.0312C118.185 46.0312 115.435 43.0016 110.633 42.0599C111.048 41.8724 111.421 41.6204 111.891 41.5156C113.619 41.1305 115.701 41.3569 117.701 42.2552C121.093 43.7794 124.08 47.2449 124.951 52.5547C123.116 52.3111 121.287 52.5733 119.703 53.0156C117.092 53.7451 114.74 54.6666 113.617 54.6666C111.663 54.6666 109.475 53.7547 108.143 52.2943C107.969 52.0902 107.756 51.9234 107.516 51.8035C107.276 51.6837 107.014 51.6133 106.746 51.5967C106.479 51.58 106.21 51.6174 105.957 51.7065C105.704 51.7957 105.472 51.9348 105.274 52.1156C105.076 52.2965 104.916 52.5153 104.804 52.7591C104.692 53.0029 104.631 53.2668 104.623 53.5349C104.615 53.803 104.661 54.07 104.759 54.3199C104.856 54.5698 105.003 54.7975 105.19 54.9896C107.368 57.3771 110.505 58.6666 113.617 58.6666C116.236 58.6666 118.558 57.4874 120.779 56.8672C122.999 56.247 124.707 56.0883 126.201 57.1146C126.501 57.3209 126.852 57.4413 127.216 57.4627C127.579 57.4841 127.942 57.4057 128.265 57.236C128.587 57.0664 128.857 56.8118 129.045 56.4999C129.234 56.188 129.333 55.8305 129.333 55.4661C129.333 46.9681 124.751 41.0375 119.341 38.6068C116.636 37.3914 113.715 37.0117 111.021 37.612C108.501 38.1735 106.251 39.7435 104.758 42.0833C104.637 42.1173 104.519 42.1626 104.406 42.2187C104.405 42.2196 104.403 42.2205 104.401 42.2213C103.706 42.4083 102.525 42.8134 101.253 44.0859C100.773 44.5652 100.417 45.4297 100 46.1276C99.5831 45.4297 99.2267 44.5652 98.7475 44.0859C97.4695 42.8079 96.2824 42.4037 95.5912 42.2187C95.4794 42.1628 95.3626 42.1174 95.2423 42.0833C93.7487 39.7435 91.4988 38.1735 88.9792 37.612C87.9691 37.3868 86.9259 37.2986 85.8751 37.3411ZM86.9011 68H99.672C99.8867 68.0353 100.106 68.0353 100.32 68H113.099L111.208 85.0338C111.018 86.7379 109.61 88 107.896 88H92.1069C90.39 88 88.9837 86.7415 88.7944 85.0364C88.7944 85.0356 88.7944 85.0347 88.7944 85.0338L86.9011 68Z" fill="#2C8658"/>
</g>
<defs>
<linearGradient id="paint0_linear_1311_257" x1="134" y1="98.5" x2="81.9378" y2="16.3195" gradientUnits="userSpaceOnUse">
<stop stop-color="#F1F0EC"/>
<stop offset="1" stop-color="#84D6AC"/>
</linearGradient>
<linearGradient id="paint1_linear_1311_257" x1="137" y1="93" x2="147" y2="108" gradientUnits="userSpaceOnUse">
<stop stop-color="#2C8658"/>
<stop offset="1" stop-color="#ACD278"/>
</linearGradient>
<linearGradient id="paint2_linear_1311_257" x1="78" y1="18" x2="88" y2="33" gradientUnits="userSpaceOnUse">
<stop stop-color="#2C8658"/>
<stop offset="1" stop-color="#ACD278"/>
</linearGradient>
<linearGradient id="paint3_linear_1311_257" x1="54" y1="69" x2="64" y2="84" gradientUnits="userSpaceOnUse">
<stop stop-color="#2C8658"/>
<stop offset="1" stop-color="#ACD278"/>
</linearGradient>
<linearGradient id="paint4_linear_1311_257" x1="134" y1="98.5" x2="81.9378" y2="16.3195" gradientUnits="userSpaceOnUse">
<stop stop-color="#F1F0EC"/>
<stop offset="1" stop-color="#84D6AC"/>
</linearGradient>
<linearGradient id="paint5_linear_1311_257" x1="81.8011" y1="49.5" x2="124.962" y2="104.019" gradientUnits="userSpaceOnUse">
<stop stop-color="#2C8658"/>
<stop offset="1" stop-color="#ACD278"/>
</linearGradient>
<clipPath id="clip0_1311_257">
<rect width="200" height="128" fill="white"/>
</clipPath>
</defs>
</svg>
