<svg width="200" height="128" viewBox="0 0 200 128" fill="none" xmlns="http://www.w3.org/2000/svg">
<g clip-path="url(#clip0_1311_271)">
<path fill-rule="evenodd" clip-rule="evenodd" d="M97.4918 4.02646C121.525 3.26552 142.827 18.9916 150.776 41.6853C159.348 66.1563 155.264 94.4163 134.675 110.177C112.543 127.12 80.7455 129.407 59.0605 111.895C39.7505 96.3004 45.3398 68.1406 53.6699 44.7598C61.0697 23.99 75.4542 4.72419 97.4918 4.02646Z" fill="#E2F6EC"/>
<path fill-rule="evenodd" clip-rule="evenodd" d="M97.4918 4.02646C121.525 3.26552 142.827 18.9916 150.776 41.6853C159.348 66.1563 155.264 94.4163 134.675 110.177C112.543 127.12 80.7455 129.407 59.0605 111.895C39.7505 96.3004 45.3398 68.1406 53.6699 44.7598C61.0697 23.99 75.4542 4.72419 97.4918 4.02646Z" fill="url(#paint0_linear_1311_271)" fill-opacity="0.2"/>
<path d="M144.999 66.4489C144.992 66.4489 144.986 66.449 144.98 66.449C142.23 66.449 139.998 63.1186 139.98 59C139.962 63.1091 137.741 66.4336 135 66.4489C135 66.4489 135 66.4489 135 66.4489C137.741 66.4642 139.962 69.7889 139.98 73.8979C139.998 69.7794 142.23 66.449 144.98 66.449C144.986 66.449 144.992 66.4489 144.999 66.4489C144.999 66.4489 144.999 66.4489 144.999 66.4489Z" fill="url(#paint1_linear_1311_271)"/>
<path d="M70.9987 23.4489C70.9923 23.4489 70.9859 23.449 70.9795 23.449C68.2296 23.449 65.9982 20.1186 65.9803 16C65.9623 20.1091 63.7412 23.4336 61 23.4489C61 23.4489 61 23.4489 61 23.4489C63.7412 23.4642 65.9623 26.7889 65.9803 30.8979C65.9982 26.7794 68.2296 23.449 70.9795 23.449C70.9859 23.449 70.9923 23.4489 70.9987 23.4489C70.9987 23.4489 70.9987 23.4489 70.9987 23.4489Z" fill="url(#paint2_linear_1311_271)"/>
<path d="M64.9987 103.449C64.9923 103.449 64.9859 103.449 64.9795 103.449C62.2296 103.449 59.9982 100.119 59.9803 96C59.9623 100.109 57.7412 103.434 55 103.449C55 103.449 55 103.449 55 103.449C57.7412 103.464 59.9623 106.789 59.9803 110.898C59.9982 106.779 62.2296 103.449 64.9795 103.449C64.9859 103.449 64.9923 103.449 64.9987 103.449C64.9987 103.449 64.9987 103.449 64.9987 103.449Z" fill="url(#paint3_linear_1311_271)"/>
<mask id="mask0_1311_271" style="mask-type:alpha" maskUnits="userSpaceOnUse" x="0" y="0" width="200" height="128">
<path fill-rule="evenodd" clip-rule="evenodd" d="M97.4918 4.02646C121.525 3.26552 142.827 18.9916 150.776 41.6853C159.348 66.1563 155.264 94.4163 134.675 110.177C112.543 127.12 80.7455 129.407 59.0605 111.895C39.7505 96.3004 45.3398 68.1406 53.6699 44.7598C61.0697 23.99 75.4542 4.72419 97.4918 4.02646Z" fill="#E2F6EC"/>
<path fill-rule="evenodd" clip-rule="evenodd" d="M97.4918 4.02646C121.525 3.26552 142.827 18.9916 150.776 41.6853C159.348 66.1563 155.264 94.4163 134.675 110.177C112.543 127.12 80.7455 129.407 59.0605 111.895C39.7505 96.3004 45.3398 68.1406 53.6699 44.7598C61.0697 23.99 75.4542 4.72419 97.4918 4.02646Z" fill="url(#paint4_linear_1311_271)" fill-opacity="0.2"/>
</mask>
<g mask="url(#mask0_1311_271)">
<path opacity="0.25" d="M160.564 97.7523L111.269 48.457L109.5 60.5L85.3202 36.5L81.5 47L71 50.5L136.5 116L132.5 119L83.5 70L79 78L71 81.7892L120.838 131.627L160.564 97.7523Z" fill="url(#paint5_linear_1311_271)"/>
</g>
<path d="M83.8985 36.0026C83.4964 36.0228 83.1099 36.1639 82.7893 36.4073C82.4687 36.6508 82.229 36.9853 82.1016 37.3672L79.586 44.9193L72.0339 47.4349C71.635 47.5672 71.2879 47.8219 71.0419 48.1627C70.796 48.5034 70.6636 48.913 70.6636 49.3333C70.6636 49.7536 70.796 50.1632 71.0419 50.504C71.2879 50.8448 71.635 51.0994 72.0339 51.2318L79.5834 53.75L82.1016 61.2995C82.234 61.6984 82.4886 62.0455 82.8294 62.2914C83.1702 62.5374 83.5798 62.6698 84 62.6698C84.4203 62.6698 84.8299 62.5374 85.1707 62.2914C85.5115 62.0455 85.7661 61.6984 85.8985 61.2995L88.4141 53.7474L95.9662 51.2318C96.3651 51.0994 96.7122 50.8448 96.9582 50.504C97.2041 50.1632 97.3365 49.7536 97.3365 49.3333C97.3365 48.913 97.2041 48.5034 96.9582 48.1627C96.7122 47.8219 96.3651 47.5672 95.9662 47.4349L88.4141 44.9193L85.8985 37.3672C85.7601 36.9524 85.4896 36.5944 85.1284 36.3479C84.7672 36.1015 84.3352 35.9802 83.8985 36.0026ZM109.919 48.0026C109.51 48.0192 109.116 48.1609 108.79 48.4087C108.464 48.6564 108.222 48.9983 108.096 49.388L104.195 61.5286L92.0547 65.4297C91.652 65.5596 91.3009 65.8138 91.0518 66.1559C90.8027 66.4979 90.6685 66.9102 90.6685 67.3333C90.6685 67.7565 90.8027 68.1687 91.0518 68.5108C91.3009 68.8528 91.652 69.1071 92.0547 69.237L104.195 73.138L108.096 85.2786C108.226 85.6814 108.481 86.0325 108.823 86.2816C109.165 86.5307 109.577 86.6649 110 86.6649C110.423 86.6649 110.835 86.5307 111.177 86.2816C111.52 86.0325 111.774 85.6814 111.904 85.2786L115.805 73.138L127.945 69.237C128.348 69.1071 128.699 68.8528 128.948 68.5108C129.197 68.1687 129.332 67.7565 129.332 67.3333C129.332 66.9102 129.197 66.4979 128.948 66.1559C128.699 65.8138 128.348 65.5596 127.945 65.4297L115.805 61.5286L111.904 49.388C111.77 48.972 111.503 48.6113 111.145 48.3611C110.786 48.111 110.356 47.985 109.919 48.0026ZM81.8985 69.3359C81.4964 69.3562 81.1099 69.4972 80.7893 69.7407C80.4687 69.9841 80.229 70.3187 80.1016 70.7005L78.0834 76.7526L72.0339 78.7682C71.635 78.9006 71.2879 79.1552 71.0419 79.496C70.796 79.8368 70.6636 80.2464 70.6636 80.6667C70.6636 81.087 70.796 81.4966 71.0419 81.8373C71.2879 82.1781 71.635 82.4328 72.0339 82.5651L78.0834 84.5807L80.1016 90.6328C80.234 91.0317 80.4886 91.3788 80.8294 91.6248C81.1702 91.8708 81.5798 92.0031 82.0001 92.0031C82.4203 92.0031 82.8299 91.8708 83.1707 91.6248C83.5115 91.3788 83.7661 91.0317 83.8985 90.6328L85.9141 84.5807L91.9662 82.5651C92.3651 82.4328 92.7122 82.1781 92.9582 81.8373C93.2041 81.4966 93.3365 81.087 93.3365 80.6667C93.3365 80.2464 93.2041 79.8368 92.9582 79.496C92.7122 79.1552 92.3651 78.9006 91.9662 78.7682L85.9167 76.75L83.8985 70.7005C83.7601 70.2857 83.4896 69.9277 83.1284 69.6813C82.7672 69.4348 82.3352 69.3135 81.8985 69.3359Z" fill="#EAF3DC"/>
<path d="M83.8985 36.0026C83.4964 36.0228 83.1099 36.1639 82.7893 36.4073C82.4687 36.6508 82.229 36.9853 82.1016 37.3672L79.586 44.9193L72.0339 47.4349C71.635 47.5672 71.2879 47.8219 71.0419 48.1627C70.796 48.5034 70.6636 48.913 70.6636 49.3333C70.6636 49.7536 70.796 50.1632 71.0419 50.504C71.2879 50.8448 71.635 51.0994 72.0339 51.2318L79.5834 53.75L82.1016 61.2995C82.234 61.6984 82.4886 62.0455 82.8294 62.2914C83.1702 62.5374 83.5798 62.6698 84 62.6698C84.4203 62.6698 84.8299 62.5374 85.1707 62.2914C85.5115 62.0455 85.7661 61.6984 85.8985 61.2995L88.4141 53.7474L95.9662 51.2318C96.3651 51.0994 96.7122 50.8448 96.9582 50.504C97.2041 50.1632 97.3365 49.7536 97.3365 49.3333C97.3365 48.913 97.2041 48.5034 96.9582 48.1627C96.7122 47.8219 96.3651 47.5672 95.9662 47.4349L88.4141 44.9193L85.8985 37.3672C85.7601 36.9524 85.4896 36.5944 85.1284 36.3479C84.7672 36.1015 84.3352 35.9802 83.8985 36.0026ZM84 44.3281L84.9349 47.1328C85.0331 47.4276 85.1986 47.6954 85.4183 47.9151C85.638 48.1348 85.9058 48.3003 86.2006 48.3984L89.0053 49.3333L86.2006 50.2682C85.9058 50.3664 85.638 50.5319 85.4183 50.7516C85.1986 50.9713 85.0331 51.2391 84.9349 51.5339L84 54.3385L83.0652 51.5339C82.967 51.2391 82.8015 50.9713 82.5818 50.7516C82.3621 50.5319 82.0943 50.3664 81.7995 50.2682L78.9948 49.3333L81.7995 48.3984C82.0943 48.3003 82.3621 48.1348 82.5818 47.9151C82.8015 47.6954 82.967 47.4276 83.0652 47.1328L84 44.3281ZM109.919 48.0026C109.51 48.0192 109.116 48.1609 108.79 48.4087C108.464 48.6564 108.222 48.9983 108.096 49.388L104.195 61.5286L92.0547 65.4297C91.652 65.5596 91.3009 65.8138 91.0518 66.1559C90.8027 66.4979 90.6685 66.9102 90.6685 67.3333C90.6685 67.7565 90.8027 68.1687 91.0518 68.5108C91.3009 68.8528 91.652 69.1071 92.0547 69.237L104.195 73.138L108.096 85.2786C108.226 85.6814 108.481 86.0325 108.823 86.2816C109.165 86.5307 109.577 86.6649 110 86.6649C110.423 86.6649 110.835 86.5307 111.177 86.2816C111.52 86.0325 111.774 85.6814 111.904 85.2786L115.805 73.138L127.945 69.237C128.348 69.1071 128.699 68.8528 128.948 68.5108C129.197 68.1687 129.332 67.7565 129.332 67.3333C129.332 66.9102 129.197 66.4979 128.948 66.1559C128.699 65.8138 128.348 65.5596 127.945 65.4297L115.805 61.5286L111.904 49.388C111.77 48.972 111.503 48.6113 111.145 48.3611C110.786 48.111 110.356 47.985 109.919 48.0026ZM110 56.5339L112.313 63.7292C112.41 64.0316 112.578 64.3064 112.802 64.5311C113.027 64.7557 113.302 64.9236 113.604 65.0208L120.8 67.3333L113.604 69.6458C113.302 69.7431 113.027 69.911 112.802 70.1356C112.578 70.3602 112.41 70.6351 112.313 70.9375L110 78.1328L107.688 70.9375C107.59 70.6351 107.422 70.3602 107.198 70.1356C106.973 69.911 106.698 69.7431 106.396 69.6458L99.2006 67.3333L106.396 65.0208C106.698 64.9236 106.973 64.7557 107.198 64.5311C107.422 64.3064 107.59 64.0316 107.688 63.7292L110 56.5339ZM81.8985 69.3359C81.4964 69.3562 81.1099 69.4972 80.7893 69.7407C80.4687 69.9841 80.229 70.3187 80.1016 70.7005L78.0834 76.7526L72.0339 78.7682C71.635 78.9006 71.2879 79.1552 71.0419 79.496C70.796 79.8368 70.6636 80.2464 70.6636 80.6667C70.6636 81.087 70.796 81.4966 71.0419 81.8373C71.2879 82.1781 71.635 82.4328 72.0339 82.5651L78.0834 84.5807L80.1016 90.6328C80.234 91.0317 80.4886 91.3788 80.8294 91.6248C81.1702 91.8708 81.5798 92.0031 82.0001 92.0031C82.4203 92.0031 82.8299 91.8708 83.1707 91.6248C83.5115 91.3788 83.7661 91.0317 83.8985 90.6328L85.9141 84.5807L91.9662 82.5651C92.3651 82.4328 92.7122 82.1781 92.9582 81.8373C93.2041 81.4966 93.3365 81.087 93.3365 80.6667C93.3365 80.2464 93.2041 79.8368 92.9582 79.496C92.7122 79.1552 92.3651 78.9006 91.9662 78.7682L85.9167 76.75L83.8985 70.7005C83.7601 70.2857 83.4896 69.9277 83.1284 69.6813C82.7672 69.4348 82.3352 69.3135 81.8985 69.3359ZM82.0001 77.6589L82.4349 78.9661C82.5331 79.2609 82.6986 79.5287 82.9183 79.7484C83.138 79.9681 83.4058 80.1336 83.7006 80.2318L85.0053 80.6667L83.7006 81.1016C83.4058 81.1997 83.138 81.3652 82.9183 81.5849C82.6986 81.8046 82.5331 82.0724 82.4349 82.3672L82.0001 83.6745L81.5626 82.3672C81.4644 82.0724 81.2989 81.8046 81.0792 81.5849C80.8595 81.3652 80.5917 81.1997 80.2969 81.1016L78.9922 80.6667L80.2969 80.2318C80.5917 80.1336 80.8595 79.9681 81.0792 79.7484C81.2989 79.5287 81.4644 79.2609 81.5626 78.9661L82.0001 77.6589Z" fill="#2C8658"/>
</g>
<defs>
<linearGradient id="paint0_linear_1311_271" x1="133" y1="114" x2="49.2303" y2="31.7842" gradientUnits="userSpaceOnUse">
<stop stop-color="#F1F0EC"/>
<stop offset="1" stop-color="#84D6AC"/>
</linearGradient>
<linearGradient id="paint1_linear_1311_271" x1="135" y1="59" x2="145" y2="74" gradientUnits="userSpaceOnUse">
<stop stop-color="#2C8658"/>
<stop offset="1" stop-color="#ACD278"/>
</linearGradient>
<linearGradient id="paint2_linear_1311_271" x1="61" y1="16" x2="71" y2="31" gradientUnits="userSpaceOnUse">
<stop stop-color="#2C8658"/>
<stop offset="1" stop-color="#ACD278"/>
</linearGradient>
<linearGradient id="paint3_linear_1311_271" x1="55" y1="96" x2="65" y2="111" gradientUnits="userSpaceOnUse">
<stop stop-color="#2C8658"/>
<stop offset="1" stop-color="#ACD278"/>
</linearGradient>
<linearGradient id="paint4_linear_1311_271" x1="133" y1="114" x2="49.2303" y2="31.7842" gradientUnits="userSpaceOnUse">
<stop stop-color="#F1F0EC"/>
<stop offset="1" stop-color="#84D6AC"/>
</linearGradient>
<linearGradient id="paint5_linear_1311_271" x1="71.3809" y1="50.5" x2="144.581" y2="109.984" gradientUnits="userSpaceOnUse">
<stop stop-color="#2C8658"/>
<stop offset="1" stop-color="#ACD278"/>
</linearGradient>
<clipPath id="clip0_1311_271">
<rect width="200" height="128" fill="white"/>
</clipPath>
</defs>
</svg>
