<svg width="24" height="24" viewBox="0 0 24 24" xmlns="http://www.w3.org/2000/svg">
<path d="m 7.1226742,1.4906751 c -0.14926,3.6e-5 -0.29512,0.044603 -0.41891,0.128 -0.123789,0.083396 -0.219882,0.201829 -0.275984,0.340145 -0.056103,0.138317 -0.069664,0.290227 -0.038946,0.436287 0.030717,0.14607 0.104315,0.27965 0.211376,0.38365 l 9.2197238,9.2197299 -9.2197238,9.2197 c -0.071978,0.0691 -0.129444,0.1519 -0.169031,0.2435 -0.039588,0.0916 -0.060501,0.1902 -0.061515,0.29 -0.00101,0.0997 0.017891,0.1987 0.055608,0.2911 0.037716,0.0924 0.093487,0.1763 0.164045,0.2469 0.070558,0.0705 0.154486,0.1263 0.246868,0.164 0.092379,0.0377 0.191359,0.0566 0.291139,0.0556 0.09978,-0.001 0.19836,-0.0219 0.28995,-0.0615 0.0916,-0.0396 0.17437,-0.097 0.24348,-0.169 l 9.7500198,-9.75 c 0.1406,-0.1407 0.2196,-0.3314 0.2196,-0.5303 0,-0.1989 -0.079,-0.3896 -0.2196,-0.5303 L 7.6607542,1.7182141 c -0.06991,-0.071994 -0.15355,-0.129227 -0.24598,-0.168311 -0.09242,-0.039084 -0.19175,-0.059225 -0.2921,-0.059228 z"/>
</svg>
