<svg width="200" height="128" viewBox="0 0 200 128" fill="none" xmlns="http://www.w3.org/2000/svg">
<g clip-path="url(#clip0_1311_266)">
<path fill-rule="evenodd" clip-rule="evenodd" d="M113.962 6.22176C140.497 8.29602 152.409 37.084 158.655 62.9573C163.276 82.1026 155.754 101.494 139.723 112.935C124.128 124.066 104.173 123.421 87.7375 113.574C63.7309 99.1901 34.3114 80.943 40.9526 53.7566C48.5716 22.5678 81.9537 3.7197 113.962 6.22176Z" fill="#E2F6EC"/>
<path fill-rule="evenodd" clip-rule="evenodd" d="M113.962 6.22176C140.497 8.29602 152.409 37.084 158.655 62.9573C163.276 82.1026 155.754 101.494 139.723 112.935C124.128 124.066 104.173 123.421 87.7375 113.574C63.7309 99.1901 34.3114 80.943 40.9526 53.7566C48.5716 22.5678 81.9537 3.7197 113.962 6.22176Z" fill="url(#paint0_linear_1311_266)" fill-opacity="0.2"/>
<path d="M146.999 100.449C146.992 100.449 146.986 100.449 146.98 100.449C144.23 100.449 141.998 97.1186 141.98 93C141.962 97.1091 139.741 100.434 137 100.449C137 100.449 137 100.449 137 100.449C139.741 100.464 141.962 103.789 141.98 107.898C141.998 103.779 144.23 100.449 146.98 100.449C146.986 100.449 146.992 100.449 146.999 100.449C146.999 100.449 146.999 100.449 146.999 100.449Z" fill="url(#paint1_linear_1311_266)"/>
<path d="M87.9987 25.4489C87.9923 25.4489 87.9859 25.449 87.9795 25.449C85.2296 25.449 82.9982 22.1186 82.9803 18C82.9623 22.1091 80.7412 25.4336 78 25.4489C78 25.4489 78 25.4489 78 25.4489C80.7412 25.4642 82.9623 28.7889 82.9803 32.8979C82.9982 28.7794 85.2296 25.449 87.9795 25.449C87.9859 25.449 87.9923 25.4489 87.9987 25.4489C87.9987 25.4489 87.9987 25.4489 87.9987 25.4489Z" fill="url(#paint2_linear_1311_266)"/>
<path d="M63.9987 76.4489C63.9923 76.4489 63.9859 76.449 63.9795 76.449C61.2296 76.449 58.9982 73.1186 58.9803 69C58.9623 73.1091 56.7412 76.4336 54 76.4489C54 76.4489 54 76.4489 54 76.4489C56.7412 76.4642 58.9623 79.7889 58.9803 83.8979C58.9982 79.7794 61.2296 76.449 63.9795 76.449C63.9859 76.449 63.9923 76.4489 63.9987 76.4489C63.9987 76.4489 63.9987 76.4489 63.9987 76.4489Z" fill="url(#paint3_linear_1311_266)"/>
<mask id="mask0_1311_266" style="mask-type:alpha" maskUnits="userSpaceOnUse" x="0" y="0" width="200" height="128">
<path fill-rule="evenodd" clip-rule="evenodd" d="M113.962 6.22176C140.497 8.29602 152.409 37.084 158.655 62.9573C163.276 82.1026 155.754 101.494 139.723 112.935C124.128 124.066 104.173 123.421 87.7375 113.574C63.7309 99.1901 34.3114 80.943 40.9526 53.7566C48.5716 22.5678 81.9537 3.7197 113.962 6.22176Z" fill="#E2F6EC"/>
<path fill-rule="evenodd" clip-rule="evenodd" d="M113.962 6.22176C140.497 8.29602 152.409 37.084 158.655 62.9573C163.276 82.1026 155.754 101.494 139.723 112.935C124.128 124.066 104.173 123.421 87.7375 113.574C63.7309 99.1901 34.3114 80.943 40.9526 53.7566C48.5716 22.5678 81.9537 3.7197 113.962 6.22176Z" fill="url(#paint4_linear_1311_266)" fill-opacity="0.2"/>
</mask>
<g mask="url(#mask0_1311_266)">
<path opacity="0.25" d="M170.095 88.9036L122.849 41.6571L75.2617 88.7578L120.331 133.827L170.095 88.9036Z" fill="url(#paint5_linear_1311_266)"/>
</g>
<path d="M109.401 41.401C111.214 39.5869 113.607 38.6797 116 38.6797C118.393 38.6797 120.786 39.5869 122.599 41.401C126.227 45.0292 126.227 50.9708 122.599 54.599L93.0886 84.112C92.527 84.6736 91.8324 85.0786 91.073 85.2969L91.0704 85.2995L77.2162 89.2552C76.8735 89.3528 76.5109 89.357 76.166 89.2674C75.821 89.1779 75.5063 88.9978 75.2543 88.7458C75.0023 88.4938 74.8222 88.179 74.7327 87.8341C74.6431 87.4892 74.6473 87.1266 74.7449 86.7839L78.7006 72.9323C78.918 72.1678 79.3281 71.4714 79.8881 70.9115L109.401 41.401Z" fill="#EAF3DC"/>
<path d="M116 38.6797C113.607 38.6797 111.214 39.5869 109.401 41.401L79.8881 70.9115C79.3281 71.4714 78.918 72.1678 78.7006 72.9323L74.7449 86.7839C74.6473 87.1266 74.6431 87.4892 74.7327 87.8341C74.8222 88.1791 75.0023 88.4938 75.2543 88.7458C75.5063 88.9978 75.821 89.1779 76.166 89.2674C76.5109 89.357 76.8735 89.3528 77.2162 89.2552L91.0704 85.2995C91.0713 85.2986 91.0721 85.2977 91.073 85.2969C91.8324 85.0786 92.527 84.6736 93.0886 84.112L122.599 54.599C126.227 50.9708 126.227 45.0292 122.599 41.401C120.786 39.5869 118.393 38.6797 116 38.6797ZM116 42.6562C117.361 42.6562 118.72 43.1807 119.768 44.2292C119.769 44.2292 119.77 44.2292 119.771 44.2292C121.871 46.329 121.871 49.671 119.771 51.7708L117.185 54.3568L109.643 46.8151L112.229 44.2292C113.277 43.1807 114.639 42.6562 116 42.6562ZM106.815 49.6432L114.357 57.1849L90.2579 81.2839C90.1797 81.3615 90.0807 81.421 89.9688 81.4531L79.5782 84.4219L82.5469 74.0286C82.5469 74.0278 82.5469 74.0269 82.5469 74.026C82.5775 73.9185 82.6335 73.8223 82.7162 73.7396L106.815 49.6432Z" fill="#2C8658"/>
</g>
<defs>
<linearGradient id="paint0_linear_1311_266" x1="145.5" y1="111.5" x2="54.2001" y2="21.6513" gradientUnits="userSpaceOnUse">
<stop stop-color="#F1F0EC"/>
<stop offset="1" stop-color="#84D6AC"/>
</linearGradient>
<linearGradient id="paint1_linear_1311_266" x1="137" y1="93" x2="147" y2="108" gradientUnits="userSpaceOnUse">
<stop stop-color="#2C8658"/>
<stop offset="1" stop-color="#ACD278"/>
</linearGradient>
<linearGradient id="paint2_linear_1311_266" x1="78" y1="18" x2="88" y2="33" gradientUnits="userSpaceOnUse">
<stop stop-color="#2C8658"/>
<stop offset="1" stop-color="#ACD278"/>
</linearGradient>
<linearGradient id="paint3_linear_1311_266" x1="54" y1="69" x2="64" y2="84" gradientUnits="userSpaceOnUse">
<stop stop-color="#2C8658"/>
<stop offset="1" stop-color="#ACD278"/>
</linearGradient>
<linearGradient id="paint4_linear_1311_266" x1="145.5" y1="111.5" x2="54.2001" y2="21.6513" gradientUnits="userSpaceOnUse">
<stop stop-color="#F1F0EC"/>
<stop offset="1" stop-color="#84D6AC"/>
</linearGradient>
<linearGradient id="paint5_linear_1311_266" x1="94.972" y1="68.5" x2="143.686" y2="115.822" gradientUnits="userSpaceOnUse">
<stop stop-color="#2C8658"/>
<stop offset="1" stop-color="#ACD278"/>
</linearGradient>
<clipPath id="clip0_1311_266">
<rect width="200" height="128" fill="white"/>
</clipPath>
</defs>
</svg>
