<svg width="16" height="17" viewBox="0 0 16 17" fill="none" xmlns="http://www.w3.org/2000/svg">
<path d="M2.49469 2.49463C2.42323 2.4947 2.35263 2.51008 2.28762 2.53974C2.22261 2.56939 2.16471 2.61264 2.11783 2.66656C2.07094 2.72048 2.03615 2.78382 2.01581 2.85231C1.99547 2.92081 1.99004 2.99287 1.9999 3.06364V5.99984C1.99896 6.06609 2.0112 6.13187 2.03591 6.19336C2.06061 6.25484 2.09729 6.3108 2.14382 6.35799C2.19034 6.40517 2.24577 6.44264 2.3069 6.46821C2.36803 6.49379 2.43363 6.50696 2.4999 6.50696C2.56616 6.50696 2.63176 6.49379 2.69289 6.46821C2.75402 6.44264 2.80945 6.40517 2.85598 6.35799C2.9025 6.3108 2.93918 6.25484 2.96388 6.19336C2.98859 6.13187 3.00083 6.06609 2.9999 5.99984V4.20687L6.14638 7.35335C6.19245 7.40134 6.24764 7.43965 6.3087 7.46604C6.36976 7.49243 6.43548 7.50637 6.502 7.50705C6.56852 7.50773 6.63451 7.49512 6.69609 7.46998C6.75768 7.44483 6.81363 7.40765 6.86067 7.36061C6.90771 7.31358 6.94489 7.25762 6.97004 7.19604C6.99518 7.13445 7.00778 7.06846 7.00711 7.00194C7.00643 6.93542 6.99249 6.86971 6.9661 6.80864C6.93971 6.74758 6.9014 6.69239 6.85341 6.64632L3.70693 3.49984H5.4999C5.56615 3.50077 5.63193 3.48853 5.69342 3.46383C5.7549 3.43912 5.81086 3.40244 5.85805 3.35592C5.90523 3.3094 5.9427 3.25396 5.96827 3.19283C5.99385 3.1317 6.00702 3.0661 6.00702 2.99984C6.00702 2.93357 5.99385 2.86797 5.96827 2.80684C5.9427 2.74572 5.90523 2.69028 5.85805 2.64376C5.81086 2.59723 5.7549 2.56055 5.69342 2.53585C5.63193 2.51114 5.56615 2.4989 5.4999 2.49984H2.56305C2.54041 2.49654 2.51757 2.4948 2.49469 2.49463ZM13.4901 2.49528C13.472 2.49582 13.454 2.49734 13.4361 2.49984H10.4999C10.4336 2.4989 10.3679 2.51114 10.3064 2.53585C10.2449 2.56055 10.1889 2.59723 10.1417 2.64376C10.0946 2.69028 10.0571 2.74572 10.0315 2.80684C10.0059 2.86797 9.99277 2.93357 9.99277 2.99984C9.99277 3.0661 10.0059 3.1317 10.0315 3.19283C10.0571 3.25396 10.0946 3.3094 10.1417 3.35592C10.1889 3.40244 10.2449 3.43912 10.3064 3.46383C10.3679 3.48853 10.4336 3.50077 10.4999 3.49984H12.2929L9.14638 6.64632C9.09839 6.69239 9.06008 6.74758 9.03369 6.80864C9.0073 6.86971 8.99336 6.93542 8.99268 7.00194C8.99201 7.06846 9.00461 7.13445 9.02975 7.19604C9.0549 7.25762 9.09208 7.31358 9.13912 7.36061C9.18616 7.40765 9.24211 7.44483 9.3037 7.46998C9.36528 7.49512 9.43127 7.50773 9.49779 7.50705C9.56431 7.50637 9.63003 7.49243 9.69109 7.46604C9.75215 7.43965 9.80734 7.40134 9.85341 7.35335L12.9999 4.20687V5.99984C12.999 6.06609 13.0112 6.13187 13.0359 6.19336C13.0606 6.25484 13.0973 6.3108 13.1438 6.35799C13.1903 6.40517 13.2458 6.44264 13.3069 6.46821C13.368 6.49379 13.4336 6.50696 13.4999 6.50696C13.5662 6.50696 13.6318 6.49379 13.6929 6.46821C13.754 6.44264 13.8095 6.40517 13.856 6.35799C13.9025 6.3108 13.9392 6.25484 13.9639 6.19336C13.9886 6.13187 14.0008 6.06609 13.9999 5.99984V3.06299C14.0098 2.99105 14.0038 2.91783 13.9825 2.84842C13.9612 2.779 13.9251 2.71506 13.8765 2.66103C13.828 2.60701 13.7683 2.56419 13.7016 2.53557C13.6349 2.50695 13.5627 2.4932 13.4901 2.49528ZM9.49469 9.49463C9.39518 9.49465 9.29794 9.52436 9.21542 9.57996C9.13289 9.63556 9.06883 9.71451 9.03143 9.80673C8.99402 9.89894 8.98498 10.0002 9.00546 10.0976C9.02594 10.195 9.07501 10.284 9.14638 10.3534L12.2929 13.4998H10.4999C10.4336 13.4989 10.3679 13.5111 10.3064 13.5358C10.2449 13.5606 10.1889 13.5972 10.1417 13.6438C10.0946 13.6903 10.0571 13.7457 10.0315 13.8068C10.0059 13.868 9.99277 13.9336 9.99277 13.9998C9.99277 14.0661 10.0059 14.1317 10.0315 14.1928C10.0571 14.254 10.0946 14.3094 10.1417 14.3559C10.1889 14.4024 10.2449 14.4391 10.3064 14.4638C10.3679 14.4885 10.4336 14.5008 10.4999 14.4998H13.4367C13.5132 14.5103 13.5911 14.5029 13.6642 14.4783C13.7373 14.4536 13.8038 14.4124 13.8583 14.3578C13.9129 14.3032 13.954 14.2367 13.9786 14.1635C14.0032 14.0904 14.0104 14.0125 13.9999 13.936V10.9998C14.0008 10.9336 13.9886 10.8678 13.9639 10.8063C13.9392 10.7448 13.9025 10.6889 13.856 10.6417C13.8095 10.5945 13.754 10.557 13.6929 10.5315C13.6318 10.5059 13.5662 10.4927 13.4999 10.4927C13.4336 10.4927 13.368 10.5059 13.3069 10.5315C13.2458 10.557 13.1903 10.5945 13.1438 10.6417C13.0973 10.6889 13.0606 10.7448 13.0359 10.8063C13.0112 10.8678 12.999 10.9336 12.9999 10.9998V12.7928L9.85341 9.64632C9.80681 9.59833 9.75104 9.56017 9.68942 9.53411C9.62781 9.50806 9.56159 9.49463 9.49469 9.49463ZM6.49013 9.49528C6.36028 9.49906 6.23699 9.55323 6.14638 9.64632L2.9999 12.7928V10.9998C3.00083 10.9336 2.98859 10.8678 2.96388 10.8063C2.93918 10.7448 2.9025 10.6889 2.85598 10.6417C2.80945 10.5945 2.75402 10.557 2.69289 10.5315C2.63176 10.5059 2.56616 10.4927 2.4999 10.4927C2.43363 10.4927 2.36803 10.5059 2.3069 10.5315C2.24577 10.557 2.19034 10.5945 2.14382 10.6417C2.09729 10.6889 2.06061 10.7448 2.03591 10.8063C2.0112 10.8678 1.99896 10.9336 1.9999 10.9998V13.9367C1.98943 14.0132 1.99681 14.091 2.02145 14.1641C2.0461 14.2373 2.08734 14.3037 2.14194 14.3583C2.19655 14.4128 2.26304 14.454 2.33621 14.4785C2.40938 14.5031 2.48724 14.5104 2.5637 14.4998H5.4999C5.56615 14.5008 5.63193 14.4885 5.69342 14.4638C5.7549 14.4391 5.81086 14.4024 5.85805 14.3559C5.90523 14.3094 5.9427 14.254 5.96827 14.1928C5.99385 14.1317 6.00702 14.0661 6.00702 13.9998C6.00702 13.9336 5.99385 13.868 5.96827 13.8068C5.9427 13.7457 5.90523 13.6903 5.85805 13.6438C5.81086 13.5972 5.7549 13.5606 5.69342 13.5358C5.63193 13.5111 5.56615 13.4989 5.4999 13.4998H3.70693L6.85341 10.3534C6.92554 10.2831 6.97479 10.1927 6.9947 10.094C7.01461 9.99531 7.00426 9.89289 6.96501 9.80017C6.92575 9.70745 6.85942 9.62873 6.77469 9.57433C6.68996 9.51993 6.59078 9.49238 6.49013 9.49528Z" fill="#333025"/>
</svg>
