<svg width="24" height="24" viewBox="0 0 24 24" xmlns="http://www.w3.org/2000/svg">
<path d="M12 2C10.3521 2 9 3.35207 9 5H5.87305C5.82854 4.99237 5.78344 4.98877 5.73828 4.98926C5.70194 4.99021 5.66571 4.9938 5.62988 5H3.75C3.65062 4.99859 3.55194 5.01696 3.45972 5.05402C3.36749 5.09108 3.28355 5.1461 3.21277 5.21588C3.142 5.28566 3.08579 5.36882 3.04743 5.46051C3.00907 5.5522 2.98932 5.65061 2.98932 5.75C2.98932 5.84939 3.00907 5.9478 3.04743 6.03949C3.08579 6.13118 3.142 6.21434 3.21277 6.28412C3.28355 6.3539 3.36749 6.40892 3.45972 6.44598C3.55194 6.48304 3.65062 6.50141 3.75 6.5H5V19.25C5 20.7599 6.24011 22 7.75 22H16.25C17.7599 22 19 20.7599 19 19.25V6.5H20.25C20.3494 6.50141 20.4481 6.48304 20.5403 6.44598C20.6325 6.40892 20.7164 6.3539 20.7872 6.28412C20.858 6.21434 20.9142 6.13118 20.9526 6.03949C20.9909 5.9478 21.0107 5.84939 21.0107 5.75C21.0107 5.65061 20.9909 5.5522 20.9526 5.46051C20.9142 5.36882 20.858 5.28566 20.7872 5.21588C20.7164 5.1461 20.6325 5.09108 20.5403 5.05402C20.4481 5.01696 20.3494 4.99859 20.25 5H18.373C18.2925 4.98677 18.2104 4.98677 18.1299 5H15C15 3.35207 13.6479 2 12 2ZM12 3.5C12.8371 3.5 13.5 4.16293 13.5 5H10.5C10.5 4.16293 11.1629 3.5 12 3.5ZM6.5 6.5H17.5V19.25C17.5 19.9491 16.9491 20.5 16.25 20.5H7.75C7.05089 20.5 6.5 19.9491 6.5 19.25V6.5ZM10.2383 8.98926C10.0395 8.99236 9.85016 9.07423 9.71173 9.21686C9.5733 9.3595 9.49715 9.55125 9.5 9.75V17.25C9.4986 17.3494 9.51696 17.4481 9.55402 17.5403C9.59108 17.6325 9.6461 17.7164 9.71588 17.7872C9.78566 17.858 9.86882 17.9142 9.96051 17.9526C10.0522 17.9909 10.1506 18.0107 10.25 18.0107C10.3494 18.0107 10.4478 17.9909 10.5395 17.9526C10.6312 17.9142 10.7143 17.858 10.7841 17.7872C10.8539 17.7164 10.9089 17.6325 10.946 17.5403C10.983 17.4481 11.0014 17.3494 11 17.25V9.75C11.0014 9.64962 10.9827 9.54997 10.9449 9.45695C10.9071 9.36394 10.8511 9.27946 10.78 9.20852C10.709 9.13758 10.6245 9.08161 10.5314 9.04395C10.4383 9.00629 10.3387 8.98769 10.2383 8.98926ZM13.7383 8.98926C13.5395 8.99236 13.3502 9.07423 13.2117 9.21686C13.0733 9.3595 12.9972 9.55125 13 9.75V17.25C12.9986 17.3494 13.017 17.4481 13.054 17.5403C13.0911 17.6325 13.1461 17.7164 13.2159 17.7872C13.2857 17.858 13.3688 17.9142 13.4605 17.9526C13.5522 17.9909 13.6506 18.0107 13.75 18.0107C13.8494 18.0107 13.9478 17.9909 14.0395 17.9526C14.1312 17.9142 14.2143 17.858 14.2841 17.7872C14.3539 17.7164 14.4089 17.6325 14.446 17.5403C14.483 17.4481 14.5014 17.3494 14.5 17.25V9.75C14.5014 9.64962 14.4827 9.54997 14.4449 9.45695C14.4071 9.36394 14.3511 9.27946 14.28 9.20852C14.209 9.13758 14.1245 9.08161 14.0314 9.04395C13.9383 9.00629 13.8387 8.98769 13.7383 8.98926Z"/>
</svg>
