<svg width="16" height="16" viewBox="0 0 16 16" xmlns="http://www.w3.org/2000/svg">
<path d="M7.99967 1.33334C4.3237 1.33334 1.33301 4.32403 1.33301 8.00001C1.33301 11.676 4.3237 14.6667 7.99967 14.6667C11.6757 14.6667 14.6663 11.676 14.6663 8.00001C14.6663 4.32403 11.6757 1.33334 7.99967 1.33334ZM7.99967 2.33334C9.38632 2.33334 10.6378 2.84783 11.6214 3.67123L3.6709 11.6211C2.84769 10.6376 2.33301 9.38648 2.33301 8.00001C2.33301 4.86447 4.86414 2.33334 7.99967 2.33334ZM12.3285 4.37827C13.1518 5.36186 13.6663 6.61336 13.6663 8.00001C13.6663 11.1355 11.1352 13.6667 7.99967 13.6667C6.61321 13.6667 5.36212 13.152 4.37858 12.3288L12.3285 4.37827Z" />
</svg>
