<svg width="24" height="24" viewBox="0 0 24 24" xmlns="http://www.w3.org/2000/svg">
<path d="M20.7354 2.49317C20.7082 2.49398 20.6812 2.49626 20.6543 2.5H13.75C13.6506 2.4986 13.5519 2.51696 13.4597 2.55402C13.3675 2.59108 13.2836 2.6461 13.2128 2.71588C13.142 2.78567 13.0858 2.86882 13.0474 2.96051C13.0091 3.05221 12.9893 3.15061 12.9893 3.25C12.9893 3.3494 13.0091 3.4478 13.0474 3.53949C13.0858 3.63119 13.142 3.71434 13.2128 3.78412C13.2836 3.85391 13.3675 3.90893 13.4597 3.94599C13.5519 3.98305 13.6506 4.00141 13.75 4H18.9395L11.2197 11.7197C11.1477 11.7888 11.0903 11.8716 11.0507 11.9632C11.0111 12.0548 10.9902 12.1534 10.9892 12.2532C10.9882 12.3529 11.0071 12.4519 11.0448 12.5443C11.0825 12.6367 11.1383 12.7206 11.2088 12.7912C11.2794 12.8617 11.3633 12.9175 11.4557 12.9552C11.5481 12.9929 11.6471 13.0118 11.7468 13.0108C11.8466 13.0098 11.9452 12.9889 12.0368 12.9493C12.1284 12.9097 12.2112 12.8523 12.2803 12.7803L20 5.06055V10.25C19.9986 10.3494 20.017 10.4481 20.054 10.5403C20.0911 10.6325 20.1461 10.7165 20.2159 10.7872C20.2857 10.858 20.3688 10.9142 20.4605 10.9526C20.5522 10.9909 20.6506 11.0107 20.75 11.0107C20.8494 11.0107 20.9478 10.9909 21.0395 10.9526C21.1312 10.9142 21.2143 10.858 21.2841 10.7872C21.3539 10.7165 21.4089 10.6325 21.446 10.5403C21.483 10.4481 21.5014 10.3494 21.5 10.25V3.34473C21.5148 3.23682 21.5059 3.12699 21.4739 3.02287C21.442 2.91875 21.3877 2.82284 21.315 2.7418C21.2422 2.66076 21.1527 2.59654 21.0526 2.5536C20.9525 2.51067 20.8442 2.49004 20.7354 2.49317ZM6.25 4C4.18775 4 2.5 5.68775 2.5 7.75V17.75C2.5 19.8123 4.18775 21.5 6.25 21.5H16.25C18.3123 21.5 20 19.8123 20 17.75V12.75C20.0014 12.6506 19.983 12.5519 19.946 12.4597C19.9089 12.3675 19.8539 12.2836 19.7841 12.2128C19.7143 12.142 19.6312 12.0858 19.5395 12.0474C19.4478 12.0091 19.3494 11.9893 19.25 11.9893C19.1506 11.9893 19.0522 12.0091 18.9605 12.0474C18.8688 12.0858 18.7857 12.142 18.7159 12.2128C18.6461 12.2836 18.5911 12.3675 18.554 12.4597C18.517 12.5519 18.4986 12.6506 18.5 12.75V17.75C18.5 19.0018 17.5017 20 16.25 20H6.25C4.99825 20 4 19.0018 4 17.75V7.75C4 6.49825 4.99825 5.5 6.25 5.5H11.25C11.3494 5.50141 11.4481 5.48305 11.5403 5.44599C11.6325 5.40893 11.7164 5.35391 11.7872 5.28412C11.858 5.21434 11.9142 5.13119 11.9526 5.03949C11.9909 4.9478 12.0107 4.8494 12.0107 4.75C12.0107 4.65061 11.9909 4.55221 11.9526 4.46051C11.9142 4.36882 11.858 4.28567 11.7872 4.21588C11.7164 4.1461 11.6325 4.09108 11.5403 4.05402C11.4481 4.01696 11.3494 3.9986 11.25 4H6.25Z"/>
</svg>
