<svg width="24" height="24" viewBox="0 0 24 24" xmlns="http://www.w3.org/2000/svg">
<path d="M11.9932 4.5C6.33335 4.5 1.34644 8.42296 0.0234403 13.5635C-0.0260288 13.7562 0.00307651 13.9606 0.104353 14.1319C0.20563 14.3031 0.370783 14.4271 0.563479 14.4766C0.756176 14.526 0.960631 14.4969 1.13187 14.3956C1.3031 14.2944 1.4271 14.1292 1.47657 13.9365C2.61657 9.50704 7.03298 6 11.9932 6C16.9534 6 21.3838 9.50828 22.5234 13.9365C22.5729 14.1292 22.6969 14.2944 22.8681 14.3956C23.0394 14.4969 23.2438 14.526 23.4365 14.4766C23.6292 14.4271 23.7944 14.3031 23.8956 14.1319C23.9969 13.9606 24.026 13.7562 23.9766 13.5635C22.6532 8.42173 17.653 4.5 11.9932 4.5ZM12.001 8.5C9.34095 8.5 7.16895 10.672 7.16895 13.332C7.16895 15.9921 9.34095 18.165 12.001 18.165C14.661 18.165 16.834 15.9921 16.834 13.332C16.834 10.672 14.661 8.5 12.001 8.5ZM12.001 10C13.8504 10 15.334 11.4827 15.334 13.332C15.334 15.1814 13.8504 16.665 12.001 16.665C10.1516 16.665 8.66895 15.1814 8.66895 13.332C8.66895 11.4827 10.1516 10 12.001 10Z" />
</svg>
