<svg width="24" height="24" viewBox="0 0 24 24" xmlns="http://www.w3.org/2000/svg">
<path d="M8.73533 2.99317C8.54055 2.99885 8.35563 3.0801 8.2197 3.21973L3.2197 8.21973C3.07911 8.36039 3.00012 8.55113 3.00012 8.75001C3.00012 8.94888 3.07911 9.13962 3.2197 9.28028L8.2197 14.2803C8.28881 14.3523 8.37159 14.4097 8.46319 14.4493C8.55478 14.4889 8.65336 14.5098 8.75314 14.5108C8.85292 14.5118 8.95189 14.4929 9.04428 14.4552C9.13666 14.4175 9.22059 14.3617 9.29114 14.2912C9.3617 14.2206 9.41747 14.1367 9.45519 14.0443C9.49291 13.9519 9.51181 13.8529 9.5108 13.7532C9.50978 13.6534 9.48887 13.5548 9.44928 13.4632C9.4097 13.3716 9.35223 13.2888 9.28025 13.2197L5.56052 9.50001H14.5C17.2701 9.50001 19.5 11.7299 19.5 14.5C19.5 17.2701 17.2701 19.5 14.5 19.5H10.75C10.6506 19.4986 10.5519 19.517 10.4597 19.554C10.3675 19.5911 10.2835 19.6461 10.2128 19.7159C10.142 19.7857 10.0858 19.8688 10.0474 19.9605C10.0091 20.0522 9.9893 20.1506 9.9893 20.25C9.9893 20.3494 10.0091 20.4478 10.0474 20.5395C10.0858 20.6312 10.142 20.7143 10.2128 20.7841C10.2835 20.8539 10.3675 20.9089 10.4597 20.946C10.5519 20.983 10.6506 21.0014 10.75 21H14.5C18.0808 21 21 18.0809 21 14.5C21 10.9191 18.0808 8.00001 14.5 8.00001H5.56052L9.28025 4.28028C9.38845 4.1749 9.46232 4.03931 9.49219 3.89126C9.52205 3.74321 9.50653 3.58959 9.44765 3.4505C9.38876 3.31142 9.28926 3.19335 9.16217 3.11175C9.03507 3.03015 8.8863 2.98882 8.73533 2.99317Z"/>
</svg>
