<svg width="24" height="24" viewBox="0 0 24 24" xmlns="http://www.w3.org/2000/svg">
<path d="M21.2353 1.99317C21.0406 1.99885 20.8556 2.0801 20.7197 2.21973L2.21971 20.7197C2.14773 20.7888 2.09026 20.8716 2.05068 20.9632C2.01109 21.0548 1.99018 21.1534 1.98916 21.2532C1.98815 21.3529 2.00705 21.4519 2.04477 21.5443C2.08249 21.6367 2.13826 21.7206 2.20881 21.7912C2.27937 21.8617 2.3633 21.9175 2.45568 21.9552C2.54806 21.9929 2.64704 22.0118 2.74682 22.0108C2.8466 22.0098 2.94518 21.9889 3.03677 21.9493C3.12837 21.9097 3.21115 21.8523 3.28026 21.7803L8.45799 16.6025C9.34233 17.5596 10.6001 18.165 12 18.165C14.665 18.165 16.8349 15.995 16.8349 13.335C16.8349 11.9351 16.2296 10.6736 15.2724 9.78809L17.5264 7.53419C19.9522 8.95457 21.8344 11.2484 22.5254 13.9346C22.6104 14.2746 22.915 14.5 23.25 14.5C23.31 14.5 23.3746 14.4946 23.4346 14.4746C23.8396 14.3746 24.0796 13.9654 23.9746 13.5654C23.2047 10.5641 21.2306 8.03655 18.6387 6.42188L21.7803 3.28028C21.8885 3.1749 21.9623 3.03931 21.9922 2.89126C22.0221 2.74321 22.0065 2.58959 21.9477 2.4505C21.8888 2.31142 21.7893 2.19335 21.6622 2.11175C21.5351 2.03015 21.3863 1.98882 21.2353 1.99317ZM11.9951 4.50001C6.4101 4.50001 1.37537 8.31044 0.0253725 13.5654C-0.0796274 13.9654 0.160412 14.3746 0.565412 14.4746C0.965412 14.5796 1.37459 14.3396 1.47459 13.9346C2.63959 9.40958 7.1651 6.00001 11.9951 6.00001C12.8501 6.00001 13.6947 6.10458 14.5097 6.30958L15.7402 5.08008C14.5452 4.70008 13.2851 4.50001 11.9951 4.50001ZM12 8.50001C9.33498 8.50001 7.1699 10.67 7.1699 13.335C7.1699 13.435 7.17467 13.5397 7.17967 13.6397L9.07518 11.7451C9.38018 11.1801 9.85002 10.7103 10.415 10.4053L12.3096 8.50977C12.2046 8.50477 12.105 8.50001 12 8.50001ZM14.2129 10.8477C14.8982 11.4583 15.3349 12.3437 15.3349 13.335C15.3349 15.17 13.84 16.665 12 16.665C11.0127 16.665 10.128 16.2283 9.51756 15.543L14.2129 10.8477Z" />
</svg>
