<svg width="16" height="17" viewBox="0 0 16 17" fill="none" xmlns="http://www.w3.org/2000/svg">
<path d="M8 3.8335C5.90667 3.8335 4.18399 5.45016 4.01432 7.50016H3.83333C2.271 7.50016 1 8.77116 1 10.3335C1 11.8958 2.271 13.1668 3.83333 13.1668H5.54492C5.40859 12.9725 5.33333 12.7425 5.33333 12.5002C5.33333 12.3848 5.35537 12.2742 5.38737 12.1668H3.83333C2.82233 12.1668 2 11.3445 2 10.3335C2 9.3225 2.82233 8.50016 3.83333 8.50016H4.5C4.77633 8.50016 5 8.2765 5 8.00016V7.8335C5 6.1795 6.346 4.8335 8 4.8335C9.654 4.8335 11 6.1795 11 7.8335V8.00016C11 8.2765 11.2237 8.50016 11.5 8.50016H12.1667C13.1777 8.50016 14 9.3225 14 10.3335C14 11.3445 13.1777 12.1668 12.1667 12.1668H10.6126C10.6446 12.2742 10.6667 12.3848 10.6667 12.5002C10.6667 12.7425 10.5914 12.9725 10.4551 13.1668H12.1667C13.729 13.1668 15 11.8958 15 10.3335C15 8.77116 13.729 7.50016 12.1667 7.50016H11.9857C11.816 5.45016 10.0933 3.8335 8 3.8335ZM7.99219 8.493C7.85969 8.49507 7.73344 8.54965 7.64115 8.64474C7.54887 8.73983 7.4981 8.86767 7.5 9.00016V12.7931L6.85352 12.1466C6.80744 12.0987 6.75226 12.0604 6.69119 12.034C6.63013 12.0076 6.56441 11.9936 6.4979 11.993C6.43138 11.9923 6.36539 12.0049 6.3038 12.03C6.24221 12.0552 6.18626 12.0923 6.13922 12.1394C6.09218 12.1864 6.055 12.2424 6.02986 12.304C6.00471 12.3656 5.99211 12.4315 5.99279 12.4981C5.99346 12.5646 6.00741 12.6303 6.0338 12.6914C6.06019 12.7524 6.0985 12.8076 6.14648 12.8537L7.60352 14.3107C7.65037 14.3718 7.71071 14.4213 7.77982 14.4552C7.84893 14.4892 7.92495 14.5067 8.00195 14.5064C8.07895 14.5062 8.15485 14.4882 8.22373 14.4538C8.29262 14.4194 8.35263 14.3695 8.39909 14.3081L9.85352 12.8537C9.9015 12.8076 9.93981 12.7524 9.9662 12.6914C9.99259 12.6303 10.0065 12.5646 10.0072 12.4981C10.0079 12.4315 9.99529 12.3656 9.97014 12.304C9.945 12.2424 9.90782 12.1864 9.86078 12.1394C9.81374 12.0923 9.75779 12.0552 9.6962 12.03C9.63461 12.0049 9.56862 11.9923 9.50211 11.993C9.43559 11.9936 9.36987 12.0076 9.30881 12.034C9.24774 12.0604 9.19256 12.0987 9.14648 12.1466L8.5 12.7931V9.00016C8.50096 8.93324 8.48848 8.86681 8.46329 8.8048C8.4381 8.74279 8.40072 8.68647 8.35336 8.63917C8.30601 8.59188 8.24964 8.55457 8.1876 8.52946C8.12556 8.50435 8.05911 8.49196 7.99219 8.493Z" fill="#333025"/>
</svg>
