<svg width="24" height="24" viewBox="0 0 24 24" xmlns="http://www.w3.org/2000/svg">
<path d="M12.2154 1.24194C12.991 1.24194 13.7111 1.48865 14.2159 1.99348C14.4574 2.23494 14.6318 2.53102 14.7563 2.8535C14.982 2.7856 15.2097 2.71527 15.4356 2.71961C16.0445 2.73132 16.6026 2.98563 17.0334 3.37342C17.6304 3.9107 17.9736 4.74858 17.9306 5.63879C18.7797 5.69703 19.5487 6.10239 19.9976 6.76073C20.4732 7.45825 20.5478 8.4167 20.1588 9.3017C20.5099 9.49135 20.8082 9.75555 21.0364 10.0542C21.4922 10.6505 21.7225 11.3792 21.7225 12.1026C21.7225 13.044 21.3178 13.9853 20.537 14.6172C19.9222 15.1149 19.0429 15.2971 18.0762 15.2505C17.9319 15.9991 17.6469 16.6968 17.1087 17.2051C16.3903 17.8836 15.374 18.2547 14.2169 18.2547V19.0053C14.2169 19.3717 14.3393 20.027 14.6215 20.4917C14.9036 20.9565 15.2399 21.257 15.9682 21.257C16.1654 21.2597 16.3535 21.3403 16.492 21.4807C16.6304 21.6212 16.708 21.8103 16.708 22.0075C16.708 22.2047 16.6304 22.3938 16.492 22.5343C16.3535 22.6747 16.1654 22.7553 15.9682 22.7581H8.46257C8.26534 22.7553 8.07722 22.6747 7.93874 22.5343C7.80031 22.3938 7.72275 22.2047 7.72275 22.0075C7.72275 21.8103 7.80031 21.6212 7.93874 21.4807C8.07722 21.3403 8.26534 21.2597 8.46257 21.257C9.19084 21.257 9.52714 20.9565 9.80928 20.4917C10.0914 20.027 10.2139 19.3717 10.2139 19.0053V18.2547C9.05676 18.2547 8.04047 17.8836 7.32206 17.2051C6.78385 16.6968 6.4989 15.9991 6.35454 15.2505C5.38787 15.2971 4.50857 15.1149 3.89371 14.6172C3.11292 13.9853 2.70825 13.044 2.70825 12.1026C2.70825 11.3792 2.93856 10.6505 3.39431 10.0542C3.62258 9.75555 3.9209 9.49135 4.27192 9.3017C3.883 8.4167 3.95759 7.45825 4.43318 6.76073C4.88204 6.10239 5.65108 5.69703 6.50016 5.63879C6.45718 4.74858 6.80034 3.9107 7.39731 3.37342C7.8282 2.98563 8.3863 2.73132 8.99519 2.71961C9.22104 2.71527 9.44876 2.7856 9.67441 2.8535C9.79901 2.53102 9.9734 2.23494 10.2149 1.99348C10.7197 1.48865 11.4398 1.24194 12.2154 1.24194ZM11.715 16.7848V19.0053C11.715 19.6357 11.5687 20.4748 11.0983 21.257H13.3324C12.8621 20.4748 12.7158 19.6357 12.7158 19.0053V16.7848H11.715Z" />
</svg>
