<svg width="24" height="24" viewBox="0 0 24 24" fill="none" xmlns="http://www.w3.org/2000/svg">
<path d="M11.9785 0.99998C11.8673 1.0033 11.7582 1.03132 11.6592 1.08201L2.90918 5.53807C2.78605 5.60089 2.68267 5.69652 2.61047 5.81439C2.53826 5.93227 2.50003 6.0678 2.5 6.20603V16.6006C2.49983 16.726 2.53112 16.8495 2.591 16.9597C2.65089 17.0699 2.73745 17.1633 2.84277 17.2314L11.5928 22.8799C11.7141 22.9583 11.8555 23 12 23C12.1445 23 12.2859 22.9583 12.4072 22.8799L21.1572 17.2314C21.2626 17.1633 21.3491 17.0699 21.409 16.9597C21.4689 16.8495 21.5002 16.726 21.5 16.6006V6.20603C21.5 6.0678 21.4617 5.93227 21.3895 5.81439C21.3173 5.69652 21.214 5.60089 21.0908 5.53807L12.3408 1.08201C12.2288 1.02472 12.1043 0.996513 11.9785 0.99998ZM12 2.59178L19.208 6.26268L16.6895 7.78611L12.3398 5.57127C12.2281 5.51448 12.1038 5.48661 11.9785 5.49021C11.8674 5.49323 11.7583 5.52092 11.6592 5.57127L7.31055 7.78611L4.79199 6.26268L12 2.59178ZM12 7.08103L15.1787 8.70018L12 10.623L8.82129 8.70018L12 7.08103ZM4 7.53709L6.5 9.04978V14.4228C6.5 14.5481 6.53136 14.6714 6.59124 14.7814C6.65111 14.8914 6.73759 14.9847 6.84277 15.0527L11.25 17.8974V20.873L4 16.1924V7.53709ZM20 7.53709V16.1924L12.75 20.873V17.8974L17.1572 15.0527C17.2624 14.9847 17.3489 14.8914 17.4088 14.7814C17.4686 14.6714 17.5 14.5481 17.5 14.4228V9.04978L20 7.53709ZM8 9.95701L11.25 11.9228V16.1123L8 14.0137V9.95701ZM16 9.95701V14.0137L12.75 16.1123V11.9228L16 9.95701Z" fill="#333025"/>
</svg>
