<svg width="24" height="24" viewBox="0 0 24 24" xmlns="http://www.w3.org/2000/svg">
<path d="M13 1C10.2474 1 7.99997 3.24746 7.99997 6C7.99997 8.75254 10.2474 11 13 11C15.7525 11 18 8.75254 18 6C18 3.24746 15.7525 1 13 1ZM13 2.5C14.9419 2.5 16.5 4.05812 16.5 6C16.5 7.94188 14.9419 9.5 13 9.5C11.0581 9.5 9.49997 7.94188 9.49997 6C9.49997 4.05812 11.0581 2.5 13 2.5ZM12.9922 3.25977C12.8597 3.26184 12.7335 3.31637 12.6412 3.41139C12.549 3.50641 12.4982 3.63416 12.5 3.7666V4.04395C11.9742 4.1807 11.583 4.64745 11.583 5.20703C11.583 5.87353 12.134 6.41602 12.8115 6.41602H13.2705C13.489 6.41602 13.666 6.58452 13.666 6.79102C13.666 6.99752 13.489 7.16602 13.2705 7.16602H13.0771C13.049 7.16132 13.0206 7.15904 12.9922 7.15918C12.9679 7.1597 12.9438 7.16199 12.9199 7.16602H12.6787C12.4602 7.16602 12.2977 7.0552 12.2597 7.0127C12.1312 6.8262 11.875 6.77682 11.6855 6.90332C11.494 7.03132 11.4428 7.28995 11.5703 7.48145C11.7209 7.70737 12.0778 7.92428 12.5 7.97754V8.2334C12.499 8.29965 12.5113 8.36544 12.536 8.42692C12.5607 8.4884 12.5974 8.54436 12.6439 8.59155C12.6904 8.63873 12.7458 8.6762 12.807 8.70178C12.8681 8.72735 12.9337 8.74052 13 8.74052C13.0662 8.74052 13.1318 8.72735 13.193 8.70178C13.2541 8.6762 13.3095 8.63873 13.356 8.59155C13.4026 8.54436 13.4393 8.4884 13.464 8.42692C13.4887 8.36544 13.5009 8.29965 13.5 8.2334V7.97754C14.0684 7.87164 14.5 7.38046 14.5 6.79102C14.5 6.12452 13.949 5.58301 13.2715 5.58301H12.8125C12.594 5.58301 12.416 5.41451 12.416 5.20801C12.416 5.00151 12.594 4.83301 12.8125 4.83301H12.9082C12.9666 4.8435 13.0265 4.8435 13.0849 4.83301H13.25C13.459 4.83301 13.5584 4.9647 13.5634 4.9707C13.6854 5.1662 13.9432 5.22504 14.1377 5.10254C14.3332 4.98104 14.3915 4.7243 14.2695 4.5293C14.2401 4.48256 13.9985 4.12101 13.5 4.02441V3.7666C13.5009 3.69971 13.4884 3.63331 13.4632 3.57134C13.438 3.50937 13.4006 3.45309 13.3532 3.40583C13.3059 3.35857 13.2495 3.32129 13.1875 3.2962C13.1255 3.27111 13.059 3.25872 12.9922 3.25977ZM20.8066 11.0098C20.2465 11.0146 19.7146 11.2366 19.2422 11.5879C18.735 11.9646 17.2092 13.104 15.8886 14.0898C15.6023 13.1758 14.7529 12.5 13.75 12.5H11.5537C10.1481 12.5 9.49273 12.3861 8.92966 12.2666C8.36658 12.1471 7.82336 12 6.91305 12C4.97067 12 3.50613 13.2465 2.54684 14.3955C1.58755 15.5445 1.06735 16.6924 1.06735 16.6924C1.02648 16.782 1.00367 16.8788 1.00022 16.9773C0.996766 17.0758 1.01275 17.174 1.04725 17.2662C1.08174 17.3585 1.13409 17.4431 1.20128 17.5152C1.26847 17.5872 1.3492 17.6453 1.43886 17.6862C1.52852 17.727 1.62534 17.7498 1.72381 17.7533C1.82227 17.7567 1.92045 17.7407 2.01273 17.7062C2.10501 17.6716 2.18958 17.6193 2.26162 17.5521C2.33366 17.4849 2.39176 17.4041 2.43259 17.3145C2.43259 17.3145 2.88213 16.3349 3.69821 15.3574C4.5143 14.3799 5.62994 13.5 6.91305 13.5C7.67375 13.5 8.00334 13.6029 8.61813 13.7334C9.23293 13.8639 10.0618 14 11.5537 14H13.75C14.1732 14 14.5 14.3268 14.5 14.75C14.5 14.9847 14.3971 15.1871 14.2353 15.3232C14.2352 15.3233 14.2148 15.3389 14.2148 15.3389C14.2004 15.3501 14.1864 15.3618 14.1728 15.374C14.1725 15.3743 14.1722 15.3747 14.1718 15.375C14.0526 15.4543 13.9082 15.5 13.75 15.5H10.25C10.1506 15.4986 10.0519 15.517 9.95969 15.554C9.86746 15.5911 9.78352 15.6461 9.71274 15.7159C9.64196 15.7857 9.58576 15.8688 9.5474 15.9605C9.50904 16.0522 9.48929 16.1506 9.48929 16.25C9.48929 16.3494 9.50904 16.4478 9.5474 16.5395C9.58576 16.6312 9.64196 16.7143 9.71274 16.7841C9.78352 16.8539 9.86746 16.9089 9.95969 16.946C10.0519 16.983 10.1506 17.0014 10.25 17H13.75C14.2203 17 14.6576 16.8507 15.0205 16.5996C15.0211 16.5992 15.0218 16.599 15.0224 16.5986C15.0537 16.5816 15.0837 16.5623 15.1123 16.541C15.1123 16.541 19.3879 13.3482 20.1367 12.792C20.1367 12.7917 20.1367 12.7913 20.1367 12.791C20.4188 12.5813 20.6549 12.5112 20.8203 12.5098C20.9857 12.5083 21.1091 12.5485 21.2802 12.7197C21.5754 13.0147 21.5737 13.4676 21.2861 13.7666C18.6085 16.0181 16.9242 17.5184 15.8115 18.3975C14.6849 19.2875 14.2125 19.5 13.75 19.5C11.9239 19.5 9.9003 19 7.74997 19C6.49997 19 5.62136 19.6718 5.15036 20.2998C4.67936 20.9278 4.52243 21.5684 4.52243 21.5684C4.49596 21.6648 4.48902 21.7655 4.50204 21.8646C4.51505 21.9637 4.54775 22.0593 4.59821 22.1456C4.64867 22.2319 4.71587 22.3072 4.79587 22.3672C4.87587 22.4271 4.96704 22.4705 5.06404 22.4947C5.16104 22.5189 5.2619 22.5235 5.36069 22.5082C5.45948 22.4929 5.55421 22.458 5.63932 22.4055C5.72442 22.353 5.79818 22.2841 5.85626 22.2027C5.91434 22.1213 5.95556 22.0292 5.97751 21.9316C5.97751 21.9316 6.07058 21.5722 6.34958 21.2002C6.62858 20.8282 6.99997 20.5 7.74997 20.5C9.65363 20.5 11.668 21 13.75 21C14.701 21 15.5424 20.5222 16.7412 19.5752C17.9249 18.6401 19.5877 17.155 22.249 14.917C22.2816 14.8941 22.3123 14.8686 22.3408 14.8408C22.3442 14.8374 22.3452 14.8326 22.3486 14.8291L22.3506 14.8311L22.3769 14.8037C22.4501 14.7275 22.5063 14.6366 22.542 14.5371C23.1652 13.6609 23.1244 12.4421 22.3408 11.6592C21.9264 11.2445 21.3667 11.0049 20.8066 11.0098Z" />
</svg>
