<svg width="24" height="24" viewBox="0 0 24 24" xmlns="http://www.w3.org/2000/svg">
  <path d="M14.1159 0.600912C14.9748 0.600912 15.965 1.11141 16.448 1.93945L17.7656 4.19987H20.0992C22.2418 4.19987 23.9984 5.95678 23.9987 8.09961V19.4993C23.9987 21.6423 22.2419 23.3989 20.0992 23.3989H3.89974C1.75754 23.3987 0 21.6419 0 19.4993V8.09961C0.000288911 5.95692 1.7577 4.20008 3.89974 4.19987H6.23326L7.55075 1.93945C8.0337 1.11172 9.00602 0.601134 9.86348 0.600912H14.1159ZM12 8.86653C9.17829 8.86653 6.89062 11.1542 6.89062 13.9763C6.89092 16.7984 9.17848 19.084 12 19.084C14.8215 19.0839 17.1092 16.7984 17.1093 13.9763C17.1093 11.1542 14.8216 8.8666 12 8.86653Z"/>
</svg>
