<svg width="24" height="24" viewBox="0 0 24 24" fill="none" xmlns="http://www.w3.org/2000/svg">
<path d="M7.5 12C7.5 11.6022 7.34196 11.2206 7.06066 10.9393C6.77935 10.658 6.39782 10.5 6 10.5C5.60218 10.5 5.22065 10.658 4.93934 10.9393C4.65804 11.2206 4.5 11.6022 4.5 12C4.5 12.3978 4.65804 12.7794 4.93934 13.0607C5.22065 13.342 5.60218 13.5 6 13.5C6.39782 13.5 6.77935 13.342 7.06066 13.0607C7.34196 12.7794 7.5 12.3978 7.5 12ZM13.5 12C13.5 11.6022 13.342 11.2206 13.0607 10.9393C12.7794 10.658 12.3978 10.5 12 10.5C11.6022 10.5 11.2206 10.658 10.9393 10.9393C10.658 11.2206 10.5 11.6022 10.5 12C10.5 12.3978 10.658 12.7794 10.9393 13.0607C11.2206 13.342 11.6022 13.5 12 13.5C12.3978 13.5 12.7794 13.342 13.0607 13.0607C13.342 12.7794 13.5 12.3978 13.5 12ZM19.5 12C19.5 11.6022 19.342 11.2206 19.0607 10.9393C18.7794 10.658 18.3978 10.5 18 10.5C17.6022 10.5 17.2206 10.658 16.9393 10.9393C16.658 11.2206 16.5 11.6022 16.5 12C16.5 12.3978 16.658 12.7794 16.9393 13.0607C17.2206 13.342 17.6022 13.5 18 13.5C18.3978 13.5 18.7794 13.342 19.0607 13.0607C19.342 12.7794 19.5 12.3978 19.5 12Z" fill="#3A4445"/>
</svg>
