<svg width="24" height="24" viewBox="0 0 24 24" xmlns="http://www.w3.org/2000/svg">
<path d="M5.74996 3.00008C4.24007 3.00008 2.99996 4.24019 2.99996 5.75008V8.75007C2.99855 8.84946 3.01691 8.94813 3.05397 9.04036C3.09103 9.13258 3.14605 9.21652 3.21584 9.2873C3.28562 9.35808 3.36877 9.41428 3.46047 9.45264C3.55216 9.491 3.65056 9.51076 3.74996 9.51076C3.84935 9.51076 3.94775 9.491 4.03944 9.45264C4.13114 9.41428 4.21429 9.35808 4.28408 9.2873C4.35386 9.21652 4.40888 9.13258 4.44594 9.04036C4.483 8.94813 4.50136 8.84946 4.49996 8.75007V5.75008C4.49996 5.05096 5.05084 4.50007 5.74996 4.50007H8.74996C8.84934 4.50148 8.94801 4.48312 9.04024 4.44606C9.13246 4.409 9.2164 4.35398 9.28718 4.2842C9.35796 4.21441 9.41416 4.13126 9.45252 4.03956C9.49088 3.94787 9.51064 3.84947 9.51064 3.75007C9.51064 3.65068 9.49088 3.55228 9.45252 3.46059C9.41416 3.36889 9.35796 3.28574 9.28718 3.21595C9.2164 3.14617 9.13246 3.09115 9.04024 3.05409C8.94801 3.01703 8.84934 2.99867 8.74996 3.00008H5.74996ZM15.25 3.00008C15.1506 2.99867 15.0519 3.01703 14.9597 3.05409C14.8674 3.09115 14.7835 3.14617 14.7127 3.21595C14.642 3.28574 14.5857 3.36889 14.5474 3.46059C14.509 3.55228 14.4893 3.65068 14.4893 3.75007C14.4893 3.84947 14.509 3.94787 14.5474 4.03956C14.5857 4.13126 14.642 4.21441 14.7127 4.2842C14.7835 4.35398 14.8674 4.409 14.9597 4.44606C15.0519 4.48312 15.1506 4.50148 15.25 4.50007H18.25C18.9491 4.50007 19.5 5.05096 19.5 5.75008V8.75007C19.4986 8.84946 19.5169 8.94813 19.554 9.04036C19.591 9.13258 19.6461 9.21652 19.7158 9.2873C19.7856 9.35808 19.8688 9.41428 19.9605 9.45264C20.0522 9.491 20.1506 9.51076 20.25 9.51076C20.3493 9.51076 20.4478 9.491 20.5394 9.45264C20.6311 9.41428 20.7143 9.35808 20.7841 9.2873C20.8539 9.21652 20.9089 9.13258 20.9459 9.04036C20.983 8.94813 21.0014 8.84946 21 8.75007V5.75008C21 4.24019 19.7598 3.00008 18.25 3.00008H15.25ZM3.73824 14.4893C3.53949 14.4924 3.35011 14.5743 3.21168 14.7169C3.07326 14.8596 2.9971 15.0513 2.99996 15.2501V18.2501C2.99996 19.76 4.24007 21.0001 5.74996 21.0001H8.74996C8.84934 21.0015 8.94801 20.9831 9.04024 20.9461C9.13246 20.909 9.2164 20.854 9.28718 20.7842C9.35796 20.7144 9.41416 20.6313 9.45252 20.5396C9.49088 20.4479 9.51064 20.3495 9.51064 20.2501C9.51064 20.1507 9.49088 20.0523 9.45252 19.9606C9.41416 19.8689 9.35796 19.7857 9.28718 19.716C9.2164 19.6462 9.13246 19.5912 9.04024 19.5541C8.94801 19.517 8.84934 19.4987 8.74996 19.5001H5.74996C5.05084 19.5001 4.49996 18.9492 4.49996 18.2501V15.2501C4.5014 15.1497 4.48267 15.05 4.44489 14.957C4.4071 14.864 4.35103 14.7795 4.28 14.7086C4.20897 14.6377 4.12441 14.5817 4.03135 14.544C3.93829 14.5064 3.83862 14.4878 3.73824 14.4893ZM20.2382 14.4893C20.0395 14.4924 19.8501 14.5743 19.7117 14.7169C19.5733 14.8596 19.4971 15.0513 19.5 15.2501V18.2501C19.5 18.9492 18.9491 19.5001 18.25 19.5001H15.25C15.1506 19.4987 15.0519 19.517 14.9597 19.5541C14.8674 19.5912 14.7835 19.6462 14.7127 19.716C14.642 19.7857 14.5857 19.8689 14.5474 19.9606C14.509 20.0523 14.4893 20.1507 14.4893 20.2501C14.4893 20.3495 14.509 20.4479 14.5474 20.5396C14.5857 20.6313 14.642 20.7144 14.7127 20.7842C14.7835 20.854 14.8674 20.909 14.9597 20.9461C15.0519 20.9831 15.1506 21.0015 15.25 21.0001H18.25C19.7598 21.0001 21 19.76 21 18.2501V15.2501C21.0014 15.1497 20.9827 15.05 20.9449 14.957C20.9071 14.864 20.851 14.7795 20.78 14.7086C20.709 14.6377 20.6244 14.5817 20.5314 14.544C20.4383 14.5064 20.3386 14.4878 20.2382 14.4893Z" fill="#333025"/>
</svg>
