<svg width="24" height="24" viewBox="0 0 24 24" xmlns="http://www.w3.org/2000/svg">
<path d="M12 2C10.6268 2 9.49707 3.12971 9.49707 4.50293V20.5H7.5V12.0029C7.5 10.6297 6.37029 9.5 4.99707 9.5C3.62385 9.5 2.49512 10.6297 2.49512 12.0029V20.5H1.75C1.65062 20.4986 1.55194 20.517 1.45972 20.554C1.36749 20.5911 1.28355 20.6461 1.21277 20.7159C1.142 20.7857 1.08579 20.8688 1.04743 20.9605C1.00907 21.0522 0.989319 21.1506 0.989319 21.25C0.989319 21.3494 1.00907 21.4478 1.04743 21.5395C1.08579 21.6312 1.142 21.7143 1.21277 21.7841C1.28355 21.8539 1.36749 21.9089 1.45972 21.946C1.55194 21.983 1.65062 22.0014 1.75 22H17.1221C17.2026 22.0132 17.2847 22.0132 17.3652 22H20.6123C20.7027 22.0168 20.7954 22.0168 20.8857 22H22.25C22.3494 22.0014 22.4481 21.983 22.5403 21.946C22.6325 21.9089 22.7164 21.8539 22.7872 21.7841C22.858 21.7143 22.9142 21.6312 22.9526 21.5395C22.9909 21.4478 23.0107 21.3494 23.0107 21.25C23.0107 21.1506 22.9909 21.0522 22.9526 20.9605C22.9142 20.8688 22.858 20.7857 22.7872 20.7159C22.7164 20.6461 22.6325 20.5911 22.5403 20.554C22.4481 20.517 22.3494 20.4986 22.25 20.5H21.5V7.00293C21.5 5.62971 20.3703 4.5 18.9971 4.5C17.6239 4.5 16.4951 5.62971 16.4951 7.00293V20.5H14.5C14.5002 19.193 14.5029 5.29658 14.5029 4.50293C14.5029 3.12969 13.3732 2 12 2ZM12 3.5C12.5628 3.5 13.0029 3.94015 13.0029 4.50293C13.0029 5.29375 13.0002 19.1943 13 20.5H10.9971V4.50293C10.9971 3.94015 11.4372 3.5 12 3.5ZM18.9971 6C19.5599 6 20 6.44015 20 7.00293V20.5H17.9951V7.00293C17.9951 6.44015 18.4343 6 18.9971 6ZM4.99707 11C5.55985 11 6 11.4401 6 12.0029V20.5H3.99512V12.0029C3.99512 11.4401 4.43429 11 4.99707 11Z"/>
</svg>
