<svg width="24" height="24" viewBox="0 0 24 24" fill="none" xmlns="http://www.w3.org/2000/svg">
<path d="M7.75 2.5C5.96403 2.5 4.5 3.96403 4.5 5.75V7.62695C4.48677 7.70747 4.48677 7.7896 4.5 7.87012V16H3.25C2.29252 16 1.5 16.7925 1.5 17.75V18.25C1.5 20.036 2.96403 21.5 4.75 21.5H15.75V21.4551C17.2475 21.4463 18.5 20.2559 18.5 18.75V13.873C18.5132 13.7925 18.5132 13.7104 18.5 13.6299V10.373C18.5132 10.2925 18.5132 10.2104 18.5 10.1299V8.5H20.75C21.7075 8.5 22.5 7.70748 22.5 6.75V5.33594C22.5 3.92595 21.4656 2.65054 20.0176 2.5127C19.9275 2.50409 19.8385 2.50082 19.75 2.50098V2.5H19.7168H7.75ZM7.75 4H17.3096C17.1142 4.37614 17 4.80003 17 5.25V9.5H15.25C15.1506 9.49859 15.0519 9.51696 14.9597 9.55402C14.8675 9.59108 14.7836 9.6461 14.7128 9.71588C14.642 9.78566 14.5858 9.86882 14.5474 9.96051C14.5091 10.0522 14.4893 10.1506 14.4893 10.25C14.4893 10.3494 14.5091 10.4478 14.5474 10.5395C14.5858 10.6312 14.642 10.7143 14.7128 10.7841C14.7836 10.8539 14.8675 10.9089 14.9597 10.946C15.0519 10.983 15.1506 11.0014 15.25 11H17V13H14.25C14.1506 12.9986 14.0519 13.017 13.9597 13.054C13.8675 13.0911 13.7836 13.1461 13.7128 13.2159C13.642 13.2857 13.5858 13.3688 13.5474 13.4605C13.5091 13.5522 13.4893 13.6506 13.4893 13.75C13.4893 13.8494 13.5091 13.9478 13.5474 14.0395C13.5858 14.1312 13.642 14.2143 13.7128 14.2841C13.7836 14.3539 13.8675 14.4089 13.9597 14.446C14.0519 14.483 14.1506 14.5014 14.25 14.5H17V18.75C17 19.4905 16.3918 20.0674 15.625 19.9941C14.9931 19.934 14.5 19.3431 14.5 18.6641V17.75C14.5 16.7925 13.7075 16 12.75 16H6V8.5H7.75C7.84938 8.50141 7.94806 8.48304 8.04028 8.44598C8.13251 8.40892 8.21645 8.3539 8.28723 8.28412C8.358 8.21434 8.41421 8.13118 8.45257 8.03949C8.49093 7.9478 8.51068 7.84939 8.51068 7.75C8.51068 7.65061 8.49093 7.5522 8.45257 7.46051C8.41421 7.36882 8.358 7.28566 8.28723 7.21588C8.21645 7.1461 8.13251 7.09108 8.04028 7.05402C7.94806 7.01696 7.84938 6.99859 7.75 7H6V5.75C6 4.77497 6.77497 4 7.75 4ZM19.875 4.00586C20.5069 4.06602 21 4.65692 21 5.33594V6.75C21 6.89752 20.8975 7 20.75 7H18.5V5.25C18.5 4.50953 19.1082 3.93259 19.875 4.00586ZM3.25 17.5H12.75C12.8975 17.5 13 17.6025 13 17.75V18.6641C13 19.1457 13.1564 19.5898 13.373 20H4.75C3.77497 20 3 19.225 3 18.25V17.75C3 17.6025 3.10248 17.5 3.25 17.5Z" />
</svg>
