<svg width="24" height="24" viewBox="0 0 24 24" xmlns="http://www.w3.org/2000/svg">
<path d="M12 2C8.73203 2 5.82553 3.57458 3.99995 6.00586V4.25C4.00139 4.14962 3.98267 4.04997 3.94488 3.95695C3.9071 3.86394 3.85103 3.77946 3.78 3.70852C3.70896 3.63757 3.62441 3.58161 3.53135 3.54395C3.43829 3.50629 3.33862 3.48769 3.23823 3.48926C3.03949 3.49236 2.85011 3.57422 2.71168 3.71686C2.57325 3.8595 2.4971 4.05125 2.49995 4.25V7.75C2.49997 7.94891 2.579 8.13966 2.71964 8.28031C2.86029 8.42096 3.05105 8.49998 3.24995 8.5H6.74995C6.84934 8.50141 6.94801 8.48304 7.04024 8.44598C7.13246 8.40892 7.2164 8.3539 7.28718 8.28412C7.35796 8.21434 7.41416 8.13118 7.45252 8.03949C7.49088 7.9478 7.51063 7.84939 7.51063 7.75C7.51063 7.65061 7.49088 7.5522 7.45252 7.46051C7.41416 7.36882 7.35796 7.28566 7.28718 7.21588C7.2164 7.1461 7.13246 7.09108 7.04024 7.05402C6.94801 7.01696 6.84934 6.99859 6.74995 7H5.12495C6.66949 4.8791 9.16954 3.5 12 3.5C16.7031 3.5 20.5 7.29685 20.5 12C20.5 16.7031 16.7031 20.5 12 20.5C7.29681 20.5 3.49995 16.7031 3.49995 12C3.50136 11.9006 3.483 11.8019 3.44594 11.7097C3.40888 11.6175 3.35386 11.5336 3.28407 11.4628C3.21429 11.392 3.13114 11.3358 3.03944 11.2974C2.94775 11.2591 2.84935 11.2393 2.74995 11.2393C2.65056 11.2393 2.55216 11.2591 2.46046 11.2974C2.36877 11.3358 2.28562 11.392 2.21583 11.4628C2.14605 11.5336 2.09103 11.6175 2.05397 11.7097C2.01691 11.8019 1.99855 11.9006 1.99995 12C1.99995 17.5139 6.4861 22 12 22C17.5138 22 22 17.5139 22 12C22 6.48615 17.5138 2 12 2ZM11.7382 6.48926C11.5395 6.49236 11.3501 6.57423 11.2117 6.71686C11.0733 6.8595 10.9971 7.05125 11 7.25V13.25C11 13.4489 11.079 13.6397 11.2196 13.7803C11.3603 13.921 11.551 14 11.75 14H15.75C15.8493 14.0014 15.948 13.983 16.0402 13.946C16.1325 13.9089 16.2164 13.8539 16.2872 13.7841C16.358 13.7143 16.4142 13.6312 16.4525 13.5395C16.4909 13.4478 16.5106 13.3494 16.5106 13.25C16.5106 13.1506 16.4909 13.0522 16.4525 12.9605C16.4142 12.8688 16.358 12.7857 16.2872 12.7159C16.2164 12.6461 16.1325 12.5911 16.0402 12.554C15.948 12.517 15.8493 12.4986 15.75 12.5H12.5V7.25C12.5014 7.14962 12.4827 7.04997 12.4449 6.95695C12.4071 6.86394 12.351 6.77946 12.28 6.70852C12.209 6.63758 12.1244 6.58161 12.0314 6.54395C11.9383 6.50629 11.8386 6.48769 11.7382 6.48926Z" />
</svg>
