<svg width="24" height="24" viewBox="0 0 24 24" fill="none" xmlns="http://www.w3.org/2000/svg">
<path d="M13.2422 4.49219C13.0929 4.49222 12.9471 4.53679 12.8233 4.62019C12.6995 4.70358 12.6034 4.82202 12.5473 4.96033C12.4912 5.09865 12.4776 5.25056 12.5084 5.39662C12.5391 5.54269 12.6127 5.67627 12.7197 5.78027L18.4395 11.5H3.75C3.65062 11.4986 3.55194 11.517 3.45972 11.554C3.36749 11.5911 3.28355 11.6461 3.21277 11.7159C3.142 11.7857 3.08579 11.8688 3.04743 11.9605C3.00907 12.0522 2.98932 12.1506 2.98932 12.25C2.98932 12.3494 3.00907 12.4478 3.04743 12.5395C3.08579 12.6312 3.142 12.7143 3.21277 12.7841C3.28355 12.8539 3.36749 12.9089 3.45972 12.946C3.55194 12.983 3.65062 13.0014 3.75 13H18.4395L12.7197 18.7197C12.6477 18.7888 12.5903 18.8716 12.5507 18.9632C12.5111 19.0548 12.4902 19.1534 12.4892 19.2532C12.4882 19.3529 12.5071 19.4519 12.5448 19.5443C12.5825 19.6367 12.6383 19.7206 12.7088 19.7912C12.7794 19.8617 12.8633 19.9175 12.9557 19.9552C13.0481 19.9929 13.1471 20.0118 13.2468 20.0108C13.3466 20.0098 13.4452 19.9889 13.5368 19.9493C13.6284 19.9097 13.7112 19.8523 13.7803 19.7803L20.7803 12.7803C20.9209 12.6396 20.9999 12.4489 20.9999 12.25C20.9999 12.0511 20.9209 11.8604 20.7803 11.7197L13.7803 4.71973C13.7104 4.64773 13.6267 4.5905 13.5343 4.55142C13.4419 4.51233 13.3425 4.49219 13.2422 4.49219Z" fill="#3A4445"/>
</svg>
