<svg width="24" height="24" viewBox="0 0 24 24" xmlns="http://www.w3.org/2000/svg">
<path d="M12 2C11.2115 2 10.4513 2.09971 9.72557 2.26855C9.57423 2.30388 9.4376 2.38534 9.33456 2.50167C9.23152 2.61801 9.16716 2.76347 9.15037 2.91797L8.99119 4.36914C8.93913 4.84468 8.66444 5.26543 8.24998 5.50488C7.83635 5.74386 7.33429 5.77033 6.89647 5.57812H6.89549L5.56248 4.99121C5.4203 4.92864 5.2622 4.91176 5.11001 4.9429C4.95782 4.97403 4.81905 5.05165 4.71287 5.16504C3.67663 6.26979 2.88132 7.60753 2.42967 9.10059C2.38468 9.24919 2.38692 9.40809 2.43607 9.55537C2.48522 9.70265 2.57886 9.83105 2.70408 9.92285L3.8867 10.79C4.27288 11.074 4.49998 11.5214 4.49998 12C4.49998 12.4789 4.27288 12.9267 3.8867 13.21L2.70408 14.0762C2.57886 14.168 2.48522 14.2964 2.43607 14.4437C2.38692 14.5909 2.38468 14.7498 2.42967 14.8984C2.88127 16.3913 3.67595 17.7301 4.71287 18.835C4.81917 18.9482 4.95799 19.0256 5.11017 19.0566C5.26236 19.0875 5.4204 19.0705 5.56248 19.0078L6.89549 18.4209C7.33353 18.2283 7.83607 18.256 8.24998 18.4951C8.66444 18.7346 8.93913 19.1553 8.99119 19.6309L9.15037 21.082C9.16729 21.2362 9.23159 21.3814 9.33443 21.4975C9.43727 21.6136 9.57358 21.695 9.72459 21.7305C10.4507 21.8999 11.2115 22 12 22C12.7884 22 13.5486 21.9003 14.2744 21.7314C14.4257 21.6961 14.5624 21.6147 14.6654 21.4983C14.7684 21.382 14.8328 21.2365 14.8496 21.082L15.0088 19.6309C15.0608 19.1553 15.3355 18.7346 15.75 18.4951C16.1636 18.2561 16.6657 18.2287 17.1035 18.4209L18.4375 19.0078C18.5796 19.0705 18.7376 19.0875 18.8898 19.0566C19.042 19.0256 19.1808 18.9482 19.2871 18.835C20.3233 17.7302 21.1186 16.3915 21.5703 14.8984C21.6153 14.7498 21.6131 14.5909 21.5639 14.4437C21.5147 14.2964 21.4211 14.168 21.2959 14.0762L20.1133 13.21C19.7271 12.9267 19.5 12.4789 19.5 12C19.5 11.5211 19.7271 11.0733 20.1133 10.79L21.2959 9.92383C21.4211 9.83203 21.5147 9.70363 21.5639 9.55635C21.6131 9.40907 21.6153 9.25017 21.5703 9.10156C21.1186 7.60851 20.3233 6.26979 19.2871 5.16504C19.1808 5.05182 19.042 4.97438 18.8898 4.94342C18.7376 4.91246 18.5796 4.9295 18.4375 4.99219L17.1035 5.5791C16.6657 5.77131 16.1636 5.74386 15.75 5.50488C15.3355 5.26543 15.0608 4.84468 15.0088 4.36914L14.8496 2.91797C14.8327 2.76378 14.7684 2.61862 14.6655 2.50249C14.5627 2.38636 14.4264 2.30497 14.2754 2.26953C13.5493 2.10008 12.7884 2 12 2ZM12 3.5C12.4871 3.5 12.9549 3.58744 13.4238 3.66992L13.5176 4.53223C13.6215 5.48169 14.1734 6.32617 15 6.80371C15.8271 7.28157 16.834 7.3365 17.708 6.95215L18.501 6.60352C19.1099 7.3347 19.592 8.16059 19.9287 9.06543L19.2256 9.58105C18.4558 10.1458 18 11.0449 18 12C18 12.9551 18.4558 13.8542 19.2256 14.4189L19.9287 14.9346C19.592 15.8394 19.1099 16.6653 18.501 17.3965L17.708 17.0479C16.834 16.6635 15.8271 16.7184 15 17.1963C14.1734 17.6738 13.6215 18.5183 13.5176 19.4678L13.4238 20.3301C12.955 20.4123 12.4869 20.5 12 20.5C11.5128 20.5 11.045 20.4126 10.5762 20.3301L10.4824 19.4678C10.3785 18.5183 9.82653 17.6738 8.99998 17.1963C8.1729 16.7184 7.16594 16.6635 6.29197 17.0479L5.49901 17.3965C4.88997 16.6654 4.40795 15.8395 4.07127 14.9346L4.7744 14.4189C5.54421 13.8542 5.99998 12.9551 5.99998 12C5.99998 11.0449 5.54384 10.1452 4.7744 9.58008L4.07127 9.06445C4.40815 8.15927 4.89071 7.33392 5.49998 6.60254L6.29197 6.95117C7.16594 7.33553 8.1729 7.28157 8.99998 6.80371C9.82653 6.32617 10.3785 5.48169 10.4824 4.53223L10.5762 3.66992C11.045 3.58767 11.5131 3.5 12 3.5ZM12 8C9.79973 8 7.99998 9.79975 7.99998 12C7.99998 14.2003 9.79973 16 12 16C14.2002 16 16 14.2003 16 12C16 9.79975 14.2002 8 12 8ZM12 9.5C13.3896 9.5 14.5 10.6104 14.5 12C14.5 13.3896 13.3896 14.5 12 14.5C10.6104 14.5 9.49998 13.3896 9.49998 12C9.49998 10.6104 10.6104 9.5 12 9.5Z"/>
</svg>
