<svg width="24" height="24" viewBox="0 0 24 24" fill="none" xmlns="http://www.w3.org/2000/svg">
<path d="M5 3C4.46957 3 3.96086 3.21071 3.58579 3.58579C3.21071 3.96086 3 4.46957 3 5C3 5.53043 3.21071 6.03914 3.58579 6.41421C3.96086 6.78929 4.46957 7 5 7C5.53043 7 6.03914 6.78929 6.41421 6.41421C6.78929 6.03914 7 5.53043 7 5C7 4.46957 6.78929 3.96086 6.41421 3.58579C6.03914 3.21071 5.53043 3 5 3ZM7.23145 3C7.60195 3.413 7.85908 3.9285 7.95508 4.5H19.5V14H8V15.5H21.25C21.664 15.5 22 15.1645 22 14.75C22 14.3355 21.664 14 21.25 14H21V3.75C21 3.3355 20.664 3 20.25 3H7.23145ZM4 8C3.1715 8 2.5 8.6715 2.5 9.5V15.5H7V9.5H12.25C12.3494 9.50141 12.4481 9.48304 12.5403 9.44598C12.6325 9.40892 12.7164 9.3539 12.7872 9.28412C12.858 9.21434 12.9142 9.13118 12.9526 9.03949C12.9909 8.9478 13.0107 8.84939 13.0107 8.75C13.0107 8.65061 12.9909 8.5522 12.9526 8.46051C12.9142 8.36882 12.858 8.28566 12.7872 8.21588C12.7164 8.1461 12.6325 8.09108 12.5403 8.05402C12.4481 8.01696 12.3494 7.99859 12.25 8H7H4.5H4ZM4.5 17C3.96957 17 3.46086 17.2107 3.08579 17.5858C2.71071 17.9609 2.5 18.4696 2.5 19C2.5 19.5304 2.71071 20.0391 3.08579 20.4142C3.46086 20.7893 3.96957 21 4.5 21C5.03043 21 5.53914 20.7893 5.91421 20.4142C6.28929 20.0391 6.5 19.5304 6.5 19C6.5 18.4696 6.28929 17.9609 5.91421 17.5858C5.53914 17.2107 5.03043 17 4.5 17ZM9.5 17C8.96957 17 8.46086 17.2107 8.08579 17.5858C7.71071 17.9609 7.5 18.4696 7.5 19C7.5 19.5304 7.71071 20.0391 8.08579 20.4142C8.46086 20.7893 8.96957 21 9.5 21C10.0304 21 10.5391 20.7893 10.9142 20.4142C11.2893 20.0391 11.5 19.5304 11.5 19C11.5 18.4696 11.2893 17.9609 10.9142 17.5858C10.5391 17.2107 10.0304 17 9.5 17ZM14.5 17C13.9696 17 13.4609 17.2107 13.0858 17.5858C12.7107 17.9609 12.5 18.4696 12.5 19C12.5 19.5304 12.7107 20.0391 13.0858 20.4142C13.4609 20.7893 13.9696 21 14.5 21C15.0304 21 15.5391 20.7893 15.9142 20.4142C16.2893 20.0391 16.5 19.5304 16.5 19C16.5 18.4696 16.2893 17.9609 15.9142 17.5858C15.5391 17.2107 15.0304 17 14.5 17ZM19.5 17C18.9696 17 18.4609 17.2107 18.0858 17.5858C17.7107 17.9609 17.5 18.4696 17.5 19C17.5 19.5304 17.7107 20.0391 18.0858 20.4142C18.4609 20.7893 18.9696 21 19.5 21C20.0304 21 20.5391 20.7893 20.9142 20.4142C21.2893 20.0391 21.5 19.5304 21.5 19C21.5 18.4696 21.2893 17.9609 20.9142 17.5858C20.5391 17.2107 20.0304 17 19.5 17Z" fill="#333025"/>
</svg>
