<svg width="19" height="19" viewBox="0 0 19 19" xmlns="http://www.w3.org/2000/svg">
<path d="M11.1759 0C11.935 9.64964e-05 12.6398 0.419881 13.0221 1.1005L14.0653 2.95779H15.9126C17.6091 2.95779 18.9998 4.40175 19 6.16281V15.5317C19 17.2929 17.6092 18.7367 15.9126 18.7367H3.08744C1.39091 18.7365 0 17.2928 0 15.5317V6.16281C0.000240413 4.40184 1.39106 2.95795 3.08744 2.95779H4.93467L5.97889 1.1005C6.36124 0.419883 7.06595 0 7.82513 0H11.1759ZM9.5005 6.79296C7.26656 6.79296 5.45528 8.67293 5.45528 10.992C5.45536 13.3109 7.26661 15.191 9.5005 15.191C11.7343 15.1908 13.5446 13.3108 13.5447 10.992C13.5447 8.67301 11.7343 6.79309 9.5005 6.79296Z" />
</svg>
