<svg width="20" height="20" viewBox="0 0 20 20" xmlns="http://www.w3.org/2000/svg">
<path d="M15.9998 0.504883C15.1025 0.504883 14.2052 0.845069 13.5252 1.52539L2.45785 12.5918C2.24786 12.8018 2.09407 13.0629 2.01254 13.3496L0.529141 18.5439C0.492558 18.6725 0.490978 18.8084 0.524564 18.9378C0.558151 19.0671 0.625685 19.1852 0.72018 19.2797C0.814676 19.3742 0.932701 19.4417 1.06205 19.4753C1.1914 19.5089 1.32737 19.5073 1.4559 19.4707L6.65121 17.9873C6.65154 17.987 6.65186 17.9867 6.65219 17.9863C6.93695 17.9045 7.19745 17.7526 7.40805 17.542L18.4745 6.47461C19.835 5.11405 19.835 2.88595 18.4745 1.52539C17.7944 0.845069 16.8972 0.504883 15.9998 0.504883ZM15.9998 1.99609C16.5102 1.99609 17.0199 2.19276 17.4129 2.58594C17.4133 2.58594 17.4136 2.58594 17.4139 2.58594C18.2013 3.37337 18.2013 4.62663 17.4139 5.41406L16.4442 6.38379L13.6161 3.55566L14.5858 2.58594C14.9788 2.19276 15.4894 1.99609 15.9998 1.99609ZM12.5555 4.61621L15.3836 7.44434L6.34652 16.4814C6.31721 16.5106 6.28008 16.5329 6.23813 16.5449L2.34164 17.6582L3.45492 13.7607C3.45492 13.7604 3.45492 13.7601 3.45492 13.7598C3.46639 13.7195 3.48739 13.6834 3.5184 13.6523L12.5555 4.61621Z"/>
</svg>
