<svg width="20" height="19" viewBox="0 0 20 19" xmlns="http://www.w3.org/2000/svg">
<path d="M5.18466 0.00359634C5.06525 0.0085236 4.94573 0.0185196 4.82599 0.0334635C4.34706 0.093239 3.8675 0.232258 3.40643 0.443458C1.56215 1.28826 0 3.3494 0 6.30285C1.20333e-05 6.42949 0.0339578 6.55372 0.0981721 6.66213C0.162386 6.77053 0.254429 6.859 0.364362 6.91797C0.474295 6.97694 0.597941 7.00418 0.721949 6.99674C0.845957 6.9893 0.965616 6.94746 1.068 6.87575C1.57731 6.51909 2.1594 6.57422 2.91637 6.78977C3.67334 7.00532 4.465 7.41517 5.35778 7.41517C6.41878 7.41517 7.48835 6.96699 8.23065 6.13722C8.2945 6.07048 8.34452 5.99133 8.37776 5.90448C8.41099 5.81762 8.42674 5.72484 8.42409 5.63166C8.42143 5.53847 8.40042 5.44678 8.36229 5.36204C8.32417 5.2773 8.26971 5.20125 8.20217 5.1384C8.13463 5.07555 8.05537 5.0272 7.96913 4.99621C7.88288 4.96523 7.7914 4.95224 7.70013 4.95804C7.60886 4.96383 7.51966 4.98828 7.43785 5.02993C7.35604 5.07158 7.28328 5.12958 7.2239 5.20048C6.76983 5.70806 6.02404 6.02499 5.35778 6.02499C4.9751 6.02499 4.17333 5.7047 3.28303 5.45118C2.74321 5.29747 2.11968 5.20634 1.49414 5.29099C1.79103 3.44561 2.80924 2.2412 3.96573 1.71145C4.64729 1.39926 5.35724 1.32057 5.94638 1.45442C6.10662 1.49082 6.23358 1.57842 6.37518 1.64357C4.73809 1.97085 3.8006 3.0238 3.8006 3.0238C3.74131 3.09294 3.69604 3.17338 3.66741 3.26047C3.63879 3.34756 3.62738 3.43956 3.63384 3.53117C3.64029 3.62278 3.66449 3.71217 3.70504 3.79419C3.74558 3.87621 3.80167 3.94922 3.87006 4.00902C3.93844 4.06881 4.01777 4.11419 4.10346 4.14254C4.18915 4.1709 4.27951 4.18166 4.3693 4.17421C4.4591 4.16675 4.54655 4.14123 4.62661 4.09912C4.70668 4.05701 4.77776 3.99914 4.83576 3.92886C4.83576 3.92886 5.87861 2.5977 8.06019 3.00208C8.07257 3.00424 8.085 3.00605 8.09748 3.00751C8.09748 3.00751 8.29491 3.01056 8.60884 3.33061C8.92277 3.65065 9.31818 4.30382 9.31818 5.7933V9.26874H4.77273H3.86364C3.77329 9.26744 3.68359 9.28446 3.59974 9.31881C3.5159 9.35315 3.43959 9.40415 3.37525 9.46882C3.31091 9.53349 3.25981 9.61056 3.22494 9.69554C3.19007 9.78052 3.17211 9.87172 3.17211 9.96383C3.17211 10.056 3.19007 10.1472 3.22494 10.2321C3.25981 10.3171 3.31091 10.3942 3.37525 10.4588C3.43959 10.5235 3.5159 10.5745 3.59974 10.6089C3.68359 10.6432 3.77329 10.6602 3.86364 10.6589H4.16282L4.82422 16.7328C4.96421 18.0179 6.04079 19 7.30913 19H12.6918C13.96 19 15.036 18.0173 15.1767 16.7328L15.8372 10.6589H16.1364C16.2267 10.6602 16.3164 10.6432 16.4003 10.6089C16.4841 10.5745 16.5604 10.5235 16.6248 10.4588C16.6891 10.3942 16.7402 10.3171 16.7751 10.2321C16.8099 10.1472 16.8279 10.056 16.8279 9.96383C16.8279 9.87172 16.8099 9.78052 16.7751 9.69554C16.7402 9.61056 16.6891 9.53349 16.6248 9.46882C16.5604 9.40415 16.4841 9.35315 16.4003 9.31881C16.3164 9.28446 16.2267 9.26744 16.1364 9.26874H15.2273H10.6818V5.7933C10.6818 4.30382 11.0772 3.65065 11.3912 3.33061C11.7047 3.01098 11.9016 3.00751 11.9016 3.00751C11.9141 3.00605 11.9274 3.00424 11.9398 3.00208C14.1214 2.5977 15.1642 3.92886 15.1642 3.92886C15.2222 3.99914 15.2933 4.05701 15.3734 4.09912C15.4534 4.14123 15.5409 4.16675 15.6307 4.17421C15.7205 4.18166 15.8108 4.1709 15.8965 4.14254C15.9822 4.11419 16.0616 4.06881 16.1299 4.00902C16.1983 3.94922 16.2544 3.87621 16.295 3.79419C16.3355 3.71217 16.3597 3.62278 16.3662 3.53117C16.3726 3.43956 16.3612 3.34756 16.3326 3.26047C16.304 3.17338 16.2587 3.09294 16.1994 3.0238C16.1994 3.0238 15.2619 1.97085 13.6248 1.64357C13.7664 1.57842 13.8934 1.49082 14.0536 1.45442C14.6428 1.32057 15.3527 1.39926 16.0343 1.71145C17.1908 2.2412 18.209 3.44561 18.5059 5.29099C17.8803 5.20634 17.2568 5.29746 16.717 5.45118C15.8266 5.7047 15.0249 6.02499 14.6422 6.02499C13.976 6.02499 13.2302 5.70806 12.7761 5.20048C12.7167 5.12958 12.644 5.07158 12.5622 5.02993C12.4803 4.98828 12.3911 4.96383 12.2999 4.95804C12.2086 4.95224 12.1171 4.96523 12.0309 4.99621C11.9446 5.0272 11.8654 5.07555 11.7978 5.1384C11.7303 5.20125 11.6758 5.2773 11.6377 5.36204C11.5996 5.44678 11.5786 5.53847 11.5759 5.63166C11.5733 5.72484 11.589 5.81762 11.6222 5.90448C11.6555 5.99133 11.7055 6.07048 11.7694 6.13722C12.5116 6.96699 13.5812 7.41517 14.6422 7.41517C15.535 7.41517 16.3267 7.00532 17.0836 6.78977C17.8406 6.57422 18.4227 6.51909 18.932 6.87575C19.0344 6.94746 19.154 6.9893 19.278 6.99674C19.4021 7.00418 19.5257 6.97694 19.6356 6.91797C19.7456 6.859 19.8376 6.77053 19.9018 6.66213C19.966 6.55372 20 6.42949 20 6.30285C20 3.3494 18.4378 1.28826 16.5936 0.443458C15.6714 0.0210592 14.6754 -0.110908 13.7571 0.0977231C12.8982 0.292867 12.1312 0.838512 11.622 1.65172C11.5807 1.66353 11.5405 1.67929 11.5021 1.69878L11.5004 1.69969C11.2635 1.76468 10.8608 1.90545 10.427 2.34771C10.2636 2.51428 10.1422 2.81473 10 3.05729C9.85784 2.81473 9.73636 2.51428 9.57298 2.34771C9.13729 1.90355 8.7326 1.76307 8.49698 1.69878C8.45886 1.67934 8.41903 1.66358 8.37802 1.65172C7.86884 0.838512 7.10185 0.292867 6.2429 0.0977231C5.89853 0.0194865 5.5429 -0.0111855 5.18466 0.00359634Z" />
</svg>
