<svg width="24" height="24" viewBox="0 0 24 24" fill="none" xmlns="http://www.w3.org/2000/svg">
<path d="M11.9883 1.48923C11.7895 1.49233 11.6002 1.57419 11.4617 1.71683C11.3233 1.85947 11.2472 2.05122 11.25 2.24997V3.03806C6.88637 3.40073 3.40076 6.88634 3.03809 11.25H2.25C2.15062 11.2486 2.05194 11.2669 1.95972 11.304C1.86749 11.341 1.78355 11.3961 1.71277 11.4658C1.642 11.5356 1.58579 11.6188 1.54743 11.7105C1.50907 11.8022 1.48932 11.9006 1.48932 12C1.48932 12.0994 1.50907 12.1978 1.54743 12.2895C1.58579 12.3812 1.642 12.4643 1.71277 12.5341C1.78355 12.6039 1.86749 12.6589 1.95972 12.696C2.05194 12.733 2.15062 12.7514 2.25 12.75H3.03809C3.40076 17.1136 6.88637 20.5992 11.25 20.9619V21.75C11.2486 21.8494 11.267 21.948 11.304 22.0403C11.3411 22.1325 11.3961 22.2164 11.4659 22.2872C11.5357 22.358 11.6188 22.4142 11.7105 22.4525C11.8022 22.4909 11.9006 22.5107 12 22.5107C12.0994 22.5107 12.1978 22.4909 12.2895 22.4525C12.3812 22.4142 12.4643 22.358 12.5341 22.2872C12.6039 22.2164 12.6589 22.1325 12.696 22.0403C12.733 21.948 12.7514 21.8494 12.75 21.75V20.9619C14.6281 20.8058 16.3458 20.0776 17.7207 18.9424C19.5403 17.4399 20.7553 15.2355 20.9619 12.75H21.75C21.7751 12.7503 21.8002 12.7493 21.8252 12.747C22.0182 12.7296 22.1969 12.6382 22.324 12.4919C22.451 12.3457 22.5166 12.1559 22.5069 11.9624C22.4971 11.7689 22.4129 11.5866 22.2718 11.4538C22.1307 11.321 21.9437 11.248 21.75 11.25H20.9619C20.9573 11.1941 20.9588 11.1366 20.9531 11.081C20.676 8.36185 19.1833 5.9963 17.0283 4.53903C15.7871 3.69967 14.3244 3.16891 12.75 3.03806V2.24997C12.7514 2.14959 12.7327 2.04994 12.6949 1.95692C12.6571 1.86391 12.6011 1.77943 12.53 1.70849C12.459 1.63754 12.3745 1.58158 12.2814 1.54392C12.1883 1.50626 12.0887 1.48766 11.9883 1.48923ZM11.25 4.53806V5.24997C11.2486 5.34935 11.267 5.44803 11.304 5.54025C11.3411 5.63248 11.3961 5.71642 11.4659 5.7872C11.5357 5.85797 11.6188 5.91418 11.7105 5.95254C11.8022 5.9909 11.9006 6.01065 12 6.01065C12.0994 6.01065 12.1978 5.9909 12.2895 5.95254C12.3812 5.91418 12.4643 5.85797 12.5341 5.7872C12.6039 5.71642 12.6589 5.63248 12.696 5.54025C12.733 5.44803 12.7514 5.34935 12.75 5.24997V4.53806C14.0198 4.66336 15.1952 5.10205 16.1973 5.77829C17.394 6.58588 18.3439 7.73056 18.9121 9.07712C19.1962 9.7504 19.3843 10.4738 19.4609 11.2314C19.4616 11.2375 19.4613 11.2439 19.4619 11.25H18.75C18.6506 11.2486 18.5519 11.2669 18.4597 11.304C18.3675 11.341 18.2836 11.3961 18.2128 11.4658C18.142 11.5356 18.0858 11.6188 18.0474 11.7105C18.0091 11.8022 17.9893 11.9006 17.9893 12C17.9893 12.0994 18.0091 12.1978 18.0474 12.2895C18.0858 12.3812 18.142 12.4643 18.2128 12.5341C18.2836 12.6039 18.3675 12.6589 18.4597 12.696C18.5519 12.733 18.6506 12.7514 18.75 12.75H19.4619C19.4114 13.2615 19.3116 13.7576 19.1641 14.2334C18.7267 15.6436 17.8851 16.8739 16.7744 17.79C15.6638 18.7061 14.2839 19.3077 12.7686 19.4609C12.7625 19.4615 12.7561 19.4613 12.75 19.4619V18.75C12.7514 18.6496 12.7327 18.5499 12.6949 18.4569C12.6571 18.3639 12.6011 18.2794 12.53 18.2085C12.459 18.1375 12.3745 18.0816 12.2814 18.0439C12.1883 18.0063 12.0887 17.9877 11.9883 17.9892C11.7895 17.9923 11.6002 18.0742 11.4617 18.2168C11.3233 18.3595 11.2472 18.5512 11.25 18.75V19.4619C10.9912 19.4363 10.7367 19.3987 10.4863 19.3476C7.30297 18.6985 4.86291 16.0416 4.53809 12.75H5.25C5.2751 12.7503 5.3002 12.7493 5.3252 12.747C5.51817 12.7296 5.69691 12.6382 5.82398 12.4919C5.95105 12.3457 6.01659 12.1559 6.00687 11.9624C5.99715 11.7689 5.91292 11.5866 5.77184 11.4538C5.63075 11.321 5.44375 11.248 5.25 11.25H4.53809C4.53869 11.2439 4.53845 11.2375 4.53906 11.2314C4.89727 7.6896 7.70565 4.88782 11.25 4.53806ZM12 9.49997C11.2292 9.49997 10.5561 9.81604 10.127 10.2988C9.69783 10.7816 9.5 11.3958 9.5 12C9.5 12.6041 9.69783 13.2184 10.127 13.7011C10.5561 14.1839 11.2292 14.5 12 14.5C12.7708 14.5 13.4439 14.1839 13.873 13.7011C14.3022 13.2184 14.5 12.6041 14.5 12C14.5 11.3958 14.3022 10.7816 13.873 10.2988C13.4439 9.81604 12.7708 9.49997 12 9.49997ZM12 11C12.3958 11 12.5977 11.1214 12.752 11.2949C12.9062 11.4684 13 11.7291 13 12C13 12.2708 12.9062 12.5316 12.752 12.705C12.5977 12.8785 12.3958 13 12 13C11.6042 13 11.4023 12.8785 11.248 12.705C11.0938 12.5316 11 12.2708 11 12C11 11.9323 11.0054 11.865 11.0166 11.7998C11.0502 11.604 11.1324 11.425 11.248 11.2949C11.4023 11.1214 11.6042 11 12 11Z" fill="#3A4445"/>
</svg>
