<svg width="24" height="24" viewBox="0 0 24 24" xmlns="http://www.w3.org/2000/svg">
<path d="M6.25 2C4.74 2 3.5 3.24 3.5 4.75V6.25C3.5 7.04 3.85453 7.745 4.39453 8.25C3.85453 8.755 3.5 9.46 3.5 10.25V11.75C3.5 12.54 3.85453 13.245 4.39453 13.75C3.85453 14.255 3.5 14.96 3.5 15.75V17.25C3.5 18.76 4.74 20 6.25 20H11.5C11.3 19.525 11.1602 19.025 11.0752 18.5H6.25C5.55 18.5 5 17.95 5 17.25V15.75C5 15.05 5.55 14.5 6.25 14.5H11.7354C12.0204 13.95 12.3854 13.445 12.8154 13H6.25C5.55 13 5 12.45 5 11.75V10.25C5 9.55 5.55 9 6.25 9H17.75C18.45 9 19 9.55 19 10.25V11.1748C19.53 11.2998 20.03 11.4904 20.5 11.7354V10.25C20.5 9.46 20.1455 8.755 19.6055 8.25C20.1455 7.745 20.5 7.04 20.5 6.25V4.75C20.5 3.24 19.26 2 17.75 2H6.25ZM6.25 3.5H17.75C18.45 3.5 19 4.05 19 4.75V6.25C19 6.95 18.45 7.5 17.75 7.5H6.25C5.55 7.5 5 6.95 5 6.25V4.75C5 4.05 5.55 3.5 6.25 3.5ZM17.5 12C14.4625 12 12 14.4625 12 17.5C12 20.5375 14.4625 23 17.5 23C20.5375 23 23 20.5375 23 17.5C23 14.4625 20.5375 12 17.5 12ZM15 14.5C15.2765 14.5 15.5 14.724 15.5 15V16.5C15.5 17.603 16.397 18.5 17.5 18.5H19.293L18.6465 17.8535C18.451 17.658 18.451 17.342 18.6465 17.1465C18.744 17.049 18.872 17 19 17C19.128 17 19.256 17.049 19.3535 17.1465L20.8535 18.6465C21.049 18.842 21.049 19.158 20.8535 19.3535L19.3535 20.8535C19.158 21.049 18.842 21.049 18.6465 20.8535C18.451 20.658 18.451 20.342 18.6465 20.1465L19.293 19.5H17.5C15.8455 19.5 14.5 18.1545 14.5 16.5V15C14.5 14.724 14.7235 14.5 15 14.5Z" />
</svg>
