<svg width="24" height="24" viewBox="0 0 24 24" xmlns="http://www.w3.org/2000/svg">
<path d="M6.25 2C5.01 2 4 3.01 4 4.25V19.75C4 20.99 5.01 22 6.25 22H17.75C18.9905 22 20 20.9905 20 19.75V9.25C20 9.0425 19.9159 8.85535 19.7803 8.71973L13.2803 2.21973C13.1446 2.0841 12.9575 2 12.75 2H6.25ZM6.25 3.5H12V7.75C12 8.99 13.01 10 14.25 10H18.5V19.75C18.5 20.1635 18.1635 20.5 17.75 20.5H6.25C5.835 20.5 5.5 20.165 5.5 19.75V4.25C5.5 3.835 5.835 3.5 6.25 3.5ZM13.5 4.56055L17.4395 8.5H14.25C13.835 8.5 13.5 8.165 13.5 7.75V4.56055ZM16 12.5C15.7459 12.5002 15.5015 12.5972 15.3163 12.7711C15.1311 12.9451 15.0191 13.183 15.0029 13.4365L13 15.4395L11.4971 13.9365C11.4809 13.683 11.3689 13.4451 11.1837 13.2711C10.9985 13.0972 10.7541 13.0002 10.5 13C10.2459 13.0002 10.0015 13.0972 9.81628 13.2711C9.63109 13.4451 9.51906 13.683 9.50293 13.9365L7.93652 15.5029C7.67963 15.5224 7.44016 15.6402 7.26802 15.8319C7.09589 16.0236 7.00438 16.2743 7.01256 16.5318C7.02075 16.7893 7.128 17.0337 7.31196 17.2141C7.49591 17.3945 7.74239 17.4969 8 17.5C8.25407 17.4998 8.49853 17.4028 8.68372 17.2289C8.86891 17.0549 8.98094 16.817 8.99707 16.5635L10.5 15.0605L12.0029 16.5635C12.0191 16.817 12.1311 17.0549 12.3163 17.2289C12.5015 17.4028 12.7459 17.4998 13 17.5C13.2541 17.4998 13.4985 17.4028 13.6837 17.2289C13.8689 17.0549 13.9809 16.817 13.9971 16.5635L16.0635 14.4971C16.3204 14.4776 16.5598 14.3598 16.732 14.1681C16.9041 13.9764 16.9956 13.7257 16.9874 13.4682C16.9793 13.2107 16.872 12.9663 16.688 12.7859C16.5041 12.6055 16.2576 12.5031 16 12.5Z"/>
</svg>
