<svg width="24" height="24" viewBox="0 0 24 24" fill="none" xmlns="http://www.w3.org/2000/svg">
<path d="M6.70312 2.0029C6.57177 2.00822 6.4403 2.01901 6.30859 2.03513C5.78177 2.09963 5.25425 2.24963 4.74707 2.47751C2.71836 3.38905 1 5.61302 1 8.79978C1.00001 8.93642 1.03735 9.07047 1.10799 9.18744C1.17862 9.30441 1.27987 9.39987 1.4008 9.4635C1.52172 9.52713 1.65773 9.55651 1.79414 9.54849C1.93055 9.54046 2.06218 9.49532 2.1748 9.41794C2.73504 9.0331 3.37534 9.09259 4.20801 9.32517C5.04067 9.55775 5.9115 9.99997 6.89355 9.99997C8.06066 9.99997 9.23719 9.51639 10.0537 8.62107C10.1239 8.54906 10.179 8.46365 10.2155 8.36994C10.2521 8.27622 10.2694 8.17611 10.2665 8.07557C10.2636 7.97502 10.2405 7.87608 10.1985 7.78465C10.1566 7.69322 10.0967 7.61115 10.0224 7.54334C9.94809 7.47553 9.86091 7.42336 9.76604 7.38992C9.67117 7.35649 9.57054 7.34248 9.47014 7.34873C9.36974 7.35498 9.27163 7.38136 9.18163 7.4263C9.09164 7.47124 9.0116 7.53382 8.94629 7.61033C8.44681 8.15801 7.62645 8.49997 6.89355 8.49997C6.47261 8.49997 5.59066 8.15438 4.61133 7.88083C4.01753 7.71497 3.33165 7.61665 2.64355 7.70798C2.97014 5.71683 4.09016 4.41727 5.3623 3.84568C6.11201 3.50882 6.89296 3.42391 7.54102 3.56833C7.71728 3.60761 7.85694 3.70214 8.0127 3.77244C6.2119 4.12556 5.18066 5.26169 5.18066 5.26169C5.11544 5.3363 5.06564 5.4231 5.03416 5.51706C5.00267 5.61103 4.99012 5.7103 4.99722 5.80915C5.00432 5.90799 5.03094 6.00445 5.07554 6.09295C5.12014 6.18144 5.18184 6.26023 5.25706 6.32474C5.33229 6.38926 5.41955 6.43822 5.51381 6.46882C5.60807 6.49941 5.70746 6.51102 5.80623 6.50298C5.905 6.49494 6.00121 6.4674 6.08928 6.42197C6.17735 6.37653 6.25554 6.31409 6.31934 6.23826C6.31934 6.23826 7.46647 4.80194 9.86621 5.23826C9.87983 5.24059 9.8935 5.24254 9.90723 5.24411C9.90723 5.24411 10.1244 5.24741 10.4697 5.59275C10.815 5.93807 11.25 6.64283 11.25 8.24997V12H6.25H5.25C5.15062 11.9986 5.05194 12.0169 4.95972 12.054C4.86749 12.0911 4.78355 12.1461 4.71277 12.2159C4.642 12.2856 4.58579 12.3688 4.54743 12.4605C4.50907 12.5522 4.48932 12.6506 4.48932 12.75C4.48932 12.8494 4.50907 12.9478 4.54743 13.0395C4.58579 13.1312 4.642 13.2143 4.71277 13.2841C4.78355 13.3539 4.86749 13.4089 4.95972 13.446C5.05194 13.483 5.15062 13.5014 5.25 13.5H5.5791L6.30664 20.0537C6.46063 21.4403 7.64486 22.5 9.04004 22.5H14.9609C16.356 22.5 17.5397 21.4397 17.6943 20.0537L18.4209 13.5H18.75C18.8494 13.5014 18.9481 13.483 19.0403 13.446C19.1325 13.4089 19.2164 13.3539 19.2872 13.2841C19.358 13.2143 19.4142 13.1312 19.4526 13.0395C19.4909 12.9478 19.5107 12.8494 19.5107 12.75C19.5107 12.6506 19.4909 12.5522 19.4526 12.4605C19.4142 12.3688 19.358 12.2856 19.2872 12.2159C19.2164 12.1461 19.1325 12.0911 19.0403 12.054C18.9481 12.0169 18.8494 11.9986 18.75 12H17.75H12.75V8.24997C12.75 6.64283 13.185 5.93807 13.5303 5.59275C13.8752 5.24786 14.0913 5.24412 14.0918 5.24411C14.0921 5.24412 14.0924 5.24412 14.0928 5.24411C14.1065 5.24254 14.1202 5.24059 14.1338 5.23826C16.5335 4.80194 17.6807 6.23826 17.6807 6.23826C17.7445 6.31409 17.8227 6.37653 17.9107 6.42197C17.9988 6.4674 18.095 6.49494 18.1938 6.50298C18.2925 6.51102 18.3919 6.49941 18.4862 6.46882C18.5805 6.43822 18.6677 6.38926 18.7429 6.32474C18.8182 6.26023 18.8799 6.18144 18.9245 6.09295C18.9691 6.00445 18.9957 5.90799 19.0028 5.80915C19.0099 5.7103 18.9973 5.61103 18.9658 5.51706C18.9344 5.4231 18.8846 5.3363 18.8193 5.26169C18.8193 5.26169 17.7881 4.12556 15.9873 3.77244C16.1431 3.70214 16.2827 3.60761 16.459 3.56833C17.107 3.42391 17.888 3.50882 18.6377 3.84568C19.9098 4.41727 21.0299 5.71683 21.3564 7.70798C20.6684 7.61665 19.9825 7.71497 19.3887 7.88083C18.4093 8.15438 17.5274 8.49997 17.1064 8.49997C16.3736 8.49997 15.5532 8.15801 15.0537 7.61033C14.9884 7.53382 14.9084 7.47124 14.8184 7.4263C14.7284 7.38136 14.6303 7.35498 14.5299 7.34873C14.4295 7.34248 14.3288 7.35649 14.234 7.38992C14.1391 7.42336 14.0519 7.47553 13.9776 7.54334C13.9033 7.61115 13.8434 7.69322 13.8015 7.78465C13.7595 7.87608 13.7364 7.97502 13.7335 8.07557C13.7306 8.17611 13.7479 8.27622 13.7845 8.36994C13.821 8.46365 13.8761 8.54906 13.9463 8.62107C14.7628 9.51639 15.9393 9.99997 17.1064 9.99997C18.0885 9.99997 18.9593 9.55775 19.792 9.32517C20.6247 9.09259 21.265 9.0331 21.8252 9.41794C21.9378 9.49532 22.0694 9.54046 22.2059 9.54848C22.3423 9.55651 22.4783 9.52713 22.5992 9.4635C22.7201 9.39987 22.8214 9.30441 22.892 9.18744C22.9626 9.07047 23 8.93642 23 8.79978C23 5.61302 21.2816 3.38905 19.2529 2.47751C18.2386 2.02175 17.143 1.87935 16.1328 2.10447C15.188 2.31503 14.3443 2.90378 13.7842 3.78122C13.7387 3.79397 13.6946 3.81097 13.6523 3.83201C13.6517 3.83233 13.651 3.83266 13.6504 3.83298C13.3899 3.90311 12.9469 4.055 12.4697 4.5322C12.29 4.71192 12.1564 5.03611 12 5.29783C11.8436 5.03611 11.71 4.71192 11.5303 4.5322C11.051 4.05295 10.6059 3.90137 10.3467 3.83201C10.3047 3.81103 10.2609 3.79402 10.2158 3.78122C9.65572 2.90378 8.81203 2.31503 7.86719 2.10447C7.48838 2.02005 7.09719 1.98695 6.70312 2.0029ZM7.08789 13.5H11.877C11.9575 13.5132 12.0396 13.5132 12.1201 13.5H16.9121L16.2031 19.8877C16.1318 20.5267 15.6038 21 14.9609 21H9.04004C8.39621 21 7.86886 20.5281 7.79785 19.8886C7.79785 19.8883 7.79785 19.888 7.79785 19.8877L7.08789 13.5Z" fill="#3A4445"/>
</svg>
