<svg width="24" height="24" viewBox="0 0 24 24" xmlns="http://www.w3.org/2000/svg">
<path d="M11.9999 1C11.7587 1.00033 11.5202 1.05052 11.2993 1.14743C11.0784 1.24433 10.8799 1.38586 10.7163 1.56312C10.5527 1.74038 10.4275 1.94955 10.3486 2.17749C10.2697 2.40543 10.2388 2.64723 10.2578 2.8877L4.74409 6.06152C4.45202 5.85916 4.10527 5.75051 3.74995 5.75C3.35265 5.75004 2.96718 5.88527 2.65694 6.13345C2.34669 6.38164 2.13013 6.72801 2.04286 7.1156C1.95559 7.5032 2.00281 7.90896 2.17675 8.26616C2.35069 8.62336 2.641 8.91074 2.99995 9.08105V14.9209C2.64211 15.0918 2.35294 15.3792 2.1798 15.736C2.00667 16.0928 1.95985 16.4978 2.047 16.8846C2.13416 17.2715 2.35013 17.6173 2.65952 17.8653C2.96891 18.1134 3.35339 18.249 3.74995 18.25C4.1056 18.2497 4.45272 18.141 4.74506 17.9385L10.2558 21.1113C10.2367 21.352 10.2676 21.5941 10.3465 21.8223C10.4255 22.0505 10.5508 22.2599 10.7147 22.4373C10.8785 22.6147 11.0772 22.7562 11.2984 22.8531C11.5196 22.9499 11.7585 23 11.9999 23C12.2412 22.9997 12.4797 22.9495 12.7006 22.8526C12.9215 22.7557 13.12 22.6141 13.2836 22.4369C13.4472 22.2596 13.5723 22.0505 13.6513 21.8225C13.7302 21.5946 13.7611 21.3528 13.7421 21.1123L19.2558 17.9385C19.5479 18.1408 19.8946 18.2495 20.2499 18.25C20.6472 18.25 21.0327 18.1147 21.343 17.8665C21.6532 17.6184 21.8698 17.272 21.957 16.8844C22.0443 16.4968 21.9971 16.091 21.8231 15.7338C21.6492 15.3766 21.3589 15.0893 20.9999 14.9189V9.0791C21.3578 8.90818 21.647 8.62079 21.8201 8.26402C21.9932 7.90725 22.04 7.50225 21.9529 7.11538C21.8657 6.72852 21.6498 6.38273 21.3404 6.13466C21.031 5.88659 20.6465 5.75097 20.2499 5.75C19.8943 5.75031 19.5472 5.85898 19.2548 6.06152L13.7441 2.88867C13.7632 2.64796 13.7323 2.4059 13.6534 2.1777C13.5744 1.94951 13.4491 1.74013 13.2852 1.56273C13.1214 1.38534 12.9227 1.24376 12.7015 1.14692C12.4803 1.05007 12.2414 1.00005 11.9999 1ZM11.0058 4.1875C11.2978 4.39021 11.6445 4.49921 11.9999 4.5C12.3559 4.49989 12.7034 4.39121 12.996 4.18848L18.5058 7.36133C18.4777 7.71496 18.5577 8.06879 18.7352 8.37591C18.9128 8.68304 19.1795 8.92895 19.4999 9.08105V14.9209C19.1803 15.0731 18.9144 15.3187 18.7372 15.6252C18.5601 15.9317 18.4801 16.2848 18.5078 16.6377L12.9941 19.8125C12.7021 19.6098 12.3554 19.5008 11.9999 19.5C11.644 19.5001 11.2965 19.6088 11.0039 19.8115L5.49409 16.6387C5.52221 16.285 5.4422 15.9312 5.26466 15.6241C5.08712 15.317 4.82043 15.0711 4.49995 14.9189V9.0791C4.81957 8.92688 5.08551 8.6813 5.26266 8.37479C5.4398 8.06827 5.51981 7.71524 5.49213 7.3623L11.0058 4.1875ZM11.9999 6.5C11.2291 6.5 10.556 6.81607 10.1269 7.29883C9.69778 7.78159 9.49995 8.39583 9.49995 9C9.49995 9.60417 9.69778 10.2184 10.1269 10.7012C10.556 11.1839 11.2291 11.5 11.9999 11.5C12.7708 11.5 13.4439 11.1839 13.873 10.7012C14.3021 10.2184 14.4999 9.60417 14.4999 9C14.4999 8.39583 14.3021 7.78159 13.873 7.29883C13.4439 6.81607 12.7708 6.5 11.9999 6.5ZM11.9999 8C12.3958 8 12.5977 8.12143 12.7519 8.29492C12.9061 8.46841 12.9999 8.72917 12.9999 9C12.9999 9.27083 12.9061 9.53159 12.7519 9.70508C12.5977 9.87857 12.3958 10 11.9999 10C11.6041 10 11.4022 9.87857 11.248 9.70508C11.0938 9.53159 10.9999 9.27083 10.9999 9C10.9999 8.72917 11.0938 8.46841 11.248 8.29492C11.4022 8.12143 11.6041 8 11.9999 8ZM9.74995 12.5C8.79247 12.5 7.99995 13.2925 7.99995 14.25V15C7.99995 15.8596 8.61829 16.5053 9.34663 16.8975C10.075 17.2896 10.9933 17.5 11.9999 17.5C13.0066 17.5 13.9249 17.2896 14.6533 16.8975C15.3816 16.5053 15.9999 15.8596 15.9999 15V14.25C15.9999 13.2925 15.2074 12.5 14.2499 12.5H9.74995ZM9.74995 14H14.2499C14.3975 14 14.4999 14.1025 14.4999 14.25V15C14.4999 15.1069 14.3902 15.336 13.9423 15.5771C13.4944 15.8183 12.7883 16 11.9999 16C11.2116 16 10.5055 15.8183 10.0576 15.5771C9.60965 15.336 9.49995 15.1069 9.49995 15V14.25C9.49995 14.1025 9.60242 14 9.74995 14Z" />
</svg>
