<svg width="16" height="16" viewBox="0 0 16 16" fill="none" xmlns="http://www.w3.org/2000/svg">
<path d="M6.83341 1.33334C6.06788 1.33334 5.43531 1.92222 5.35034 2.66668H4.16675C3.34425 2.66668 2.66675 3.34418 2.66675 4.16668V13.1667C2.66675 13.9892 3.34425 14.6667 4.16675 14.6667H11.8334C12.6559 14.6667 13.3334 13.9892 13.3334 13.1667V4.16668C13.3334 3.34418 12.6559 2.66668 11.8334 2.66668H10.6498C10.5648 1.92222 9.93228 1.33334 9.16675 1.33334H6.83341ZM6.83341 2.33334H9.16675C9.44891 2.33334 9.66675 2.55118 9.66675 2.83334C9.66675 3.11551 9.44891 3.33334 9.16675 3.33334H6.83341C6.55125 3.33334 6.33341 3.11551 6.33341 2.83334C6.33341 2.55118 6.55125 2.33334 6.83341 2.33334ZM4.16675 3.66668H5.58993C5.86049 4.06731 6.31832 4.33334 6.83341 4.33334H9.16675C9.68184 4.33334 10.1397 4.06731 10.4102 3.66668H11.8334C12.1156 3.66668 12.3334 3.88451 12.3334 4.16668V13.1667C12.3334 13.4488 12.1156 13.6667 11.8334 13.6667H4.16675C3.88458 13.6667 3.66675 13.4488 3.66675 13.1667V4.16668C3.66675 3.88451 3.88458 3.66668 4.16675 3.66668ZM10.8236 6.32879C10.6938 6.33257 10.5705 6.38674 10.4799 6.47983L9.50008 7.45965L9.18693 7.14649C9.14086 7.09851 9.08567 7.0602 9.02461 7.03381C8.96354 7.00742 8.89783 6.99347 8.83131 6.9928C8.76479 6.99212 8.6988 7.00472 8.63722 7.02987C8.57563 7.05501 8.51968 7.09219 8.47264 7.13923C8.4256 7.18627 8.38842 7.24222 8.36327 7.30381C8.33813 7.3654 8.32553 7.43139 8.3262 7.49791C8.32688 7.56442 8.34082 7.63014 8.36721 7.69121C8.3936 7.75227 8.43191 7.80745 8.4799 7.85353L9.14657 8.52019C9.24034 8.61393 9.3675 8.66658 9.50008 8.66658C9.63267 8.66658 9.75982 8.61393 9.8536 8.52019L11.1869 7.18686C11.2591 7.11661 11.3083 7.02622 11.3282 6.92751C11.3481 6.82881 11.3378 6.7264 11.2985 6.63368C11.2593 6.54095 11.1929 6.46224 11.1082 6.40784C11.0235 6.35344 10.9243 6.32589 10.8236 6.32879ZM5.16675 7.00001C5.10049 6.99907 5.03471 7.01131 4.97323 7.03602C4.91174 7.06073 4.85578 7.09741 4.8086 7.14393C4.76141 7.19045 4.72394 7.24589 4.69837 7.30702C4.6728 7.36815 4.65963 7.43375 4.65963 7.50001C4.65963 7.56627 4.6728 7.63188 4.69837 7.693C4.72394 7.75413 4.76141 7.80957 4.8086 7.85609C4.85578 7.90261 4.91174 7.93929 4.97323 7.964C5.03471 7.98871 5.10049 8.00095 5.16675 8.00001H7.16675C7.233 8.00095 7.29879 7.98871 7.36027 7.964C7.42175 7.93929 7.47771 7.90261 7.5249 7.85609C7.57208 7.80957 7.60955 7.75413 7.63513 7.693C7.6607 7.63188 7.67387 7.56627 7.67387 7.50001C7.67387 7.43375 7.6607 7.36815 7.63513 7.30702C7.60955 7.24589 7.57208 7.19045 7.5249 7.14393C7.47771 7.09741 7.42175 7.06073 7.36027 7.03602C7.29879 7.01131 7.233 6.99907 7.16675 7.00001H5.16675ZM10.8236 9.16212C10.6938 9.1659 10.5705 9.22007 10.4799 9.31316L9.50008 10.293L9.18693 9.97983C9.14086 9.93184 9.08567 9.89353 9.02461 9.86714C8.96354 9.84075 8.89783 9.82681 8.83131 9.82613C8.76479 9.82545 8.6988 9.83806 8.63722 9.8632C8.57563 9.88835 8.51968 9.92553 8.47264 9.97257C8.4256 10.0196 8.38842 10.0756 8.36327 10.1371C8.33813 10.1987 8.32553 10.2647 8.3262 10.3312C8.32688 10.3978 8.34082 10.4635 8.36721 10.5245C8.3936 10.5856 8.43191 10.6408 8.4799 10.6869L9.14657 11.3535C9.24034 11.4473 9.3675 11.4999 9.50008 11.4999C9.63267 11.4999 9.75982 11.4473 9.8536 11.3535L11.1869 10.0202C11.2591 9.94994 11.3083 9.85955 11.3282 9.76085C11.3481 9.66215 11.3378 9.55973 11.2985 9.46701C11.2593 9.37429 11.1929 9.29557 11.1082 9.24117C11.0235 9.18677 10.9243 9.15922 10.8236 9.16212ZM5.16675 10C5.10049 9.99907 5.03471 10.0113 4.97323 10.036C4.91174 10.0607 4.85578 10.0974 4.8086 10.1439C4.76141 10.1905 4.72394 10.2459 4.69837 10.307C4.6728 10.3681 4.65963 10.4337 4.65963 10.5C4.65963 10.5663 4.6728 10.6319 4.69837 10.693C4.72394 10.7541 4.76141 10.8096 4.8086 10.8561C4.85578 10.9026 4.91174 10.9393 4.97323 10.964C5.03471 10.9887 5.10049 11.0009 5.16675 11H7.16675C7.233 11.0009 7.29879 10.9887 7.36027 10.964C7.42175 10.9393 7.47771 10.9026 7.5249 10.8561C7.57208 10.8096 7.60955 10.7541 7.63513 10.693C7.6607 10.6319 7.67387 10.5663 7.67387 10.5C7.67387 10.4337 7.6607 10.3681 7.63513 10.307C7.60955 10.2459 7.57208 10.1905 7.5249 10.1439C7.47771 10.0974 7.42175 10.0607 7.36027 10.036C7.29879 10.0113 7.233 9.99907 7.16675 10H5.16675Z" fill="#7F775B"/>
</svg>
