<svg width="24" height="24" viewBox="0 0 24 24" fill="none" xmlns="http://www.w3.org/2000/svg">
<path d="M18 2.50488C17.1026 2.50488 16.2054 2.84507 15.5254 3.52539L4.458 14.5918C4.24802 14.8018 4.09423 15.0629 4.01269 15.3496L2.52929 20.5439C2.49271 20.6725 2.49113 20.8084 2.52472 20.9378C2.5583 21.0671 2.62584 21.1852 2.72033 21.2797C2.81483 21.3742 2.93285 21.4417 3.0622 21.4753C3.19155 21.5089 3.32752 21.5073 3.45605 21.4707L8.65136 19.9873C8.65169 19.987 8.65202 19.9867 8.65234 19.9863C8.9371 19.9045 9.1976 19.7526 9.4082 19.542L20.4746 8.47461C21.8352 7.11405 21.8352 4.88595 20.4746 3.52539C19.7946 2.84507 18.8973 2.50488 18 2.50488ZM18 3.99609C18.5104 3.99609 19.0201 4.19276 19.4131 4.58594C19.4134 4.58594 19.4137 4.58594 19.4141 4.58594C20.2015 5.37337 20.2015 6.62663 19.4141 7.41406L18.4443 8.38379L15.6162 5.55566L16.5859 4.58594C16.9789 4.19276 17.4896 3.99609 18 3.99609ZM14.5557 6.61621L17.3838 9.44434L8.34668 18.4814C8.31736 18.5106 8.28023 18.5329 8.23828 18.5449L4.34179 19.6582L5.45508 15.7607C5.45508 15.7604 5.45508 15.7601 5.45508 15.7598C5.46654 15.7195 5.48754 15.6834 5.51855 15.6523L14.5557 6.61621Z" fill="#3A4445"/>
</svg>
