<svg width="24" height="24" viewBox="0 0 24 24" xmlns="http://www.w3.org/2000/svg">
<path d="M7.19732 3C5.9933 3 4.92316 3.79029 4.5694 4.94141L3.60065 8.08887C3.16201 9.51564 4.25848 11 5.75104 11H16.8028C18.0065 11 19.0773 10.2096 19.4307 9.05859V9.05762L20.3985 5.91211V5.91113C20.8371 4.4844 19.7407 3 18.2481 3H7.19732ZM7.19732 4.5H18.2481C18.7732 4.5 19.1195 4.96878 18.9649 5.4707L17.9962 8.61816C17.8343 9.14571 17.3548 9.5 16.8028 9.5H5.75104C5.22593 9.5 4.87968 9.03122 5.03424 8.5293L6.00299 5.38281C6.16522 4.85493 6.64535 4.5 7.19732 4.5ZM20.3497 9.44727C20.0452 10.3478 19.4316 11.0687 18.6456 11.5117L17.9971 13.6172C17.8346 14.1452 17.3553 14.5 16.8028 14.5H5.75104C5.51054 14.5 5.29052 14.3888 5.14752 14.1953C5.00452 14.0018 4.96324 13.7593 5.03424 13.5293L5.50885 11.9854C4.99385 11.9479 4.50768 11.7932 4.07818 11.5342L3.60065 13.0879C3.38865 13.7774 3.51297 14.5054 3.94147 15.0859C4.36997 15.6669 5.02954 16 5.75104 16H16.8028C18.0178 16 19.0742 15.2201 19.4317 14.0586L20.4004 10.9121C20.5514 10.4206 20.5282 9.91027 20.3497 9.44727ZM20.3497 14.4473C20.0452 15.3478 19.4316 16.0687 18.6456 16.5117L17.9971 18.6172C17.8346 19.1452 17.3553 19.5 16.8028 19.5H5.75104C5.51054 19.5 5.29052 19.3888 5.14752 19.1953C5.00452 19.0018 4.96324 18.7593 5.03424 18.5293L5.50885 16.9854C4.99385 16.9479 4.50768 16.7932 4.07818 16.5342L3.60065 18.0879C3.38865 18.7774 3.51297 19.5054 3.94147 20.0859C4.36997 20.6669 5.02954 21 5.75104 21H16.8028C18.0178 21 19.0742 20.2201 19.4317 19.0586L20.4004 15.9121C20.5514 15.4206 20.5282 14.9103 20.3497 14.4473Z"/>
</svg>
