<svg width="24" height="24" viewBox="0 0 24 24" xmlns="http://www.w3.org/2000/svg">
<path d="M12.7275 3.00002C12.5326 3.00588 12.3475 3.08748 12.2117 3.2275C12.0759 3.36752 11.9999 3.55494 12 3.75002V7.00002H5.25C3.74011 7.00002 2.5 8.24013 2.5 9.75002V14.25C2.5 15.7599 3.74011 17 5.25 17H12V20.25C12 20.3974 12.0435 20.5415 12.1249 20.6643C12.2064 20.7872 12.3222 20.8833 12.4579 20.9407C12.5937 20.9981 12.7433 21.0142 12.8882 20.9871C13.033 20.96 13.1667 20.8907 13.2725 20.7881L21.7725 12.5381C21.8444 12.4682 21.9017 12.3845 21.9408 12.2921C21.9798 12.1997 22 12.1004 22 12C22 11.8997 21.9798 11.8003 21.9408 11.7079C21.9017 11.6155 21.8444 11.5318 21.7725 11.4619L13.2725 3.21193C13.2004 3.14193 13.1151 3.0871 13.0215 3.0507C12.9279 3.01429 12.8279 2.99706 12.7275 3.00002ZM13.5 5.52346L20.1729 12L13.5 18.4766V16.25C13.5 16.0511 13.421 15.8604 13.2803 15.7197C13.1397 15.5791 12.9489 15.5 12.75 15.5H5.25C4.55089 15.5 4 14.9491 4 14.25V9.75002C4 9.05091 4.55089 8.50002 5.25 8.50002H12.75C12.9489 8.5 13.1397 8.42098 13.2803 8.28033C13.421 8.13968 13.5 7.94893 13.5 7.75002V5.52346ZM12.7354 9.49318C12.5406 9.49886 12.3556 9.58012 12.2197 9.71975L9.25 12.6895L8.03027 11.4697C7.96116 11.3978 7.87839 11.3403 7.78679 11.3007C7.6952 11.2611 7.59662 11.2402 7.49684 11.2392C7.39706 11.2382 7.29808 11.2571 7.2057 11.2948C7.11332 11.3325 7.02939 11.3883 6.95883 11.4589C6.88828 11.5294 6.83251 11.6133 6.79479 11.7057C6.75707 11.7981 6.73817 11.8971 6.73918 11.9969C6.7402 12.0966 6.76111 12.1952 6.8007 12.2868C6.84028 12.3784 6.89775 12.4612 6.96973 12.5303L8.71973 14.2803C8.86038 14.4209 9.05112 14.4999 9.25 14.4999C9.44888 14.4999 9.63962 14.4209 9.78027 14.2803L13.2803 10.7803C13.3885 10.6749 13.4623 10.5393 13.4922 10.3913C13.5221 10.2432 13.5066 10.0896 13.4477 9.95052C13.3888 9.81143 13.2893 9.69337 13.1622 9.61177C13.0351 9.53017 12.8863 9.48884 12.7354 9.49318Z"/>
</svg>
