<svg width="24" height="24" viewBox="0 0 24 24" xmlns="http://www.w3.org/2000/svg">
<path d="M6.25 2C5.01625 2 4 3.01625 4 4.25V19.75C4 20.9838 5.01625 22 6.25 22H17.75C18.9838 22 20 20.9838 20 19.75V9.25C20 9.0511 19.9209 8.86036 19.7803 8.71973L19.7725 8.71191L13.2803 2.21973C13.1396 2.07907 12.9489 2.00004 12.75 2H6.25ZM6.25 3.5H12V7.75C12 8.98375 13.0162 10 14.25 10H18.5V19.75C18.5 20.1733 18.1732 20.5 17.75 20.5H6.25C5.82675 20.5 5.5 20.1733 5.5 19.75V4.25C5.5 3.82675 5.82675 3.5 6.25 3.5ZM13.5 4.56055L17.4395 8.5H14.25C13.8268 8.5 13.5 8.17325 13.5 7.75V4.56055ZM11.9883 10.9893C11.7895 10.9924 11.6002 11.0742 11.4617 11.2169C11.3233 11.3595 11.2471 11.5513 11.25 11.75V14.9395L10.5303 14.2197C10.4612 14.1477 10.3784 14.0903 10.2868 14.0507C10.1952 14.0111 10.0966 13.9902 9.99684 13.9892C9.89706 13.9882 9.79808 14.0071 9.7057 14.0448C9.61332 14.0825 9.52939 14.1383 9.45883 14.2088C9.38828 14.2794 9.33251 14.3633 9.29479 14.4557C9.25707 14.5481 9.23817 14.6471 9.23918 14.7468C9.24019 14.8466 9.26111 14.9452 9.3007 15.0368C9.34028 15.1284 9.39775 15.2112 9.46973 15.2803L11.4697 17.2803C11.5406 17.3512 11.625 17.4072 11.718 17.4449C11.8109 17.4827 11.9105 17.5014 12.0107 17.5C12.2059 17.4971 12.3923 17.4183 12.5303 17.2803L14.5303 15.2803C14.6023 15.2112 14.6597 15.1284 14.6993 15.0368C14.7389 14.9452 14.7598 14.8466 14.7608 14.7468C14.7618 14.6471 14.7429 14.5481 14.7052 14.4557C14.6675 14.3633 14.6117 14.2794 14.5412 14.2088C14.4706 14.1383 14.3867 14.0825 14.2943 14.0448C14.2019 14.0071 14.1029 13.9882 14.0032 13.9892C13.9034 13.9902 13.8048 14.0111 13.7132 14.0507C13.6216 14.0903 13.5388 14.1477 13.4697 14.2197L12.75 14.9395V11.75C12.7514 11.6496 12.7327 11.55 12.6949 11.457C12.6571 11.3639 12.6011 11.2795 12.53 11.2085C12.459 11.1376 12.3745 11.0816 12.2814 11.044C12.1883 11.0063 12.0887 10.9877 11.9883 10.9893ZM12.0107 17.5H8.75C8.65062 17.4986 8.55194 17.517 8.45972 17.554C8.36749 17.5911 8.28355 17.6461 8.21277 17.7159C8.142 17.7857 8.08579 17.8688 8.04743 17.9605C8.00907 18.0522 7.98932 18.1506 7.98932 18.25C7.98932 18.3494 8.00907 18.4478 8.04743 18.5395C8.08579 18.6312 8.142 18.7143 8.21277 18.7841C8.28355 18.8539 8.36749 18.9089 8.45972 18.946C8.55194 18.983 8.65062 19.0014 8.75 19H15.25C15.3494 19.0014 15.4481 18.983 15.5403 18.946C15.6325 18.9089 15.7164 18.8539 15.7872 18.7841C15.858 18.7143 15.9142 18.6312 15.9526 18.5395C15.9909 18.4478 16.0107 18.3494 16.0107 18.25C16.0107 18.1506 15.9909 18.0522 15.9526 17.9605C15.9142 17.8688 15.858 17.7857 15.7872 17.7159C15.7164 17.6461 15.6325 17.5911 15.5403 17.554C15.4481 17.517 15.3494 17.4986 15.25 17.5H12.0107Z"/>
</svg>
