<svg width="24" height="24" viewBox="0 0 24 24" xmlns="http://www.w3.org/2000/svg">
<path fill-rule="evenodd" clip-rule="evenodd" d="M15.6 3.15L19.95 7.85C20.6 8.55 21 9.6 21 10.7V19.75C21 20.75 20.35 21.5 19.5 21.5H9H4.4C3.6 21.5 3 20.75 3 19.75V10.7C3 9.6 3.35 8.55 3.9 7.85L7.85 3.15C8.2 2.75 8.7 2.5 9.2 2.5H14.2V2.55C14.7 2.55 15.2 2.75 15.6 3.15ZM9.05 4.15C9.1 4.05 9.2 4 9.25 4H12.05L9.05 7.25L8.5 7.85C8 8.4 7.65 9.15 7.55 9.95H4.6C4.7 9.5 4.85 9.1 5.1 8.85L6.4 7.25L9.05 4.15ZM18.9 8.85L14.55 4.15C14.5 4.1 14.4 4 14.25 4C14.1 4 14 4.1 13.95 4.15L9.65 8.85C9.4 9.15 9.2 9.5 9.1 9.95H19.45C19.35 9.5 19.15 9.15 18.9 8.85ZM19.5 11.45V17.25H9V11.45H19.5ZM7.5 17.25V11.45H4.5V17.25H7.5ZM9.05 20C9 19.95 9 19.85 9 19.75V18.75H19.5V19.75C19.5 19.8086 19.4828 19.8672 19.4686 19.9157C19.4586 19.95 19.45 19.9793 19.45 20H9.05ZM4.5 18.75V19.75C4.5 19.85 4.5 19.95 4.55 20H7.5V19.75V18.75H4.5Z"/>
</svg>
