<svg width="200" height="128" viewBox="0 0 200 128" fill="none" xmlns="http://www.w3.org/2000/svg">
<g clip-path="url(#clip0_1311_258)">
<path fill-rule="evenodd" clip-rule="evenodd" d="M85.9569 4.23106C113.868 1.90406 141.807 17.2993 150.836 43.8116C160.221 71.3709 149.404 102.782 124.843 118.413C103.674 131.886 77.7228 118.784 58.6422 102.487C44.2734 90.2154 42.5134 70.6266 47.5745 52.4208C53.6554 30.5465 63.3316 6.1174 85.9569 4.23106Z" fill="#E2F6EC"/>
<path fill-rule="evenodd" clip-rule="evenodd" d="M85.9569 4.23106C113.868 1.90406 141.807 17.2993 150.836 43.8116C160.221 71.3709 149.404 102.782 124.843 118.413C103.674 131.886 77.7228 118.784 58.6422 102.487C44.2734 90.2154 42.5134 70.6266 47.5745 52.4208C53.6554 30.5465 63.3316 6.1174 85.9569 4.23106Z" fill="url(#paint0_linear_1311_258)" fill-opacity="0.2"/>
<path d="M144.999 66.4489C144.992 66.4489 144.986 66.449 144.98 66.449C142.23 66.449 139.998 63.1186 139.98 59C139.962 63.1091 137.741 66.4336 135 66.4489C135 66.4489 135 66.4489 135 66.4489C137.741 66.4642 139.962 69.7889 139.98 73.8979C139.998 69.7794 142.23 66.449 144.98 66.449C144.986 66.449 144.992 66.4489 144.999 66.4489C144.999 66.4489 144.999 66.4489 144.999 66.4489Z" fill="url(#paint1_linear_1311_258)"/>
<path d="M70.9987 23.4489C70.9923 23.4489 70.9859 23.449 70.9795 23.449C68.2296 23.449 65.9982 20.1186 65.9803 16C65.9623 20.1091 63.7412 23.4336 61 23.4489C61 23.4489 61 23.4489 61 23.4489C63.7412 23.4642 65.9623 26.7889 65.9803 30.8979C65.9982 26.7794 68.2296 23.449 70.9795 23.449C70.9859 23.449 70.9923 23.4489 70.9987 23.4489C70.9987 23.4489 70.9987 23.4489 70.9987 23.4489Z" fill="url(#paint2_linear_1311_258)"/>
<path d="M64.9987 103.449C64.9923 103.449 64.9859 103.449 64.9795 103.449C62.2296 103.449 59.9982 100.119 59.9803 96C59.9623 100.109 57.7412 103.434 55 103.449C55 103.449 55 103.449 55 103.449C57.7412 103.464 59.9623 106.789 59.9803 110.898C59.9982 106.779 62.2296 103.449 64.9795 103.449C64.9859 103.449 64.9923 103.449 64.9987 103.449C64.9987 103.449 64.9987 103.449 64.9987 103.449Z" fill="url(#paint3_linear_1311_258)"/>
<mask id="mask0_1311_258" style="mask-type:alpha" maskUnits="userSpaceOnUse" x="0" y="0" width="200" height="128">
<path fill-rule="evenodd" clip-rule="evenodd" d="M85.9569 4.23106C113.868 1.90406 141.807 17.2993 150.836 43.8116C160.221 71.3709 149.404 102.782 124.843 118.413C103.674 131.886 77.7228 118.784 58.6422 102.487C44.2734 90.2154 42.5134 70.6266 47.5745 52.4208C53.6554 30.5465 63.3316 6.1174 85.9569 4.23106Z" fill="#E2F6EC"/>
<path fill-rule="evenodd" clip-rule="evenodd" d="M85.9569 4.23106C113.868 1.90406 141.807 17.2993 150.836 43.8116C160.221 71.3709 149.404 102.782 124.843 118.413C103.674 131.886 77.7228 118.784 58.6422 102.487C44.2734 90.2154 42.5134 70.6266 47.5745 52.4208C53.6554 30.5465 63.3316 6.1174 85.9569 4.23106Z" fill="url(#paint4_linear_1311_258)" fill-opacity="0.2"/>
</mask>
<g mask="url(#mask0_1311_258)">
<path opacity="0.25" d="M126.786 122.661L154.354 89.1402L120.247 55.0329L114.601 54.6873L97.4505 37.5365L79.9897 51.957L88.1142 60.0815V83.989L126.786 122.661Z" fill="url(#paint5_linear_1311_258)"/>
</g>
<path d="M78.6667 40.6667C78.6667 38.1134 80.7801 36 83.3334 36H94.0001C96.5534 36 98.6667 38.1134 98.6667 40.6667V48.6667C98.6667 51.2199 96.5534 53.3333 94.0001 53.3333H90.6667V60H101.333V58C101.333 55.4467 103.447 53.3333 106 53.3333H116.667C119.22 53.3333 121.333 55.4467 121.333 58V66C121.333 68.5533 119.22 70.6667 116.667 70.6667H106C103.447 70.6667 101.333 68.5533 101.333 66V64H90.6667V80.6667C90.6667 81.0601 90.94 81.3333 91.3334 81.3333H101.333V79.3333C101.333 76.7801 103.447 74.6667 106 74.6667H116.667C119.22 74.6667 121.333 76.7801 121.333 79.3333V87.3333C121.333 89.8866 119.22 92 116.667 92H106C103.447 92 101.333 89.8866 101.333 87.3333V85.3333H91.3334C88.7801 85.3333 86.6667 83.2199 86.6667 80.6667V53.3333H83.3334C80.7801 53.3333 78.6667 51.2199 78.6667 48.6667V40.6667Z" fill="#EAF3DC"/>
<path d="M83.3334 36C80.7801 36 78.6667 38.1134 78.6667 40.6667V48.6667C78.6667 51.2199 80.7801 53.3333 83.3334 53.3333H86.6667V80.6667C86.6667 83.2199 88.7801 85.3333 91.3334 85.3333H101.333V87.3333C101.333 89.8866 103.447 92 106 92H116.667C119.22 92 121.333 89.8866 121.333 87.3333V79.3333C121.333 76.7801 119.22 74.6667 116.667 74.6667H106C103.447 74.6667 101.333 76.7801 101.333 79.3333V81.3333H91.3334C90.94 81.3333 90.6667 81.0601 90.6667 80.6667V64H101.333V66C101.333 68.5533 103.447 70.6667 106 70.6667H116.667C119.22 70.6667 121.333 68.5533 121.333 66V58C121.333 55.4467 119.22 53.3333 116.667 53.3333H106C103.447 53.3333 101.333 55.4467 101.333 58V60H90.6667V53.3333H94.0001C96.5534 53.3333 98.6667 51.2199 98.6667 48.6667V40.6667C98.6667 38.1134 96.5534 36 94.0001 36H83.3334ZM83.3334 40H94.0001C94.3935 40 94.6667 40.2733 94.6667 40.6667V48.6667C94.6667 49.0601 94.3935 49.3333 94.0001 49.3333H88.9949C88.7802 49.2981 88.5611 49.2981 88.3464 49.3333H83.3334C82.94 49.3333 82.6667 49.0601 82.6667 48.6667V40.6667C82.6667 40.2733 82.94 40 83.3334 40ZM106 57.3333H116.667C117.06 57.3333 117.333 57.6066 117.333 58V66C117.333 66.3934 117.06 66.6667 116.667 66.6667H106C105.607 66.6667 105.333 66.3934 105.333 66V62.3281C105.369 62.1134 105.369 61.8944 105.333 61.6797V58C105.333 57.6066 105.607 57.3333 106 57.3333ZM106 78.6667H116.667C117.06 78.6667 117.333 78.9399 117.333 79.3333V87.3333C117.333 87.7267 117.06 88 116.667 88H106C105.607 88 105.333 87.7267 105.333 87.3333V83.6615C105.369 83.4468 105.369 83.2277 105.333 83.013V79.3333C105.333 78.9399 105.607 78.6667 106 78.6667Z" fill="#2C8658"/>
</g>
<defs>
<linearGradient id="paint0_linear_1311_258" x1="139.5" y1="110" x2="52.3539" y2="24.1559" gradientUnits="userSpaceOnUse">
<stop stop-color="#F1F0EC"/>
<stop offset="1" stop-color="#84D6AC"/>
</linearGradient>
<linearGradient id="paint1_linear_1311_258" x1="135" y1="59" x2="145" y2="74" gradientUnits="userSpaceOnUse">
<stop stop-color="#2C8658"/>
<stop offset="1" stop-color="#ACD278"/>
</linearGradient>
<linearGradient id="paint2_linear_1311_258" x1="61" y1="16" x2="71" y2="31" gradientUnits="userSpaceOnUse">
<stop stop-color="#2C8658"/>
<stop offset="1" stop-color="#ACD278"/>
</linearGradient>
<linearGradient id="paint3_linear_1311_258" x1="55" y1="96" x2="65" y2="111" gradientUnits="userSpaceOnUse">
<stop stop-color="#2C8658"/>
<stop offset="1" stop-color="#ACD278"/>
</linearGradient>
<linearGradient id="paint4_linear_1311_258" x1="139.5" y1="110" x2="52.3539" y2="24.1559" gradientUnits="userSpaceOnUse">
<stop stop-color="#F1F0EC"/>
<stop offset="1" stop-color="#84D6AC"/>
</linearGradient>
<linearGradient id="paint5_linear_1311_258" x1="79.6421" y1="54" x2="145.224" y2="99.9702" gradientUnits="userSpaceOnUse">
<stop stop-color="#2C8658"/>
<stop offset="1" stop-color="#ACD278"/>
</linearGradient>
<clipPath id="clip0_1311_258">
<rect width="200" height="128" fill="white"/>
</clipPath>
</defs>
</svg>
