<svg width="140" height="30" viewBox="0 0 140 30" fill="none" xmlns="http://www.w3.org/2000/svg">
<path d="M26.25 1.82396V0.274414H34.6957V1.82396H31.4239V10.4785H29.5218V1.82396H26.25Z" fill="#2C8658"/>
<path d="M38.6046 10.628C37.8086 10.628 37.1211 10.4685 36.5422 10.1497C35.9668 9.82745 35.524 9.37239 35.2139 8.78446C34.9037 8.19321 34.7487 7.49732 34.7487 6.69681C34.7487 5.90958 34.9037 5.21868 35.2139 4.6241C35.5274 4.02621 35.9651 3.56118 36.5267 3.22901C37.0884 2.89353 37.7483 2.72579 38.5063 2.72579C38.9957 2.72579 39.4574 2.80218 39.8916 2.95498C40.3292 3.10445 40.7151 3.33697 41.0494 3.65252C41.3871 3.96808 41.6524 4.37 41.8453 4.85828C42.0383 5.34324 42.1348 5.9212 42.1348 6.59218V7.14523H35.6274V5.92951H40.3412C40.3378 5.58406 40.2603 5.27681 40.1087 5.00775C39.957 4.73538 39.7451 4.52113 39.4729 4.36501C39.2041 4.2089 38.8906 4.13084 38.5322 4.13084C38.1497 4.13084 37.8137 4.22052 37.5243 4.39989C37.2348 4.57594 37.0091 4.80845 36.8472 5.09744C36.6887 5.3831 36.6077 5.69699 36.6043 6.03912V7.10039C36.6043 7.54549 36.6887 7.92748 36.8575 8.24635C37.0264 8.56191 37.2624 8.80439 37.5656 8.97379C37.8689 9.13987 38.2238 9.22291 38.6304 9.22291C38.9026 9.22291 39.149 9.18638 39.3695 9.1133C39.5901 9.0369 39.7813 8.92563 39.9433 8.77948C40.1052 8.63332 40.2275 8.45229 40.3102 8.23639L42.0573 8.42572C41.947 8.87082 41.7368 9.25945 41.4267 9.59162C41.12 9.92046 40.7272 10.1762 40.2482 10.3589C39.7692 10.5383 39.2214 10.628 38.6046 10.628Z" fill="#2C8658"/>
<path d="M43.7177 10.4785V2.82543H45.5319V4.10094H45.6146C45.7594 3.65917 46.0075 3.3187 46.3589 3.07954C46.7139 2.83706 47.1187 2.71582 47.5736 2.71582C47.677 2.71582 47.7924 2.7208 47.9199 2.73077C48.0508 2.73741 48.1594 2.74904 48.2455 2.76564V4.4248C48.1663 4.39823 48.0405 4.37498 47.8682 4.35505C47.6994 4.3318 47.5357 4.32017 47.3772 4.32017C47.036 4.32017 46.7294 4.39159 46.4571 4.53442C46.1884 4.67393 45.9765 4.86824 45.8214 5.11737C45.6663 5.36649 45.5888 5.65381 45.5888 5.97933V10.4785H43.7177Z" fill="#2C8658"/>
<path d="M49.4886 10.4785V2.82543H51.3028V4.10094H51.3855C51.5303 3.65917 51.7784 3.3187 52.1298 3.07954C52.4847 2.83706 52.8896 2.71582 53.3445 2.71582C53.4479 2.71582 53.5633 2.7208 53.6908 2.73077C53.8217 2.73741 53.9303 2.74904 54.0164 2.76564V4.4248C53.9372 4.39823 53.8114 4.37498 53.6391 4.35505C53.4703 4.3318 53.3066 4.32017 53.1481 4.32017C52.8069 4.32017 52.5003 4.39159 52.228 4.53442C51.9593 4.67393 51.7473 4.86824 51.5923 5.11737C51.4372 5.36649 51.3597 5.65381 51.3597 5.97933V10.4785H49.4886Z" fill="#2C8658"/>
<path d="M57.4019 10.633C56.8988 10.633 56.4457 10.5466 56.0426 10.3739C55.6428 10.1978 55.3258 9.93873 55.0915 9.5966C54.8606 9.25447 54.7452 8.83262 54.7452 8.33105C54.7452 7.89924 54.8279 7.54217 54.9933 7.25983C55.1587 6.97749 55.3844 6.75161 55.6704 6.58221C55.9564 6.41281 56.2786 6.28492 56.637 6.19856C56.9988 6.10888 57.3726 6.0441 57.7586 6.00425C58.2238 5.95774 58.6011 5.91622 58.8905 5.87968C59.18 5.83982 59.3902 5.78003 59.5211 5.70031C59.6555 5.61727 59.7227 5.48939 59.7227 5.31667V5.28677C59.7227 4.91143 59.6073 4.62078 59.3764 4.41484C59.1455 4.2089 58.813 4.10593 58.3788 4.10593C57.9205 4.10593 57.557 4.20225 57.2882 4.39491C57.0229 4.58756 56.8437 4.8151 56.7507 5.07751L55.0036 4.83835C55.1415 4.37332 55.3689 3.98469 55.6859 3.67245C56.0029 3.3569 56.3906 3.12106 56.8489 2.96494C57.3072 2.8055 57.8137 2.72579 58.3685 2.72579C58.751 2.72579 59.1317 2.76897 59.5108 2.85533C59.8898 2.94169 60.2361 3.08452 60.5497 3.28382C60.8633 3.4798 61.1148 3.74719 61.3043 4.086C61.4973 4.4248 61.5938 4.84831 61.5938 5.35652V10.4785H59.7951V9.4272H59.733C59.6193 9.63978 59.4591 9.83908 59.2523 10.0251C59.049 10.2078 58.7923 10.3556 58.4822 10.4685C58.1755 10.5781 57.8154 10.633 57.4019 10.633ZM57.8878 9.30762C58.2634 9.30762 58.589 9.2362 58.8647 9.09337C59.1403 8.94722 59.3523 8.75456 59.5004 8.51541C59.6521 8.27625 59.7279 8.0155 59.7279 7.73316V6.83133C59.6693 6.87784 59.5694 6.92102 59.4281 6.96088C59.2902 7.00074 59.1352 7.03561 58.9629 7.06551C58.7906 7.0954 58.62 7.12198 58.4512 7.14523C58.2823 7.16848 58.1359 7.18841 58.0118 7.20502C57.7327 7.24156 57.4829 7.30135 57.2624 7.38439C57.0418 7.46743 56.8678 7.58369 56.7403 7.73316C56.6128 7.87931 56.5491 8.06864 56.5491 8.30116C56.5491 8.63332 56.6749 8.88411 56.9264 9.05351C57.178 9.22292 57.4984 9.30762 57.8878 9.30762Z" fill="#2C8658"/>
<path d="M65.1137 10.4785L62.8704 2.82543H64.7777L66.1733 8.20649H66.2456L67.6722 2.82543H69.5588L70.9854 8.1766H71.0629L72.4378 2.82543H74.3502L72.1018 10.4785H70.1532L68.6646 5.3067H68.5561L67.0675 10.4785H65.1137Z" fill="#2C8658"/>
<path d="M77.9412 10.633C77.4381 10.633 76.985 10.5466 76.5818 10.3739C76.1821 10.1978 75.8651 9.93873 75.6307 9.5966C75.3999 9.25447 75.2844 8.83262 75.2844 8.33105C75.2844 7.89924 75.3671 7.54217 75.5325 7.25983C75.6979 6.97749 75.9236 6.75161 76.2096 6.58221C76.4957 6.41281 76.8178 6.28492 77.1762 6.19856C77.538 6.10888 77.9119 6.0441 78.2978 6.00425C78.763 5.95774 79.1403 5.91622 79.4298 5.87968C79.7192 5.83982 79.9294 5.78003 80.0604 5.70031C80.1947 5.61727 80.2619 5.48939 80.2619 5.31667V5.28677C80.2619 4.91143 80.1465 4.62078 79.9156 4.41484C79.6848 4.2089 79.3522 4.10593 78.9181 4.10593C78.4598 4.10593 78.0962 4.20225 77.8275 4.39491C77.5621 4.58756 77.383 4.8151 77.2899 5.07751L75.5429 4.83835C75.6807 4.37332 75.9081 3.98469 76.2252 3.67245C76.5422 3.3569 76.9298 3.12106 77.3881 2.96494C77.8464 2.8055 78.3529 2.72579 78.9077 2.72579C79.2902 2.72579 79.671 2.76897 80.05 2.85533C80.4291 2.94169 80.7754 3.08452 81.0889 3.28382C81.4025 3.4798 81.654 3.74719 81.8436 4.086C82.0365 4.4248 82.133 4.84831 82.133 5.35652V10.4785H80.3343V9.4272H80.2723C80.1586 9.63978 79.9983 9.83908 79.7916 10.0251C79.5883 10.2078 79.3316 10.3556 79.0214 10.4685C78.7148 10.5781 78.3547 10.633 77.9412 10.633ZM78.427 9.30762C78.8026 9.30762 79.1283 9.2362 79.4039 9.09337C79.6796 8.94722 79.8915 8.75456 80.0397 8.51541C80.1913 8.27625 80.2671 8.0155 80.2671 7.73316V6.83133C80.2085 6.87784 80.1086 6.92102 79.9673 6.96088C79.8295 7.00074 79.6744 7.03561 79.5021 7.06551C79.3298 7.0954 79.1593 7.12198 78.9904 7.14523C78.8216 7.16848 78.6751 7.18841 78.5511 7.20502C78.272 7.24156 78.0221 7.30135 77.8016 7.38439C77.5811 7.46743 77.4071 7.58369 77.2796 7.73316C77.1521 7.87931 77.0883 8.06864 77.0883 8.30116C77.0883 8.63332 77.2141 8.88411 77.4656 9.05351C77.7172 9.22292 78.0377 9.30762 78.427 9.30762Z" fill="#2C8658"/>
<path d="M84.0144 10.4785V2.82543H85.8286V4.10094H85.9114C86.0561 3.65917 86.3042 3.3187 86.6556 3.07954C87.0106 2.83706 87.4154 2.71582 87.8703 2.71582C87.9737 2.71582 88.0891 2.7208 88.2166 2.73077C88.3475 2.73741 88.4561 2.74904 88.5422 2.76564V4.4248C88.463 4.39823 88.3372 4.37498 88.1649 4.35505C87.9961 4.3318 87.8324 4.32017 87.6739 4.32017C87.3328 4.32017 87.0261 4.39159 86.7539 4.53442C86.4851 4.67393 86.2732 4.86824 86.1181 5.11737C85.963 5.36649 85.8855 5.65381 85.8855 5.97933V10.4785H84.0144Z" fill="#2C8658"/>
<path d="M92.9731 10.628C92.1771 10.628 91.4897 10.4685 90.9108 10.1497C90.3354 9.82745 89.8926 9.37239 89.5824 8.78446C89.2723 8.19321 89.1173 7.49732 89.1173 6.69681C89.1173 5.90958 89.2723 5.21868 89.5824 4.6241C89.896 4.02621 90.3336 3.56118 90.8953 3.22901C91.457 2.89353 92.1168 2.72579 92.8749 2.72579C93.3642 2.72579 93.826 2.80218 94.2601 2.95498C94.6978 3.10445 95.0837 3.33697 95.4179 3.65252C95.7556 3.96808 96.021 4.37 96.2139 4.85828C96.4069 5.34324 96.5034 5.9212 96.5034 6.59218V7.14523H89.9959V5.92951H94.7098C94.7064 5.58406 94.6288 5.27681 94.4772 5.00775C94.3256 4.73538 94.1137 4.52113 93.8415 4.36501C93.5727 4.2089 93.2591 4.13084 92.9008 4.13084C92.5183 4.13084 92.1823 4.22052 91.8929 4.39989C91.6034 4.57594 91.3777 4.80845 91.2158 5.09744C91.0572 5.3831 90.9763 5.69699 90.9728 6.03912V7.10039C90.9728 7.54549 91.0573 7.92748 91.2261 8.24635C91.3949 8.56191 91.631 8.80439 91.9342 8.97379C92.2374 9.13987 92.5924 9.22291 92.999 9.22291C93.2712 9.22291 93.5176 9.18638 93.7381 9.1133C93.9586 9.0369 94.1499 8.92563 94.3118 8.77948C94.4738 8.63332 94.5961 8.45229 94.6788 8.23639L96.4258 8.42572C96.3156 8.87082 96.1054 9.25945 95.7953 9.59162C95.4886 9.92046 95.0958 10.1762 94.6168 10.3589C94.1378 10.5383 93.5899 10.628 92.9731 10.628Z" fill="#2C8658"/>
<path d="M101.343 10.4785V2.31523H102.579V5.34855H102.654C102.725 5.221 102.829 5.07352 102.964 4.90611C103.099 4.7387 103.286 4.59255 103.526 4.46765C103.766 4.3401 104.083 4.27633 104.477 4.27633C104.99 4.27633 105.448 4.40122 105.85 4.65101C106.253 4.9008 106.568 5.26086 106.797 5.73121C107.029 6.20155 107.144 6.76756 107.144 7.42923C107.144 8.0909 107.03 8.65824 106.801 9.13124C106.572 9.60158 106.258 9.96431 105.858 10.2194C105.459 10.4719 105.002 10.5981 104.49 10.5981C104.104 10.5981 103.788 10.5356 103.543 10.4107C103.3 10.2858 103.11 10.1397 102.972 9.97228C102.834 9.80487 102.728 9.65606 102.654 9.52585H102.55V10.4785H101.343ZM102.555 7.41727C102.555 7.84776 102.619 8.22509 102.749 8.54929C102.878 8.87348 103.066 9.12725 103.311 9.31061C103.557 9.4913 103.857 9.58165 104.213 9.58165C104.582 9.58165 104.891 9.48732 105.139 9.29865C105.387 9.10732 105.574 8.84823 105.701 8.52138C105.831 8.19453 105.896 7.8265 105.896 7.41727C105.896 7.01336 105.832 6.65064 105.705 6.3291C105.581 6.00757 105.394 5.75379 105.143 5.56778C104.895 5.38177 104.585 5.28876 104.213 5.28876C103.854 5.28876 103.551 5.37778 103.303 5.55582C103.058 5.73386 102.872 5.98232 102.745 6.3012C102.618 6.62008 102.555 6.9921 102.555 7.41727Z" fill="#2C8658"/>
<path d="M109.098 12.7744C108.913 12.7744 108.745 12.7598 108.594 12.7306C108.442 12.704 108.329 12.6748 108.255 12.6429L108.552 11.6663C108.778 11.7248 108.98 11.75 109.156 11.742C109.332 11.7341 109.488 11.6703 109.623 11.5507C109.761 11.4311 109.882 11.2358 109.987 10.9648L110.14 10.5582L107.816 4.35605H109.139L110.748 9.10732H110.814L112.423 4.35605H113.75L111.133 11.2956C111.011 11.6145 110.857 11.8842 110.669 12.1048C110.482 12.328 110.259 12.4954 110 12.607C109.74 12.7186 109.44 12.7744 109.098 12.7744Z" fill="#2C8658"/>
<g clip-path="url(#clip0_364_7094)">
<path d="M31.0135 24.777C27.6351 22.6371 23.7838 21.1659 19.6622 20.5641V16.6186C19.6622 15.5486 19.4595 14.6793 18.9865 14.2112C18.6486 13.7431 17.973 13.4756 17.1622 13.4756H14.8649V14.8799H16.7568C17.7027 14.8799 18.0405 15.5486 18.0405 16.6855V20.3634C17.2297 20.2966 16.3514 20.2297 15.5405 20.2297C14.8649 20.2297 14.2568 20.2297 13.5811 20.2966V13.4756L11.8919 13.9437V20.4303C7.56757 20.9653 3.51351 22.5034 0 24.777C3.64865 22.9715 7.63514 21.7678 11.8919 21.2997V26.5826C11.8919 27.6525 12.0946 28.5219 12.5676 28.99C12.973 29.4581 13.5811 29.7256 14.3919 29.7256H16.7568V28.3213H14.8649C13.9189 28.3213 13.5811 27.6525 13.5811 26.5157V21.1659C14.2568 21.099 14.8649 21.099 15.5405 21.099C15.9885 21.099 16.4189 21.1164 16.8406 21.1335C17.2459 21.1499 17.6432 21.1659 18.0405 21.1659V29.7256L19.7297 29.2575V21.3665C23.7162 21.8346 27.5676 23.0383 31.0135 24.777Z" fill="#1B5035"/>
<path d="M55.2703 23.5733C55.2703 22.3027 55.6081 21.5671 56.6892 21.5671L57.3649 21.5002V19.9622H56.2162C55.3378 19.9622 54.6621 20.2965 54.1892 20.7646C53.6486 21.3665 53.4459 22.3027 53.4459 23.5064V27.5188H55.2703V23.5733Z" fill="#1B5035"/>
<path d="M61.554 21.5671C60.473 21.5671 60.1351 22.3027 60.1351 23.5733V27.5188H58.3108V23.5064C58.3108 22.3027 58.5135 21.3665 59.054 20.7646C59.527 20.2965 60.2027 19.9622 61.0811 19.9622H62.2297V21.5002L61.554 21.5671Z" fill="#1B5035"/>
<path d="M90.9459 21.5671C89.8649 21.5671 89.527 22.3027 89.527 23.5733V27.5188H87.7027V23.5064C87.7027 22.3027 87.9054 21.3665 88.4459 20.7646C88.9189 20.2965 89.5946 19.9622 90.473 19.9622H91.6216V21.5002L90.9459 21.5671Z" fill="#1B5035"/>
<path fill-rule="evenodd" clip-rule="evenodd" d="M48.2433 27.7194C49.7973 27.7194 50.8108 27.2513 51.6216 26.1144L50.1351 25.2451C49.6622 25.7801 49.1216 25.9807 48.3108 25.9807C47.2297 25.9807 46.4189 25.3788 46.2162 24.3089H52.1622V23.9077C52.1622 21.634 50.6081 19.9622 48.2433 19.9622C45.8784 19.9622 44.3919 21.8346 44.3919 23.8408C44.3919 25.9807 45.8784 27.7194 48.2433 27.7194ZM48.2433 21.5671C49.2568 21.5671 50 22.1021 50.2703 22.9714H46.2838C46.6216 22.0352 47.2973 21.5671 48.2433 21.5671Z" fill="#1B5035"/>
<path fill-rule="evenodd" clip-rule="evenodd" d="M68.7838 26.7832C68.1081 27.385 67.4324 27.7194 66.4865 27.7194C64.5946 27.7194 62.973 26.1144 62.973 23.8408C62.973 21.5671 64.527 19.9622 66.4865 19.9622C67.3649 19.9622 68.1757 20.2965 68.7838 20.9653V20.1628H70.6081V27.5188H68.7838V26.7832ZM64.8649 23.8408C64.8649 25.1114 65.6757 26.0476 66.8243 26.0476C67.973 26.0476 68.8514 25.1782 68.8514 23.8408C68.8514 22.5702 67.973 21.7009 66.8243 21.7009C65.6081 21.7009 64.8649 22.7039 64.8649 23.8408Z" fill="#1B5035"/>
<path fill-rule="evenodd" clip-rule="evenodd" d="M82.4324 27.7194C84.6622 27.7194 86.3513 25.9807 86.3513 23.8408C86.3513 21.7009 84.5946 20.0291 82.4324 19.9622C80.4054 19.9622 78.5811 21.634 78.5811 23.8408C78.5811 26.0476 80.2703 27.7194 82.4324 27.7194ZM82.4324 25.9807C81.2838 25.9807 80.473 25.1114 80.473 23.8408C80.473 22.6371 81.2838 21.7677 82.4324 21.7009C83.6486 21.7009 84.4595 22.5702 84.4595 23.8408C84.4595 25.1782 83.5811 25.9807 82.4324 25.9807Z" fill="#1B5035"/>
<path fill-rule="evenodd" clip-rule="evenodd" d="M111.149 26.7832C110.473 27.385 109.797 27.7194 108.851 27.7194C106.959 27.7194 105.338 26.1144 105.338 23.8408C105.338 21.5671 106.892 19.9622 108.851 19.9622C109.73 19.9622 110.541 20.2965 111.149 20.9653V20.1628H112.973V27.5188H111.149V26.7832ZM107.162 23.8408C107.162 25.1114 107.973 26.0476 109.122 26.0476C110.27 26.0476 111.149 25.1782 111.149 23.8408C111.149 22.5702 110.27 21.7009 109.122 21.7009C107.973 21.7009 107.162 22.7039 107.162 23.8408Z" fill="#1B5035"/>
<path d="M122.365 19.0929C123.041 19.0929 123.581 18.5579 123.581 17.8892C123.581 17.2205 123.041 16.6855 122.365 16.6855C121.689 16.6855 121.149 17.2205 121.149 17.8223C121.149 18.4911 121.689 19.0929 122.365 19.0929Z" fill="#1B5035"/>
<path d="M123.311 20.2297H121.487V27.5857H123.311V20.2297Z" fill="#1B5035"/>
<path d="M46.2838 15.4149H35.946V17.2205H40.1351V27.5188H42.027V17.2205H46.2838V15.4149Z" fill="#1B5035"/>
<path fill-rule="evenodd" clip-rule="evenodd" d="M128.446 27.7194C130.676 27.7194 132.365 25.9807 132.365 23.8408C132.365 21.7009 130.608 20.0291 128.446 19.9622C126.419 19.9622 124.595 21.634 124.595 23.8408C124.595 26.0476 126.284 27.7194 128.446 27.7194ZM128.446 25.9807C127.297 25.9807 126.487 25.1114 126.487 23.8408C126.487 22.6371 127.297 21.7677 128.446 21.7009C129.662 21.7009 130.473 22.5702 130.473 23.8408C130.473 25.1782 129.595 25.9807 128.446 25.9807Z" fill="#1B5035"/>
<path d="M120.135 21.7678V20.1629H118.041V16.6855L116.216 17.2205V20.2297H114.257V21.8347H116.216V25.5795C116.216 26.7832 116.419 27.7194 116.959 28.3213C117.432 28.7894 118.108 29.1238 118.986 29.1238H120.135V27.5188H119.459C118.378 27.5188 118.041 26.7832 118.041 25.5127V21.7678H120.135Z" fill="#1B5035"/>
<path d="M77.8378 15.6824V17.2205H77.1622C75.9459 17.2205 75.7432 17.8223 75.7432 19.2266V20.1629H77.8378V21.7678H75.7432V28.9232L73.9189 29.4581V21.9015H71.9595V20.2966H73.9189V19.2266C73.9189 17.9561 74.1216 17.0867 74.6622 16.4849C75.0676 15.9499 75.8108 15.6824 76.6892 15.6824H77.8378Z" fill="#1B5035"/>
<path d="M99.527 27.5188H97.7027V23.9746C97.7027 22.5703 97.4324 21.7009 96.4189 21.7009C95.473 21.7009 94.7973 22.4365 94.7973 23.9746V27.5188H92.973V20.0291H94.7973V21.0322C95.4054 20.3635 96.2162 20.0291 97.0946 20.0291C98.0405 20.0291 98.7838 20.4304 99.2567 21.3666C99.9324 20.4972 100.608 20.0291 101.757 20.0291C102.568 20.0291 103.311 20.3635 103.716 20.8985C104.189 21.5003 104.257 22.3028 104.257 23.3059V27.5188H102.432V23.5065C102.432 22.3028 102.027 21.7009 101.149 21.7009C100.203 21.7009 99.527 22.4365 99.527 23.9077V27.5188Z" fill="#1B5035"/>
<path d="M137.432 20.0291C136.622 20.0291 136.014 20.3635 135.27 20.9653V20.1629H133.446V27.5188H135.27V24.4427C135.27 24.3497 135.269 24.2577 135.268 24.1668C135.261 23.539 135.254 22.9623 135.608 22.4365C135.946 21.9684 136.351 21.7009 136.892 21.7009C138.041 21.7009 138.176 22.5703 138.176 24.0415V27.5188H140V22.5703C140 20.9653 138.784 20.0291 137.432 20.0291Z" fill="#1B5035"/>
</g>
<defs>
<clipPath id="clip0_364_7094">
<rect width="140" height="16.25" fill="white" transform="translate(0 13.4756)"/>
</clipPath>
</defs>
</svg>
