<svg width="200" height="128" viewBox="0 0 200 128" fill="none" xmlns="http://www.w3.org/2000/svg">
<g clip-path="url(#clip0_1311_275)">
<path fill-rule="evenodd" clip-rule="evenodd" d="M97.4918 4.02646C121.525 3.26552 142.827 18.9916 150.776 41.6853C159.348 66.1563 155.264 94.4163 134.675 110.177C112.543 127.12 80.7455 129.407 59.0605 111.895C39.7505 96.3004 45.3398 68.1406 53.6699 44.7598C61.0697 23.99 75.4542 4.72419 97.4918 4.02646Z" fill="#E2F6EC"/>
<path fill-rule="evenodd" clip-rule="evenodd" d="M97.4918 4.02646C121.525 3.26552 142.827 18.9916 150.776 41.6853C159.348 66.1563 155.264 94.4163 134.675 110.177C112.543 127.12 80.7455 129.407 59.0605 111.895C39.7505 96.3004 45.3398 68.1406 53.6699 44.7598C61.0697 23.99 75.4542 4.72419 97.4918 4.02646Z" fill="url(#paint0_linear_1311_275)" fill-opacity="0.2"/>
<path d="M108.999 106.449C108.992 106.449 108.986 106.449 108.98 106.449C106.23 106.449 103.998 103.119 103.98 99C103.962 103.109 101.741 106.434 99 106.449C99 106.449 99 106.449 99 106.449C101.741 106.464 103.962 109.789 103.98 113.898C103.998 109.779 106.23 106.449 108.98 106.449C108.986 106.449 108.992 106.449 108.999 106.449C108.999 106.449 108.999 106.449 108.999 106.449Z" fill="url(#paint1_linear_1311_275)"/>
<path d="M142.999 19.4489C142.992 19.4489 142.986 19.449 142.98 19.449C140.23 19.449 137.998 16.1186 137.98 12C137.962 16.1091 135.741 19.4336 133 19.4489C133 19.4489 133 19.4489 133 19.4489C135.741 19.4642 137.962 22.7889 137.98 26.8979C137.998 22.7794 140.23 19.449 142.98 19.449C142.986 19.449 142.992 19.4489 142.999 19.4489C142.999 19.4489 142.999 19.4489 142.999 19.4489Z" fill="url(#paint2_linear_1311_275)"/>
<path d="M66.9987 42.4489C66.9923 42.4489 66.9859 42.449 66.9795 42.449C64.2296 42.449 61.9982 39.1186 61.9803 35C61.9623 39.1091 59.7412 42.4336 57 42.4489C57 42.4489 57 42.4489 57 42.4489C59.7412 42.4642 61.9623 45.7889 61.9803 49.8979C61.9982 45.7794 64.2296 42.449 66.9795 42.449C66.9859 42.449 66.9923 42.4489 66.9987 42.4489C66.9987 42.4489 66.9987 42.4489 66.9987 42.4489Z" fill="url(#paint3_linear_1311_275)"/>
<mask id="mask0_1311_275" style="mask-type:alpha" maskUnits="userSpaceOnUse" x="0" y="0" width="200" height="128">
<path fill-rule="evenodd" clip-rule="evenodd" d="M97.4918 4.02646C121.525 3.26552 142.827 18.9916 150.776 41.6853C159.348 66.1563 155.264 94.4163 134.675 110.177C112.543 127.12 80.7455 129.407 59.0605 111.895C39.7505 96.3004 45.3398 68.1406 53.6699 44.7598C61.0697 23.99 75.4542 4.72419 97.4918 4.02646Z" fill="#E2F6EC"/>
<path fill-rule="evenodd" clip-rule="evenodd" d="M97.4918 4.02646C121.525 3.26552 142.827 18.9916 150.776 41.6853C159.348 66.1563 155.264 94.4163 134.675 110.177C112.543 127.12 80.7455 129.407 59.0605 111.895C39.7505 96.3004 45.3398 68.1406 53.6699 44.7598C61.0697 23.99 75.4542 4.72419 97.4918 4.02646Z" fill="url(#paint4_linear_1311_275)" fill-opacity="0.2"/>
</mask>
<g mask="url(#mask0_1311_275)">
<path opacity="0.25" d="M155.247 93.9851L110.72 49.4581L74.9644 78.9655L120.034 124.035L155.247 93.9851Z" fill="url(#paint5_linear_1311_275)"/>
</g>
<path d="M84.0573 60C84.736 51.8 91.6267 45.3333 100 45.3333C108.373 45.3333 115.264 51.8 115.943 60H116.667C122.916 60 128 65.084 128 71.3333C128 77.5827 122.916 82.6667 116.667 82.6667H104.667H95.3333H83.3333C77.084 82.6667 72 77.5827 72 71.3333C72 65.084 77.084 60 83.3333 60H84.0573Z" fill="#EAF3DC"/>
<path d="M100 45.3333C91.6267 45.3333 84.736 51.8 84.0573 60H83.3333C77.084 60 72 65.084 72 71.3333C72 77.5827 77.084 82.6667 83.3333 82.6667H95.3333V78.6667H83.3333C79.2893 78.6667 76 75.3773 76 71.3333C76 67.2893 79.2893 64 83.3333 64H86C87.1053 64 88 63.1053 88 62V61.3333C88 54.7173 93.384 49.3333 100 49.3333C106.616 49.3333 112 54.7173 112 61.3333V62C112 63.1053 112.895 64 114 64H116.667C120.711 64 124 67.2893 124 71.3333C124 75.3773 120.711 78.6667 116.667 78.6667H104.667V82.6667H116.667C122.916 82.6667 128 77.5827 128 71.3333C128 65.084 122.916 60 116.667 60H115.943C115.264 51.8 108.373 45.3333 100 45.3333ZM99.9688 63.9714C99.6644 63.9764 99.3653 64.0507 99.0941 64.1888C98.8228 64.3269 98.5867 64.5251 98.4036 64.7682L92.5859 70.5859C92.394 70.7702 92.2408 70.991 92.1352 71.2352C92.0296 71.4795 91.9739 71.7423 91.9711 72.0084C91.9684 72.2745 92.0189 72.5384 92.1194 72.7848C92.22 73.0312 92.3687 73.255 92.5569 73.4431C92.745 73.6313 92.9689 73.78 93.2152 73.8806C93.4616 73.9811 93.7255 74.0316 93.9916 74.0289C94.2577 74.0261 94.5205 73.9704 94.7648 73.8648C95.009 73.7593 95.2298 73.606 95.4141 73.4141L98 70.8281V86C97.9963 86.265 98.0452 86.5282 98.144 86.7741C98.2429 87.02 98.3896 87.2439 98.5757 87.4326C98.7618 87.6213 98.9835 87.7712 99.228 87.8735C99.4725 87.9758 99.735 88.0285 100 88.0285C100.265 88.0285 100.527 87.9758 100.772 87.8735C101.016 87.7712 101.238 87.6213 101.424 87.4326C101.61 87.2439 101.757 87.02 101.856 86.7741C101.955 86.5282 102.004 86.265 102 86V70.8281L104.586 73.4141C104.77 73.606 104.991 73.7593 105.235 73.8648C105.479 73.9704 105.742 74.0261 106.008 74.0289C106.274 74.0316 106.538 73.9811 106.785 73.8806C107.031 73.78 107.255 73.6313 107.443 73.4431C107.631 73.255 107.78 73.0312 107.881 72.7848C107.981 72.5384 108.032 72.2745 108.029 72.0084C108.026 71.7423 107.97 71.4795 107.865 71.2352C107.759 70.991 107.606 70.7702 107.414 70.5859L101.586 64.7578C101.396 64.5096 101.152 64.3092 100.871 64.1726C100.59 64.036 100.281 63.9671 99.9688 63.9714Z" fill="#2C8658"/>
</g>
<defs>
<linearGradient id="paint0_linear_1311_275" x1="133" y1="114" x2="49.2303" y2="31.7842" gradientUnits="userSpaceOnUse">
<stop stop-color="#F1F0EC"/>
<stop offset="1" stop-color="#84D6AC"/>
</linearGradient>
<linearGradient id="paint1_linear_1311_275" x1="99" y1="99" x2="109" y2="114" gradientUnits="userSpaceOnUse">
<stop stop-color="#2C8658"/>
<stop offset="1" stop-color="#ACD278"/>
</linearGradient>
<linearGradient id="paint2_linear_1311_275" x1="133" y1="12" x2="143" y2="27" gradientUnits="userSpaceOnUse">
<stop stop-color="#2C8658"/>
<stop offset="1" stop-color="#ACD278"/>
</linearGradient>
<linearGradient id="paint3_linear_1311_275" x1="57" y1="35" x2="67" y2="50" gradientUnits="userSpaceOnUse">
<stop stop-color="#2C8658"/>
<stop offset="1" stop-color="#ACD278"/>
</linearGradient>
<linearGradient id="paint4_linear_1311_275" x1="133" y1="114" x2="49.2303" y2="31.7842" gradientUnits="userSpaceOnUse">
<stop stop-color="#F1F0EC"/>
<stop offset="1" stop-color="#84D6AC"/>
</linearGradient>
<linearGradient id="paint5_linear_1311_275" x1="89.4081" y1="67" x2="133.953" y2="114.369" gradientUnits="userSpaceOnUse">
<stop stop-color="#2C8658"/>
<stop offset="1" stop-color="#ACD278"/>
</linearGradient>
<clipPath id="clip0_1311_275">
<rect width="200" height="128" fill="white"/>
</clipPath>
</defs>
</svg>
