<svg width="136" height="118" viewBox="0 0 136 118" fill="none" xmlns="http://www.w3.org/2000/svg">
<g filter="url(#filter0_d_820_17368)">
<rect x="102.152" y="8.5" width="97" height="79" rx="3.5" transform="rotate(90 102.152 8.5)" fill="#E3E1D9" stroke="#7F775B"/>
<rect x="99.6523" y="12" width="87" height="74" rx="2" transform="rotate(90 99.6523 12)" fill="white"/>
<path d="M56.7142 4.5H57.0826L57.1917 4.14806C57.4951 3.16941 58.328 2.25814 59.5739 1.58389C60.8141 0.912703 62.4249 0.5 64.1978 0.5C65.9706 0.5 67.5814 0.912703 68.8217 1.58389C70.0675 2.25814 70.9004 3.16941 71.2038 4.14806L71.3129 4.5H71.6814H79.6523C80.4808 4.5 81.1523 5.17157 81.1523 6V13C81.1523 13.8284 80.4808 14.5 79.6523 14.5H47.6523C46.8239 14.5 46.1523 13.8284 46.1523 13V6C46.1523 5.17157 46.8239 4.5 47.6523 4.5H56.7142Z" fill="#9A9172" stroke="#7F775B"/>
<path d="M39.3262 90.7384C39.3262 90.1883 39.7721 89.7424 40.3221 89.7424H51.6098C52.1598 89.7424 52.6057 90.1883 52.6057 90.7384C52.6057 91.2885 52.1598 91.7344 51.6098 91.7344H40.3221C39.7721 91.7344 39.3262 91.2885 39.3262 90.7384Z" fill="#E3E1D9"/>
<path d="M39.3262 85.0945C39.3262 83.9944 40.218 83.1025 41.3181 83.1025H77.5049C78.605 83.1025 79.4968 83.9944 79.4968 85.0945C79.4968 86.1946 78.605 87.0864 77.5049 87.0864H41.3181C40.218 87.0864 39.3262 86.1946 39.3262 85.0945Z" fill="#E3E1D9"/>
<path d="M39.3262 75.4689C39.3262 74.9188 39.7721 74.4729 40.3221 74.4729H48.9539C49.5039 74.4729 49.9498 74.9188 49.9498 75.4689C49.9498 76.0189 49.5039 76.4648 48.9539 76.4648H40.3221C39.7721 76.4648 39.3262 76.0189 39.3262 75.4689Z" fill="#E3E1D9"/>
<path d="M39.3262 69.8254C39.3262 68.7253 40.218 67.8335 41.3181 67.8335H58.5815C59.6817 67.8335 60.5735 68.7253 60.5735 69.8254C60.5735 70.9255 59.6816 71.8174 58.5815 71.8174H41.3181C40.218 71.8174 39.3262 70.9255 39.3262 69.8254Z" fill="#E3E1D9"/>
<path d="M39.293 60.1974C39.293 59.6473 39.7389 59.2014 40.2889 59.2014H47.9422C48.4922 59.2014 48.9381 59.6473 48.9381 60.1974C48.9381 60.7474 48.4922 61.1933 47.9422 61.1933H40.2889C39.7389 61.1933 39.293 60.7474 39.293 60.1974Z" fill="#E3E1D9"/>
<path d="M38.9668 54.2815C38.9668 53.2328 39.817 52.3826 40.8658 52.3826H89.4796C90.5284 52.3826 91.3786 53.2328 91.3786 54.2815C91.3786 55.3303 90.5284 56.1805 89.4796 56.1805H40.8658C39.817 56.1805 38.9668 55.3303 38.9668 54.2815Z" fill="#E3E1D9"/>
<path d="M39.3262 44.9286C39.3262 44.3785 39.7721 43.9326 40.3221 43.9326H55.2616C55.8117 43.9326 56.2576 44.3785 56.2576 44.9286C56.2576 45.4786 55.8117 45.9246 55.2616 45.9246H40.3221C39.7721 45.9246 39.3262 45.4786 39.3262 44.9286Z" fill="#E3E1D9"/>
<path d="M39.3262 39.2844C39.3262 38.1843 40.218 37.2925 41.3181 37.2925H79.8288C80.9289 37.2925 81.8208 38.1843 81.8208 39.2844C81.8208 40.3845 80.9289 41.2763 79.8288 41.2763H41.3181C40.218 41.2763 39.3262 40.3845 39.3262 39.2844Z" fill="#E3E1D9"/>
<path d="M39.3242 29.6537C39.3242 29.1036 39.7701 28.6577 40.3202 28.6577H51.6078C52.1579 28.6577 52.6038 29.1036 52.6038 29.6537C52.6038 30.2037 52.1579 30.6496 51.6078 30.6496H40.3202C39.7701 30.6496 39.3242 30.2037 39.3242 29.6537Z" fill="#E3E1D9"/>
<path d="M38.9688 23.899C38.9688 22.8502 39.819 22 40.8677 22H84.1644C85.2132 22 86.0634 22.8502 86.0634 23.899C86.0634 24.9478 85.2132 25.798 84.1644 25.798H40.8677C39.8189 25.798 38.9688 24.9478 38.9688 23.899Z" fill="#E3E1D9"/>
<circle cx="35.1715" cy="24.2787" r="1.51918" fill="#E3E1D9"/>
<circle cx="35.1715" cy="39.4706" r="1.51918" fill="#E3E1D9"/>
<circle cx="35.1715" cy="69.8541" r="1.51918" fill="#E3E1D9"/>
<circle cx="35.1715" cy="85.046" r="1.51918" fill="#E3E1D9"/>
<circle cx="35.1715" cy="54.6625" r="1.51918" fill="#E3E1D9"/>
<path d="M85.6034 47.9843C85.6034 47.9843 100.255 40.0145 112.083 44.5324C123.912 49.0503 128.438 64.3539 128.438 64.3539C128.438 64.3539 113.786 72.3237 101.958 67.8058C90.1296 63.2879 85.6034 47.9843 85.6034 47.9843Z" fill="#E7F2D5"/>
<path d="M117.478 58.9323C109.011 53.2129 101.179 47.9167 76.6519 46.43" stroke="#A3D24F" stroke-width="2" stroke-miterlimit="10" stroke-linecap="round"/>
<path d="M85.6034 47.9843C85.6034 47.9843 100.255 40.0145 112.083 44.5324C123.912 49.0503 128.438 64.3539 128.438 64.3539C128.438 64.3539 113.786 72.3237 101.958 67.8058C90.1296 63.2879 85.6034 47.9843 85.6034 47.9843Z" stroke="#A3D24F" stroke-width="2" stroke-miterlimit="10" stroke-linecap="round"/>
<circle cx="22.7832" cy="40" r="15" fill="white" stroke="#2C8658" stroke-width="2"/>
<path d="M22.5391 31.0476L22.5391 48.4703" stroke="#2C8658" stroke-width="2" stroke-linecap="round"/>
<path d="M31.25 39.7585L13.8273 39.7585" stroke="#2C8658" stroke-width="2" stroke-linecap="round"/>
</g>
<defs>
<filter id="filter0_d_820_17368" x="0.783203" y="0" width="134.844" height="118" filterUnits="userSpaceOnUse" color-interpolation-filters="sRGB">
<feFlood flood-opacity="0" result="BackgroundImageFix"/>
<feColorMatrix in="SourceAlpha" type="matrix" values="0 0 0 0 0 0 0 0 0 0 0 0 0 0 0 0 0 0 127 0" result="hardAlpha"/>
<feOffset dy="6"/>
<feGaussianBlur stdDeviation="3"/>
<feComposite in2="hardAlpha" operator="out"/>
<feColorMatrix type="matrix" values="0 0 0 0 0.1 0 0 0 0 0.1 0 0 0 0 0.1 0 0 0 0.1 0"/>
<feBlend mode="normal" in2="BackgroundImageFix" result="effect1_dropShadow_820_17368"/>
<feBlend mode="normal" in="SourceGraphic" in2="effect1_dropShadow_820_17368" result="shape"/>
</filter>
</defs>
</svg>
