<svg width="20" height="20" viewBox="0 0 20 20" xmlns="http://www.w3.org/2000/svg">
<path d="M10 0C4.48603 0 0 4.48604 0 10C0 15.514 4.48603 20 10 20C15.514 20 20 15.514 20 10C20 4.48604 15.514 0 10 0ZM10 1.5C14.7033 1.5 18.5 5.2967 18.5 10C18.5 14.7033 14.7033 18.5 10 18.5C5.29669 18.5 1.5 14.7033 1.5 10C1.5 5.2967 5.29669 1.5 10 1.5ZM5.75 7.5C4.79252 7.5 4 8.29252 4 9.25V10.75C4 11.7075 4.79252 12.5 5.75 12.5H14.25C15.2075 12.5 16 11.7075 16 10.75V9.25C16 8.29252 15.2075 7.5 14.25 7.5H5.75ZM5.75 9H14.25C14.3975 9 14.5 9.10248 14.5 9.25V10.75C14.5 10.8975 14.3975 11 14.25 11H5.75C5.60248 11 5.5 10.8975 5.5 10.75V9.25C5.5 9.10248 5.60248 9 5.75 9Z"/>
</svg>
