<svg width="20" height="19" viewBox="0 0 20 19" xmlns="http://www.w3.org/2000/svg">
<path d="M10 0.526367C9.22278 0.526367 8.44555 0.90537 8.02539 1.66406L0.28516 15.6475C-0.531149 17.1224 0.574047 19 2.25977 19H17.7412C19.4269 19 20.5321 17.1224 19.7158 15.6475L11.9746 1.66406C11.5545 0.90537 10.7772 0.526367 10 0.526367ZM10 1.97461C10.2543 1.97461 10.5083 2.11282 10.6621 2.39062L18.4033 16.374C18.7 16.9101 18.3525 17.5 17.7412 17.5H2.25977C1.64849 17.5 1.30097 16.9101 1.59766 16.374L9.33789 2.39062C9.49174 2.11282 9.74573 1.97461 10 1.97461ZM9.98829 5.98926C9.78954 5.99236 9.60016 6.07423 9.46173 6.21686C9.3233 6.3595 9.24715 6.55125 9.25 6.75V11.75C9.2486 11.8494 9.26696 11.9481 9.30402 12.0403C9.34108 12.1325 9.3961 12.2164 9.46588 12.2872C9.53567 12.358 9.61882 12.4142 9.71051 12.4526C9.80221 12.4909 9.90061 12.5107 10 12.5107C10.0994 12.5107 10.1978 12.4909 10.2895 12.4526C10.3812 12.4142 10.4643 12.358 10.5341 12.2872C10.6039 12.2164 10.6589 12.1325 10.696 12.0403C10.733 11.9481 10.7514 11.8494 10.75 11.75V6.75C10.7514 6.64962 10.7327 6.54997 10.6949 6.45695C10.6572 6.36394 10.6011 6.27946 10.53 6.20852C10.459 6.13758 10.3745 6.08161 10.2814 6.04395C10.1883 6.00629 10.0887 5.98769 9.98829 5.98926ZM10 14C9.73479 14 9.48043 14.1054 9.2929 14.2929C9.10536 14.4804 9 14.7348 9 15C9 15.2652 9.10536 15.5196 9.2929 15.7071C9.48043 15.8946 9.73479 16 10 16C10.2652 16 10.5196 15.8946 10.7071 15.7071C10.8946 15.5196 11 15.2652 11 15C11 14.7348 10.8946 14.4804 10.7071 14.2929C10.5196 14.1054 10.2652 14 10 14Z"/>
</svg>
